<?xml version="1.0" standalone="no"?>
<!DOCTYPE svg PUBLIC "-//W3C//DTD SVG 1.1//EN" "http://www.w3.org/Graphics/SVG/1.1/DTD/svg11.dtd" >
<svg xmlns="http://www.w3.org/2000/svg" xmlns:xlink="http://www.w3.org/1999/xlink" version="1.1">
<metadata>
Created by FontForge 20200314 at Wed Feb  3 17:40:57 2016
 By Unknown
Copyright (c) 2008 by Dino dos Santos _DSType. All rights reserved.
</metadata>
<defs>
<font id="PreloSlabW04-Bold" horiz-adv-x="587" >
  <font-face 
    font-family="PreloSlabW04-Bold"
    font-weight="400"
    font-stretch="normal"
    units-per-em="1000"
    panose-1="2 0 5 3 4 0 0 2 0 4"
    ascent="800"
    descent="-200"
    x-height="500"
    cap-height="680"
    bbox="-48 -270 1142 950"
    underline-thickness="50"
    underline-position="-125"
    unicode-range="U+0020-FB04"
  />
<missing-glyph horiz-adv-x="590" 
d="M520 500v-500h-450v500h450zM81 485v-469l206 233zM509 18v465l-205 -234zM296 259l202 229h-405zM95 12h401l-200 228z" />
    <glyph glyph-name="uniFB00" unicode="ff" horiz-adv-x="641" 
d="M381 407h-169v-300h55v-107h-242v107h57v300h-67v85l67 8v47q0 80 36 116.5t122 36.5q20 0 43 -2.5t44 -6.5l-11 -100q-14 2 -25.5 3.5t-20.5 1.5q-34 0 -46 -18.5t-12 -53.5v-24h169v47q0 80 36 116.5t122 36.5q20 0 43 -2.5t44 -6.5l-12 -100q-14 2 -25 3.5t-20 1.5
q-34 0 -46 -18.5t-12 -53.5v-24h110v-93h-110v-300h63v-107h-243v107h50v300z" />
    <glyph glyph-name="uniFB01" unicode="fi" horiz-adv-x="584" 
d="M569 107v-107h-238v107h50v300h-169v-300h55v-107h-242v107h57v300h-67v85l67 8v24q0 40 10 72.5t34.5 55.5t65 35.5t100.5 12.5q19 0 45 -2.5t53 -6.5t51.5 -10t40.5 -12l-12 -93q-14 4 -34.5 7.5t-42.5 6.5t-44.5 4.5t-41.5 1.5q-30 0 -48.5 -5.5t-29 -15.5t-14 -23
t-3.5 -28v-24h299v-393h58z" />
    <glyph glyph-name="uniFB02" unicode="fl" horiz-adv-x="584" 
d="M569 107v-107h-238v107h50v478q-23 8 -42.5 9.5t-31.5 1.5q-30 0 -48.5 -5.5t-29 -15.5t-14 -23t-3.5 -28v-24h110v-93h-110v-300h55v-107h-242v107h57v300h-67v85l67 8v24q0 40 10 72.5t34.5 55.5t65 35.5t100.5 12.5q31 0 64.5 -3.5t62.5 -12.5h92v-577h58z" />
    <glyph glyph-name="uniFB03" unicode="ffi" horiz-adv-x="882" 
d="M867 107v-107h-237v107h50v300h-169v-300h55v-107h-235v107h50v300h-169v-300h55v-107h-242v107h57v300h-67v85l67 8v47q0 80 36 116.5t122 36.5q20 0 43 -2.5t44 -6.5l-11 -100q-14 2 -25.5 3.5t-20.5 1.5q-34 0 -46 -18.5t-12 -53.5v-24h169v24q0 40 10 72.5t34 55.5
t64.5 35.5t101.5 12.5q19 0 45 -2.5t53 -6.5t51.5 -10t40.5 -12l-12 -93q-15 4 -35 7.5t-42.5 6.5t-44.5 4.5t-41 1.5q-30 0 -48.5 -5.5t-29 -15.5t-14 -23t-3.5 -28v-24h299v-393h57z" />
    <glyph glyph-name="uniFB04" unicode="ffl" horiz-adv-x="882" 
d="M212 407v-300h55v-107h-242v107h57v300h-67v85l67 8v47q0 80 36 116.5t122 36.5q20 0 43 -2.5t44 -6.5l-11 -100q-14 2 -25.5 3.5t-20.5 1.5q-34 0 -46 -18.5t-12 -53.5v-24h169v24q0 40 10 72.5t34 55.5t64.5 35.5t101.5 12.5q31 0 64 -3.5t62 -12.5h93v-577h57v-107
h-237v107h50v478q-23 8 -42.5 9.5t-31.5 1.5q-30 0 -48.5 -5.5t-29 -15.5t-14 -23t-3.5 -28v-24h110v-93h-110v-300h55v-107h-235v107h50v300h-169z" />
    <glyph glyph-name="T_h.liga" unicode="Th" horiz-adv-x="1060" 
d="M672 680v-245h2q32 35 73 55t90 20q75 0 112.5 -45t37.5 -123v-235h58v-107h-238v107h50v205q0 44 -18 67t-62 23q-31 0 -58.5 -13t-46.5 -25v-257h50v-107h-237v107h57v465h-183v-465h57v-107h-252v107h57v465h-89v-60h-107v168h647z" />
    <glyph glyph-name="Tcaron_h.liga" unicode="&#x164;h" horiz-adv-x="1060" 
d="M672 680v-245h2q32 35 73 55t90 20q75 0 112.5 -45t37.5 -123v-235h58v-107h-238v107h50v205q0 44 -18 67t-62 23q-31 0 -58.5 -13t-46.5 -25v-257h50v-107h-237v107h57v465h-183v-465h57v-107h-252v107h57v465h-89v-60h-107v168h647zM289 801l77 69h70l-108 -140h-79
l-108 140h70z" />
    <glyph glyph-name="Tcommaaccent_h.liga" unicode="&#x162;h" horiz-adv-x="1060" 
d="M672 680v-245h2q32 35 73 55t90 20q75 0 112.5 -45t37.5 -123v-235h58v-107h-238v107h50v205q0 44 -18 67t-62 23q-31 0 -58.5 -13t-46.5 -25v-257h50v-107h-237v107h57v465h-183v-465h57v-107h-252v107h57v465h-89v-60h-107v168h647zM254 -260l25 102h-53v118h130v-118
l-62 -102h-40z" />
    <glyph glyph-name="f_f_j.liga" unicode="ffj" horiz-adv-x="852" 
d="M511 407v-300h55v-107h-235v107h50v300h-169v-300h55v-107h-242v107h57v300h-67v85l67 8v47q0 80 36 116.5t122 36.5q20 0 43 -2.5t44 -6.5l-11 -100q-14 2 -25.5 3.5t-20.5 1.5q-34 0 -46 -18.5t-12 -53.5v-24h169v24q0 40 10 72.5t34 55.5t64.5 35.5t101.5 12.5
q19 0 45 -2.5t53 -6.5t51.5 -10t40.5 -12l-12 -93q-15 4 -35 7.5t-42.5 6.5t-44.5 4.5t-41 1.5q-30 0 -48.5 -5.5t-29 -15.5t-14 -23t-3.5 -28v-24h299v-561q0 -37 -7 -65t-25 -46.5t-48.5 -28t-77.5 -9.5q-20 0 -43 2t-44 7l12 100q14 -3 25 -4t20 -1q33 0 45.5 11t12.5 43
v459h-169z" />
    <glyph glyph-name="f_j.liga" unicode="fj" horiz-adv-x="554" 
d="M212 407v-300h55v-107h-242v107h57v300h-67v85l67 8v24q0 40 10 72.5t34.5 55.5t65 35.5t100.5 12.5q19 0 45 -2.5t53 -6.5t51.5 -10t40.5 -12l-12 -93q-14 4 -34.5 7.5t-42.5 6.5t-44.5 4.5t-41.5 1.5q-30 0 -48.5 -5.5t-29 -15.5t-14 -23t-3.5 -28v-24h299v-561
q0 -37 -7 -65t-24.5 -46.5t-48 -28t-77.5 -9.5q-20 0 -43.5 2t-44.5 7l12 100q14 -3 25 -4t21 -1q32 0 44.5 11t12.5 43v459h-169z" />
    <glyph glyph-name=".notdef" horiz-adv-x="590" 
d="M520 500v-500h-450v500h450zM81 485v-469l206 233zM509 18v465l-205 -234zM296 259l202 229h-405zM95 12h401l-200 228z" />
    <glyph glyph-name=".null" horiz-adv-x="0" 
 />
    <glyph glyph-name="nonmarkingreturn" horiz-adv-x="333" 
 />
    <glyph glyph-name="space" unicode=" " horiz-adv-x="180" 
 />
    <glyph glyph-name="exclam" unicode="!" horiz-adv-x="215" 
d="M172 145v-145h-130v145h130zM172 700l-7 -480h-115l-8 480h130z" />
    <glyph glyph-name="quotedbl" unicode="&#x22;" horiz-adv-x="415" 
d="M172 680l-15 -175h-100l-15 175h130zM372 680l-15 -175h-100l-15 175h130z" />
    <glyph glyph-name="numbersign" unicode="#" horiz-adv-x="613" 
d="M278 500l-11 -103h110l11 103h92l-11 -103h100l-8 -85h-100l-14 -125h100l-8 -85h-100l-12 -102h-92l11 102h-110l-11 -102h-93l12 102h-100l8 85h100l14 125h-100l8 85h100l11 103h93zM245 187h110l13 125h-110z" />
    <glyph glyph-name="dollar" unicode="$" horiz-adv-x="620" 
d="M160 195v-71q48 -11 84.5 -15t65.5 -4q58 0 85 23t27 57q0 24 -13.5 40t-35.5 27t-50 19t-58 16q-44 12 -81.5 31t-64.5 45t-42 60t-15 77q0 48 17.5 82.5t47.5 57.5t71 35t88 14v91h55v-91q49 -2 99 -10.5t110 -26.5v-167h-108v75q-44 9 -73.5 12t-58.5 3q-53 0 -78 -20
t-25 -51q0 -21 11.5 -37t31.5 -28t47 -21t58 -16q44 -10 83 -26t67.5 -40.5t45 -57.5t16.5 -78q0 -50 -17 -88t-47.5 -64t-72 -40t-89.5 -17v-91h-55v91q-54 1 -112.5 9t-121.5 27v168h108z" />
    <glyph glyph-name="percent" unicode="%" horiz-adv-x="760" 
d="M237 0h-85l370 680h85zM180 389q-70 0 -106.5 39t-36.5 108q0 68 36.5 107t106.5 39q71 0 107 -39t36 -107q0 -69 -36 -108t-107 -39zM180 454q63 0 63 82t-63 82q-62 0 -62 -82t62 -82zM579 -3q-70 0 -106.5 39.5t-36.5 107.5q0 69 36.5 108t106.5 39q71 0 107 -39
t36 -108q0 -68 -36 -107.5t-107 -39.5zM579 62q63 0 63 82t-63 82q-62 0 -62 -82t62 -82z" />
    <glyph glyph-name="ampersand" unicode="&#x26;" horiz-adv-x="705" 
d="M512 524q0 -19 -5.5 -39t-20.5 -41t-41.5 -43t-68.5 -45l135 -129q20 29 32 60.5t17 62.5h122q-6 -51 -27.5 -106t-59.5 -104l77 -80l-84 -92l-85 88q-43 -30 -97 -48t-121 -18q-64 0 -110 14t-76 39t-44 59.5t-14 75.5q0 26 6.5 50t24 47t47 47t76.5 50
q-32 41 -52.5 74.5t-20.5 73.5q0 43 17 75t45.5 53t65 31.5t75.5 10.5q88 0 137.5 -43.5t49.5 -122.5zM295 101q35 0 67.5 9.5t60.5 29.5l-162 167q-82 -49 -82 -108q0 -39 29.5 -68.5t86.5 -29.5zM249 525q0 -27 14.5 -49.5t38.5 -48.5q44 25 66 49.5t22 52.5
q0 21 -6.5 34.5t-16.5 22t-22.5 12t-23.5 3.5q-21 0 -34.5 -7t-22 -18t-12 -24.5t-3.5 -26.5z" />
    <glyph glyph-name="quotesingle" unicode="'" horiz-adv-x="215" 
d="M172 680l-15 -175h-100l-15 175h130z" />
    <glyph glyph-name="parenleft" unicode="(" horiz-adv-x="330" 
d="M46 340q0 127 44 250.5t132 229.5h85q-71 -123 -101 -240.5t-30 -239.5q0 -120 30 -236.5t101 -243.5h-85q-88 106 -132 231t-44 249z" />
    <glyph glyph-name="parenright" unicode=")" horiz-adv-x="330" 
d="M284 340q0 -124 -44 -249t-132 -231h-86q71 127 101.5 243.5t30.5 236.5q0 121 -30.5 239.5t-101.5 240.5h86q88 -106 132 -229.5t44 -250.5z" />
    <glyph glyph-name="asterisk" unicode="*" horiz-adv-x="410" 
d="M168 680h74l-10 -122l122 45l22 -73l-126 -15l83 -96l-58 -45l-71 116l-70 -116l-58 45l84 96l-127 15l22 73l122 -45z" />
    <glyph glyph-name="plus" unicode="+" horiz-adv-x="500" 
d="M304 319h153v-108h-153v-154h-108v154h-154v108h154v153h108v-153z" />
    <glyph glyph-name="comma" unicode="," horiz-adv-x="215" 
d="M70 -130l25 130h-53v145h130v-145l-62 -130h-40z" />
    <glyph glyph-name="hyphen" unicode="-" horiz-adv-x="500" 
d="M457 319v-108h-415v108h415z" />
    <glyph glyph-name="period" unicode="." horiz-adv-x="215" 
d="M172 145v-145h-130v145h130z" />
    <glyph glyph-name="slash" unicode="/" horiz-adv-x="540" 
d="M142 0h-115l370 680h115z" />
    <glyph glyph-name="zero" unicode="0" horiz-adv-x="570" 
d="M285 582q-34 0 -56.5 -18t-35.5 -50t-18 -75t-5 -94t5 -96t18 -78.5t35.5 -53.5t56.5 -20t56.5 20t35.5 53.5t18 78.5t5 96t-5 94t-18 75t-35.5 50t-56.5 18zM285 -10q-77 0 -126 28t-77 76.5t-39 113t-11 137.5q0 72 11 135t39 109.5t77 73.5t126 27q76 0 125 -27
t77.5 -73.5t39 -109.5t10.5 -135q0 -73 -10.5 -137.5t-39 -113t-77.5 -76.5t-125 -28z" />
    <glyph glyph-name="one" unicode="1" horiz-adv-x="390" 
d="M365 107v-107h-350v107h110v452l-108 -5v92l177 39h61v-578h110z" />
    <glyph glyph-name="two" unicode="2" horiz-adv-x="530" 
d="M505 167v-167h-483v124q99 63 161 112.5t97 89.5t47.5 71.5t12.5 58.5q0 39 -13 61.5t-31.5 34.5t-39 15.5t-36.5 3.5q-22 0 -43 -3t-47 -12v-51h-108v135q31 12 58 21.5t54 16t55 9.5t61 3q58 0 100.5 -16t70.5 -44t42 -65.5t14 -80.5q0 -53 -18.5 -100t-53.5 -91.5
t-85 -87.5t-114 -88v-2h191v52h108z" />
    <glyph glyph-name="three" unicode="3" horiz-adv-x="520" 
d="M20 175h107v-61q27 -9 55.5 -13t58.5 -4q37 0 60.5 9.5t37.5 23.5t19.5 31t5.5 31q0 94 -134 94h-90v108h84q37 0 61 9t38 24t19.5 33t5.5 36q0 15 -5.5 30.5t-18.5 27.5t-33 20t-50 8t-54.5 -4.5t-50.5 -12.5v-60h-107v136q60 28 119 38.5t116 10.5q44 0 83 -11.5
t68 -34t45.5 -56t16.5 -78.5q0 -57 -31.5 -96t-86.5 -59v-2q35 -9 61 -25.5t43 -38.5t25.5 -49t8.5 -55q0 -95 -65 -145t-183 -50q-64 0 -117 10t-112 39v136z" />
    <glyph glyph-name="four" unicode="4" horiz-adv-x="570" 
d="M330 295v251h-2q-21 -38 -40.5 -70.5t-40.5 -62.5t-43.5 -59t-48.5 -59h175zM330 187h-308v108q41 45 79.5 89t73.5 91t66 98.5t58 111.5h161v-390h87v-108h-87v-80h57v-107h-245v107h58v80z" />
    <glyph glyph-name="five" unicode="5" horiz-adv-x="540" 
d="M485 512h-108v53h-207l-9 -166l2 -1q24 20 56 33.5t80 13.5q96 0 152 -55.5t56 -164.5q0 -117 -68 -176t-189 -59q-57 0 -108 11t-112 39v127h107v-53q28 -10 53.5 -13.5t51.5 -3.5q66 0 97 34.5t31 85.5q0 20 -5.5 40.5t-19 37.5t-36.5 28t-57 11q-39 0 -64 -12.5
t-51 -35.5l-93 8l13 386h428v-168z" />
    <glyph glyph-name="six" unicode="6" horiz-adv-x="550" 
d="M164 384q26 32 63.5 51.5t81.5 19.5q97 0 152.5 -61t55.5 -174q0 -54 -17.5 -96.5t-48.5 -72.5t-74 -45.5t-94 -15.5q-68 0 -116 26t-78 69t-43.5 99t-13.5 116q0 114 24 189.5t64.5 120t94.5 62.5t114 18q49 0 88.5 -7t79.5 -21v-150h-107v66q-23 4 -50 4
q-37 0 -69.5 -14.5t-56.5 -40.5t-38 -62t-14 -80zM174 288q-3 -35 -1 -69t13 -61t32.5 -44t57.5 -17q43 0 73.5 31t30.5 92q0 20 -4.5 41.5t-16.5 39.5t-32.5 29.5t-52.5 11.5t-56 -15.5t-44 -38.5z" />
    <glyph glyph-name="seven" unicode="7" horiz-adv-x="490" 
d="M467 680v-93q-35 -62 -70 -126.5t-65.5 -136.5t-55 -152t-39.5 -172h-145q11 67 34.5 141t54.5 148t68.5 144.5t76.5 129.5v2h-194v-53h-107v168h442z" />
    <glyph glyph-name="eight" unicode="8" horiz-adv-x="550" 
d="M389 357q66 -32 102 -72.5t36 -100.5q0 -50 -20.5 -86.5t-55 -60.5t-81.5 -35.5t-99 -11.5q-50 0 -95 10.5t-79.5 32t-54.5 55.5t-20 82q0 62 37 102.5t100 66.5v2q-54 26 -85.5 66.5t-31.5 100.5q0 46 19.5 80t52.5 56.5t76 34t89 11.5q43 0 84.5 -11t73 -33t51 -55
t19.5 -76q0 -57 -31 -92.5t-87 -63.5v-2zM156 184q0 -18 6.5 -36t21.5 -31.5t38.5 -22t56.5 -8.5q32 0 54 7t35.5 19t19.5 27.5t6 32.5q0 27 -13.5 45.5t-34 32t-45 23t-46.5 18.5q-19 -8 -37 -18t-31.5 -23t-22 -29.5t-8.5 -36.5zM271 594q-19 0 -36.5 -5.5t-31.5 -16
t-22.5 -26t-8.5 -35.5q0 -22 10 -39t27 -30t38 -22t44 -15q35 13 60.5 37.5t25.5 61.5q0 44 -31.5 67t-74.5 23z" />
    <glyph glyph-name="nine" unicode="9" horiz-adv-x="550" 
d="M385 295q-26 -32 -63.5 -51t-80.5 -19q-97 0 -153 61t-56 174q0 54 17.5 96.5t48.5 72.5t74.5 45.5t94.5 15.5q68 0 115.5 -26t77.5 -69t43.5 -99t13.5 -116q0 -114 -24 -189.5t-64.5 -120t-94 -62.5t-113.5 -18q-49 0 -89 7t-79 21v149h107v-65q13 -2 24 -3.5t26 -1.5
q37 0 69.5 14.5t56.5 40.5t37.5 62t13.5 80zM376 392q3 35 1 69t-13 61t-32.5 43.5t-57.5 16.5q-43 0 -73.5 -30.5t-30.5 -91.5q0 -20 4.5 -41.5t16.5 -39.5t32.5 -29.5t52.5 -11.5q31 0 55.5 15.5t44.5 38.5z" />
    <glyph glyph-name="colon" unicode=":" horiz-adv-x="215" 
d="M172 145v-145h-130v145h130zM172 460v-145h-130v145h130z" />
    <glyph glyph-name="semicolon" unicode=";" horiz-adv-x="215" 
d="M172 460v-145h-130v145h130zM70 -130l25 130h-53v145h130v-145l-62 -130h-40z" />
    <glyph glyph-name="less" unicode="&#x3c;" horiz-adv-x="480" 
d="M437 487v-115l-257 -122l257 -123v-115l-395 199v78z" />
    <glyph glyph-name="equal" unicode="=" horiz-adv-x="500" 
d="M457 419v-108h-415v108h415zM457 219v-108h-415v108h415z" />
    <glyph glyph-name="greater" unicode="&#x3e;" horiz-adv-x="480" 
d="M437 289v-78l-395 -199v115l258 123l-258 122v115z" />
    <glyph glyph-name="question" unicode="?" horiz-adv-x="480" 
d="M32 651q44 17 100 28t110 11q63 0 102.5 -17.5t62.5 -44.5t31.5 -59t8.5 -62q0 -42 -12.5 -71.5t-32 -51.5t-41.5 -38.5t-41.5 -32t-32 -33t-12.5 -40.5v-30h-115v30q0 51 19.5 82.5t45 55t49 44t32.5 50.5q7 20 4 39t-13.5 30t-24 17t-29 7.5t-28.5 1.5q-14 0 -33 -2.5
t-42 -9.5v-70h-108v166zM282 145v-145h-130v145h130z" />
    <glyph glyph-name="at" unicode="@" horiz-adv-x="810" 
d="M254 440q40 11 82.5 16t77.5 5q37 0 66 -5.5t48.5 -20t29.5 -39.5t10 -65v-185q40 0 67 17t43.5 43t23.5 57t7 59q0 58 -22.5 105.5t-61 81t-90 51.5t-110.5 18q-71 0 -130.5 -23.5t-102 -66.5t-66.5 -103t-24 -132q0 -65 22 -120t61.5 -95.5t93.5 -63.5t118 -23l-8 -71
q-81 0 -149 28.5t-116.5 78.5t-76 118t-27.5 148q0 87 30.5 160.5t84.5 126.5t128 82.5t161 29.5q76 0 142.5 -23.5t116 -66.5t78.5 -103t29 -133q0 -53 -15.5 -100.5t-46 -83t-75.5 -56t-105 -20.5h-82v39h-1q-25 -26 -51.5 -36t-63.5 -10q-58 0 -89 34t-31 84
q0 36 14.5 59.5t38 37.5t52.5 19.5t58 5.5h73v26q0 29 -18 40.5t-57 11.5q-11 0 -25 -1.5t-28 -4.5v-42h-84v111zM466 240h-67q-68 0 -68 -54q0 -26 17.5 -38t42.5 -12q23 0 43.5 8t31.5 16v80z" />
    <glyph glyph-name="A" unicode="A" horiz-adv-x="700" 
d="M448 680l182 -573h55v-107h-268v107h63l-29 99h-207l-33 -99h64v-107h-260v107h62l154 465h-67v108h284zM352 557l-80 -251h155l-74 251h-1z" />
    <glyph glyph-name="B" unicode="B" horiz-adv-x="630" 
d="M474 351q56 -17 89.5 -58t33.5 -107q0 -88 -55 -137t-162 -49h-365v107h57v465h-57v108h345q107 0 162 -45.5t55 -128.5q0 -55 -27.5 -95.5t-75.5 -57.5v-2zM210 295v-188h147q44 0 69.5 23t25.5 71q0 46 -26 70t-74 24h-142zM432 487q0 38 -22 61.5t-65 23.5h-135v-170
h135q43 0 65 23t22 62z" />
    <glyph glyph-name="C" unicode="C" horiz-adv-x="610" 
d="M580 187v-160q-70 -20 -127 -28.5t-118 -8.5q-90 0 -148.5 28t-93 76.5t-48 113t-13.5 137.5q0 72 13.5 135t48 109.5t93 73.5t148.5 27q61 0 118 -8.5t127 -29.5v-160h-108v77q-41 8 -69 10.5t-57 2.5q-47 0 -79.5 -18t-52.5 -50t-28.5 -75t-8.5 -94q0 -54 8.5 -99.5
t28.5 -78.5t52.5 -51.5t79.5 -18.5q29 0 57 2.5t69 11.5v76h108z" />
    <glyph glyph-name="D" unicode="D" horiz-adv-x="660" 
d="M326 680q88 0 146 -25.5t92.5 -70t48.5 -106t14 -133.5q0 -73 -14 -136t-48.5 -109.5t-92.5 -73t-146 -26.5h-311v107h57v465h-57v108h311zM326 107q48 0 78.5 18t48 50t23.5 75.5t6 94.5t-6 92.5t-23.5 71.5t-48 46.5t-78.5 16.5h-116v-465h116z" />
    <glyph glyph-name="E" unicode="E" horiz-adv-x="570" 
d="M537 680v-168h-107v60h-220v-167h277v-108h-277v-190h220v60h107v-167h-522v107h57v465h-57v108h522z" />
    <glyph glyph-name="F" unicode="F" horiz-adv-x="555" 
d="M527 680v-168h-107v60h-210v-187h267v-108h-267v-170h57v-107h-252v107h57v465h-57v108h512z" />
    <glyph glyph-name="G" unicode="G" horiz-adv-x="620" 
d="M177 345q0 -54 9.5 -98t29.5 -75.5t52.5 -49t77.5 -17.5q26 0 50 5t46 13v119h-105v108h243v-313q-63 -23 -120 -35t-125 -12q-88 0 -146 28t-93 76.5t-49.5 113t-14.5 137.5q0 72 13.5 135t48 109.5t93 73.5t148.5 27q61 0 118 -8.5t127 -29.5v-160h-108v77
q-41 8 -69 10.5t-57 2.5q-47 0 -79.5 -18t-52.5 -50t-28.5 -75t-8.5 -94z" />
    <glyph glyph-name="H" unicode="H" horiz-adv-x="680" 
d="M470 107v190h-260v-190h57v-107h-252v107h57v465h-57v108h252v-108h-57v-167h260v167h-58v108h253v-108h-58v-465h58v-107h-253v107h58z" />
    <glyph glyph-name="I" unicode="I" horiz-adv-x="282" 
d="M72 107v465h-57v108h252v-108h-57v-465h57v-107h-252v107h57z" />
    <glyph glyph-name="J" unicode="J" horiz-adv-x="372" 
d="M357 680v-108h-57v-391q0 -52 -12.5 -88t-36 -59t-57 -33.5t-74.5 -10.5q-64 0 -106 9l11 107q16 -2 29.5 -3.5t27.5 -1.5q34 0 57 16.5t23 63.5v391h-57v108h252z" />
    <glyph glyph-name="K" unicode="K" horiz-adv-x="680" 
d="M267 680v-108h-57v-227l219 227h-52v108h278v-108h-62l-182 -182l199 -283h55v-107h-285v107h56l-128 188l-98 -97v-91h57v-107h-252v107h57v465h-57v108h252z" />
    <glyph glyph-name="L" unicode="L" horiz-adv-x="550" 
d="M530 167v-167h-515v107h57v465h-57v108h252v-108h-57v-465h212v60h108z" />
    <glyph glyph-name="M" unicode="M" horiz-adv-x="840" 
d="M825 680v-108h-58v-465h58v-107h-253v107h58v325h-2l-164 -432h-88l-175 432h-2v-325h61v-107h-245v107h57v465h-57v108h225l187 -451h2l175 451h221z" />
    <glyph glyph-name="N" unicode="N" horiz-adv-x="690" 
d="M675 680v-108h-58v-572h-141l-275 431h-2v-324h61v-107h-245v107h57v465h-57v108h191l283 -450h2v342h-61v108h245z" />
    <glyph glyph-name="O" unicode="O" horiz-adv-x="670" 
d="M335 582q-50 0 -81 -18t-48 -50t-23 -75t-6 -94t6 -96t23 -78.5t48 -53.5t81 -20t81 20t48 53.5t22.5 78.5t5.5 96t-5.5 94t-22.5 75t-48 50t-81 18zM335 -10q-90 0 -148.5 28t-93 76.5t-48 113t-13.5 137.5q0 72 13.5 135t48 109.5t93 73.5t148.5 27t148 -27t92.5 -73.5
t48 -109.5t13.5 -135q0 -73 -13.5 -137.5t-48 -113t-92.5 -76.5t-148 -28z" />
    <glyph glyph-name="P" unicode="P" horiz-adv-x="620" 
d="M362 680q108 0 166.5 -56.5t58.5 -156.5q0 -102 -58.5 -157t-166.5 -55h-152v-148h57v-107h-252v107h57v465h-57v108h347zM210 362h137q44 0 71.5 25.5t27.5 79.5q0 52 -27.5 78.5t-71.5 26.5h-137v-210z" />
    <glyph glyph-name="Q" unicode="Q" horiz-adv-x="670" 
d="M32 345q0 72 13.5 135t48 109.5t93 73.5t148.5 27t148 -27t92.5 -73.5t48 -109.5t13.5 -135q0 -135 -53 -216t-158 -90q4 -11 26 -16.5t52 -7.5t61.5 -1t54.5 4v-123q-107 -13 -191 10.5t-122 84.5q-79 4 -132 34t-84.5 78t-45 110.5t-13.5 132.5zM335 582q-50 0 -81 -18
t-48 -50t-23 -75t-6 -94t6 -96t23 -78.5t48 -53.5t81 -20t81 20t48 53.5t22.5 78.5t5.5 96t-5.5 94t-22.5 75t-48 50t-81 18z" />
    <glyph glyph-name="R" unicode="R" horiz-adv-x="650" 
d="M362 680q108 0 166.5 -55.5t58.5 -155.5q0 -70 -33.5 -121t-94.5 -68l131 -173h45v-107h-262v107h43l-108 150h-98v-150h57v-107h-252v107h57v465h-57v108h347zM210 365h135q43 0 72 25t29 79q0 51 -27.5 77t-71.5 26h-137v-207z" />
    <glyph glyph-name="S" unicode="S" horiz-adv-x="580" 
d="M140 195v-71q48 -11 84.5 -15t65.5 -4q58 0 85 23t27 57q0 24 -13.5 40t-35.5 27t-50 19t-58 16q-44 12 -82.5 31t-67 45t-44.5 60t-16 77q0 51 19.5 87.5t53.5 59t78.5 33t95.5 10.5q59 0 115 -8.5t125 -29.5v-167h-107v75q-45 9 -74.5 12t-58.5 3q-53 0 -77.5 -20
t-24.5 -51q0 -21 12.5 -37t34 -28t49.5 -21t59 -16q44 -10 83 -26t67.5 -40.5t45 -57.5t16.5 -78q0 -54 -20 -94t-54.5 -65.5t-81.5 -38t-101 -12.5q-59 0 -123.5 8.5t-134.5 28.5v168h108z" />
    <glyph glyph-name="T" unicode="T" horiz-adv-x="580" 
d="M555 680v-168h-108v60h-88v-465h57v-107h-252v107h57v465h-89v-60h-107v168h530z" />
    <glyph glyph-name="U" unicode="U" horiz-adv-x="680" 
d="M665 680v-108h-58v-332q0 -67 -19 -114.5t-54 -77.5t-84.5 -44t-109.5 -14t-109.5 14t-85 44t-54.5 77.5t-19 114.5v332h-57v108h252v-108h-57v-332q0 -27 5 -53t19.5 -46t40 -32t66.5 -12q39 0 64.5 12t39.5 32t19.5 46t5.5 53v332h-58v108h253z" />
    <glyph glyph-name="V" unicode="V" horiz-adv-x="690" 
d="M675 680v-108h-53l-188 -577h-176l-194 577h-49v108h272v-108h-72l138 -435h1l128 435h-72v108h265z" />
    <glyph glyph-name="W" unicode="W" horiz-adv-x="980" 
d="M287 680v-108h-69l93 -411h1l116 519h146l123 -519h1l87 411h-70v108h250v-108h-46l-140 -577h-184l-104 434h-2l-97 -434h-183l-147 577h-47v108h272z" />
    <glyph glyph-name="X" unicode="X" horiz-adv-x="700" 
d="M675 680v-108h-51l-170 -231l174 -234h57v-107h-299v107h60l-117 169l-115 -169h58v-107h-257v107h55l178 242l-166 223h-57v108h291v-108h-52l110 -155l107 155h-56v108h250z" />
    <glyph glyph-name="Y" unicode="Y" horiz-adv-x="660" 
d="M456 107v-107h-252v107h57v103l-187 362h-59v108h280v-108h-74l119 -235h2l119 235h-74v108h258v-108h-53l-193 -362v-103h57z" />
    <glyph glyph-name="Z" unicode="Z" horiz-adv-x="560" 
d="M520 680v-100l-321 -471v-2h226v60h107v-167h-502v100l325 470v2h-200v-60h-108v168h473z" />
    <glyph glyph-name="bracketleft" unicode="[" horiz-adv-x="300" 
d="M277 -63v-77h-235v960h235v-78h-97v-805h97z" />
    <glyph glyph-name="backslash" unicode="\" horiz-adv-x="540" 
d="M27 680h115l370 -680h-115z" />
    <glyph glyph-name="bracketright" unicode="]" horiz-adv-x="300" 
d="M120 -63v805h-98v78h235v-960h-235v77h98z" />
    <glyph glyph-name="asciicircum" unicode="^" horiz-adv-x="380" 
d="M112 510h-70l108 190h79l108 -190h-70l-77 119z" />
    <glyph glyph-name="underscore" unicode="_" horiz-adv-x="500" 
d="M457 -60v-78h-415v78h415z" />
    <glyph glyph-name="grave" unicode="`" horiz-adv-x="290" 
d="M66 700h109l55 -140h-70z" />
    <glyph glyph-name="a" unicode="a" horiz-adv-x="535" 
d="M59 347v140q54 11 107.5 17t98.5 6q48 0 84.5 -7.5t61.5 -26t38 -51t13 -83.5v-235h58v-107h-188v50h-2q-65 -65 -162 -59q-64 4 -101.5 44.5t-37.5 108.5q0 43 16.5 73t45 48.5t66.5 26.5t80 8h95v35q0 38 -24 52.5t-73 14.5q-14 0 -30.5 -1t-38.5 -4v-50h-107zM332 222
h-74q-48 0 -74.5 -13.5t-26.5 -53.5q0 -33 23 -49t55 -16q31 0 57 10t40 21v101z" />
    <glyph glyph-name="b" unicode="b" horiz-adv-x="560" 
d="M15 700h187v-250h2q24 26 62 43t79 17q52 0 87 -20.5t56 -56t30 -83t9 -100.5q0 -54 -10 -101t-32.5 -82.5t-59 -56t-88.5 -20.5q-38 0 -76 15t-64 41h-2l-23 -46h-157v107h57v485h-57v108zM390 250q0 32 -4.5 59.5t-15.5 48t-30 32.5t-48 12q-32 0 -55 -11t-35 -20v-242
q12 -10 35 -21t55 -11q29 0 48 12t30 32.5t15.5 48.5t4.5 60z" />
    <glyph glyph-name="c" unicode="c" horiz-adv-x="485" 
d="M357 347v50q-21 4 -37 4.5t-30 0.5q-59 0 -89.5 -38.5t-30.5 -113.5t30.5 -114t89.5 -39q14 0 27.5 0.5t31 2t40 5.5t53.5 12l23 -103q-45 -11 -86 -17.5t-89 -6.5q-73 0 -122.5 18.5t-79.5 52.5t-43 82t-13 107t13 107t43 82t79.5 52.5t122.5 18.5q48 0 89 -6.5
t86 -17.5v-139h-108z" />
    <glyph glyph-name="d" unicode="d" horiz-adv-x="560" 
d="M300 700h187v-593h58v-107h-188v50h-2q-23 -26 -61 -43t-79 -17q-53 0 -88 20.5t-56 56t-30 82.5t-9 101q0 53 10 100.5t32.5 83t58.5 56t89 20.5q38 0 74 -15t59 -41h2v138h-57v108zM170 250q0 -32 4.5 -60t15.5 -48.5t29.5 -32.5t47.5 -12q32 0 55.5 11t34.5 21v242
q-11 9 -34.5 20t-55.5 11q-29 0 -47.5 -12t-29.5 -32.5t-15.5 -48t-4.5 -59.5z" />
    <glyph glyph-name="e" unicode="e" horiz-adv-x="530" 
d="M170 222q3 -57 37.5 -91t103.5 -34q32 0 69.5 3t86.5 17l15 -103q-50 -14 -95.5 -19t-94.5 -5q-72 0 -121.5 18.5t-80.5 52.5t-44.5 82t-13.5 107t13.5 107t44 82t80 52.5t120.5 18.5q81 0 126 -25.5t65.5 -66t21.5 -92.5t-7 -104h-326zM282 410q-54 0 -80.5 -29
t-31.5 -77h198q3 21 1.5 40t-10.5 33.5t-27.5 23.5t-49.5 9z" />
    <glyph glyph-name="f" unicode="f" horiz-adv-x="342" 
d="M25 107h57v300h-67v85l67 8v51q0 37 7 64.5t25 46.5t48.5 28.5t77.5 9.5q20 0 43 -2.5t44 -6.5l-11 -100q-14 2 -25.5 3.5t-20.5 1.5q-33 0 -45.5 -11t-12.5 -43v-42h105v-93h-105v-300h63v-107h-250v107z" />
    <glyph glyph-name="g" unicode="g" horiz-adv-x="555" 
d="M131 -58q0 -20 10 -32t27 -19t39.5 -9.5t48.5 -2.5q27 0 52 3.5t44.5 12t31.5 21.5t12 32q0 18 -14 31t-47 15l-170 10q-14 -14 -24 -26.5t-10 -35.5zM265 261q37 0 60.5 18.5t23.5 60.5t-24 61.5t-60 19.5q-40 0 -62.5 -19.5t-22.5 -61.5t23.5 -60.5t61.5 -18.5zM98 24
q-24 15 -33.5 37.5t-4.5 47t23.5 48t51.5 41.5v2q-38 19 -59.5 55.5t-21.5 84.5q0 86 57.5 128t153.5 42q20 0 39 -2.5t33 -7.5h185v-78h-80v-1q17 -15 23 -36t6 -45q0 -44 -15.5 -75.5t-43 -52t-65 -30.5t-82.5 -10q-14 0 -30.5 2.5t-33.5 7.5q-19 -26 -18 -46.5t30 -22.5
l164 -8q77 -3 117 -38t40 -95q0 -93 -72.5 -137.5t-226.5 -44.5q-112 0 -163.5 31.5t-51.5 98.5q0 32 18 57t60 45v2z" />
    <glyph glyph-name="h" unicode="h" horiz-adv-x="590" 
d="M337 107h50v205q0 44 -18 67t-62 23q-31 0 -58.5 -13t-46.5 -25v-257h50v-107h-237v107h57v485h-57v108h187v-265h2q32 35 73 55t90 20q75 0 112.5 -45t37.5 -123v-235h58v-107h-238v107z" />
    <glyph glyph-name="i" unicode="i" horiz-adv-x="275" 
d="M15 500h187v-393h58v-107h-245v107h57v285h-57v108zM202 700v-138h-130v138h130z" />
    <glyph glyph-name="j" unicode="j" horiz-adv-x="255" 
d="M15 500h197v-561q0 -37 -7 -65t-24.5 -46.5t-48 -28t-77.5 -9.5q-20 0 -43 2t-45 7l12 100q14 -3 25.5 -4t20.5 -1q33 0 45 11t12 43v444h-67v108zM212 700v-138h-130v138h130z" />
    <glyph glyph-name="k" unicode="k" horiz-adv-x="600" 
d="M15 700h187v-432l166 124h-43v108h250v-108h-61l-111 -83l135 -202h47v-107h-250v107h40l-82 132l-91 -70v-62h58v-107h-245v107h57v485h-57v108z" />
    <glyph glyph-name="l" unicode="l" horiz-adv-x="275" 
d="M15 700h187v-593h58v-107h-245v107h57v485h-57v108z" />
    <glyph glyph-name="m" unicode="m" horiz-adv-x="890" 
d="M330 107h50v211q-2 40 -21.5 62t-58.5 22q-29 0 -54 -13t-44 -25v-257h50v-107h-237v107h57v285h-57v108h187v-65h2q24 26 55 46t69 25q25 3 45 2q46 -2 76 -23.5t45 -57.5q38 43 81.5 63t91.5 20q75 0 112.5 -45t37.5 -123v-235h58v-107h-238v107h50v205q0 44 -19.5 67
t-60.5 23q-29 0 -54 -13t-44 -26q0 -11 0.5 -22t0.5 -23v-211h50v-107h-230v107z" />
    <glyph glyph-name="n" unicode="n" horiz-adv-x="590" 
d="M337 107h50v205q0 44 -18 67t-62 23q-31 0 -58.5 -13t-46.5 -25v-257h50v-107h-237v107h57v285h-57v108h187v-65h2q32 35 73 55t90 20q75 0 112.5 -45t37.5 -123v-235h58v-107h-238v107z" />
    <glyph glyph-name="o" unicode="o" horiz-adv-x="550" 
d="M275 402q-31 0 -51 -11t-32 -30.5t-17 -48t-5 -62.5q0 -35 5 -63t17 -48t32 -31t51 -11q61 0 83 41.5t22 111.5q0 34 -5 62.5t-17 48t-32 30.5t-51 11zM275 -10q-66 0 -112 18.5t-75.5 52.5t-42.5 82t-13 107t13 107t42.5 82t75.5 52.5t112 18.5t112 -18.5t75 -52.5
t42 -82t13 -107t-13 -107t-42 -82t-75 -52.5t-112 -18.5z" />
    <glyph glyph-name="p" unicode="p" horiz-adv-x="560" 
d="M15 500h187v-50h2q24 26 62 43t79 17q52 0 87 -20.5t56 -56t30 -83t9 -100.5q0 -54 -10 -101t-32.5 -82.5t-59 -56t-88.5 -20.5q-38 0 -73.5 15t-59.5 41h-2v-139h58v-107h-245v107h57v485h-57v108zM390 250q0 32 -4.5 59.5t-15.5 48t-30 32.5t-48 12q-32 0 -55 -11
t-35 -20v-242q12 -10 35 -21t55 -11q29 0 48 12t30 32.5t15.5 48.5t4.5 60z" />
    <glyph glyph-name="q" unicode="q" horiz-adv-x="530" 
d="M300 -93h57v143h-2q-23 -26 -61 -43t-79 -17q-53 0 -88 20.5t-56 56t-30 82.5t-9 101q0 53 10 100.5t32.5 83t58.5 56t89 20.5q38 0 76 -15t65 -41h2l23 50h99v-597h58v-107h-245v107zM170 250q0 -32 4.5 -60t15.5 -48.5t29.5 -32.5t47.5 -12q32 0 55.5 11t34.5 21v242
q-11 9 -34.5 20t-55.5 11q-29 0 -47.5 -12t-29.5 -32.5t-15.5 -48t-4.5 -59.5z" />
    <glyph glyph-name="r" unicode="r" horiz-adv-x="400" 
d="M15 500h187v-80h2q12 17 29.5 33t39 29t48 20.5t56.5 7.5v-123q-51 0 -98 -11.5t-77 -26.5v-242h63v-107h-250v107h57v285h-57v108z" />
    <glyph glyph-name="s" unicode="s" horiz-adv-x="480" 
d="M330 347v51q-29 5 -54 6.5t-41 1.5q-23 0 -37.5 -4t-22.5 -10.5t-11.5 -14t-3.5 -13.5q0 -18 16 -29.5t65 -21.5q36 -8 73 -18t68 -27.5t50.5 -45.5t19.5 -71q0 -83 -53 -122t-144 -39q-61 0 -122 6.5t-106 17.5v138h108v-50q32 -6 60 -7t45 -1q24 0 40 5t25 12.5
t13 15.5t4 15q0 19 -20.5 29.5t-65.5 19.5q-42 7 -79.5 18.5t-65.5 31t-44.5 48.5t-16.5 71q0 80 53 115t144 35q62 0 113.5 -6.5t96.5 -17.5v-139h-107z" />
    <glyph glyph-name="t" unicode="t" horiz-adv-x="375" 
d="M82 407h-67v85l67 8l16 140h114v-140h125v-93h-125v-241q0 -35 16.5 -53.5t56.5 -18.5q9 0 20.5 1t25.5 4l11 -100q-21 -5 -51.5 -7t-50.5 -2q-86 0 -122 36.5t-36 116.5v264z" />
    <glyph glyph-name="u" unicode="u" horiz-adv-x="590" 
d="M15 500h187v-313q0 -43 20 -66.5t60 -23.5q32 0 59 13.5t46 25.5v256h-65v108h195v-393h58v-107h-188v65h-2q-32 -35 -73 -55t-90 -20q-75 0 -112.5 45t-37.5 122v235h-57v108z" />
    <glyph glyph-name="v" unicode="v" horiz-adv-x="578" 
d="M343 500h220v-108h-36l-159 -397h-156l-157 397h-40v108h242v-108h-57l102 -267h2l94 267h-55v108z" />
    <glyph glyph-name="w" unicode="w" horiz-adv-x="808" 
d="M573 500h220v-108h-39l-120 -397h-139l-91 284h-2l-80 -284h-139l-130 397h-38v108h242v-108h-64l72 -252h2l94 360h107l100 -367h2l58 259h-55v108z" />
    <glyph glyph-name="x" unicode="x" horiz-adv-x="608" 
d="M378 500h205v-108h-41l-143 -145l140 -140h54v-107h-274v107h42l-92 96l-87 -96h44v-107h-211v107h42l146 155l-131 130h-47v108h267v-108h-42l85 -89l82 89h-39v108z" />
    <glyph glyph-name="y" unicode="y" horiz-adv-x="578" 
d="M343 500h220v-108h-36l-168 -406q-17 -40 -37.5 -75.5t-47 -62.5t-60 -42.5t-74.5 -15.5q-20 0 -44.5 2t-43.5 7l11 103q12 -2 26 -3.5t22 -1.5q38 0 67 25t43 67l-165 403h-41v108h242v-108h-57l104 -277h2l92 277h-55v108z" />
    <glyph glyph-name="z" unicode="z" horiz-adv-x="470" 
d="M439 500v-100l-259 -298v-2h165v52h107v-152h-433v100l262 298v2h-146v-53h-108v153h412z" />
    <glyph glyph-name="braceleft" unicode="{" horiz-adv-x="340" 
d="M240 15q0 -37 6 -57.5t16.5 -30t24.5 -11t30 -1.5v-55q-44 0 -83 3.5t-68 18t-46.5 44t-17.5 80.5q0 46 5 95t5 94q0 24 -1 43t-7.5 33t-21 23t-40.5 13v65q26 4 40.5 13t21 23t7.5 33.5t1 43.5q0 45 -5 94t-5 95q0 51 17.5 80.5t46.5 44t68 18t83 3.5v-55
q-16 0 -30 -1.5t-24.5 -11t-16.5 -30t-6 -57.5q0 -23 2 -49.5t4.5 -53.5t4.5 -53.5t2 -49.5q0 -30 -7.5 -50t-21 -33t-32 -21t-39.5 -14v-2q21 -6 39.5 -14t32 -21t21 -33t7.5 -50q0 -23 -2 -49.5t-4.5 -53.5t-4.5 -53.5t-2 -49.5z" />
    <glyph glyph-name="bar" unicode="|" horiz-adv-x="170" 
d="M42 -100v880h85v-880h-85z" />
    <glyph glyph-name="braceright" unicode="}" horiz-adv-x="340" 
d="M100 665q0 37 -6 57.5t-16.5 30t-25 11t-30.5 1.5v55q44 0 83 -3.5t68.5 -18t46.5 -44t17 -80.5q0 -46 -5 -95t-5 -94q0 -24 1 -43.5t7.5 -33.5t21 -23t40.5 -13v-65q-26 -4 -40.5 -13t-21 -23t-7.5 -33t-1 -43q0 -45 5 -94t5 -95q0 -51 -17 -80.5t-46.5 -44t-68.5 -18
t-83 -3.5v55q16 0 30.5 1.5t25 11t16.5 30t6 57.5q0 23 -2 49.5t-4.5 53.5t-4.5 53.5t-2 49.5q0 30 7.5 50t21 33t31.5 21t40 14v2q-22 6 -40 14t-31.5 21t-21 33t-7.5 50q0 23 2 49.5t4.5 53.5t4.5 53.5t2 49.5z" />
    <glyph glyph-name="asciitilde" unicode="~" horiz-adv-x="460" 
d="M148 302q-15 0 -30 -7t-41 -34l-41 31q26 54 54 76.5t54 22.5q19 0 45 -7t52.5 -15t49.5 -15t36 -7q7 0 14 0.5t15 3.5t16.5 10t19.5 20l33 -39q-18 -38 -38.5 -56.5t-43.5 -22.5q-10 -2 -21 0q-15 1 -39 7.5t-49.5 13.5t-49 12.5t-36.5 5.5z" />
    <glyph glyph-name="exclamdown" unicode="&#xa1;" horiz-adv-x="215" 
d="M42 355v145h130v-145h-130zM42 -200l8 480h115l7 -480h-130z" />
    <glyph glyph-name="cent" unicode="&#xa2;" horiz-adv-x="510" 
d="M284 -100v91q-56 2 -101 21.5t-76.5 53t-48 80.5t-16.5 104t16.5 103.5t48 80.5t76.5 53.5t101 21.5v91h55v-92q35 -3 66.5 -11.5t69.5 -25.5l-16 -100q-36 14 -63.5 21t-56.5 9v-303q29 2 56.5 9.5t63.5 21.5l16 -100q-38 -17 -69.5 -26t-66.5 -11v-92h-55zM180 250
q0 -65 27.5 -103.5t76.5 -46.5v299q-49 -7 -76.5 -46.5t-27.5 -102.5z" />
    <glyph glyph-name="sterling" unicode="&#xa3;" horiz-adv-x="580" 
d="M202 310v-195h243v52h107v-167h-530v115h50v195h-50v62h50v128q0 51 18.5 87.5t51 59t76 33t94.5 10.5q62 0 118 -10t122 -33v-162h-107v71q-40 11 -72 15t-61 4q-58 0 -84 -23t-26 -62v-118h215v-62h-215z" />
    <glyph glyph-name="currency" unicode="&#xa4;" horiz-adv-x="513" 
d="M100 249q0 34 12.5 63t35.5 51l-78 90l8 8l79 -90q20 17 45.5 26.5t54.5 9.5q28 0 53.5 -9.5t45.5 -26.5l78 90l9 -8l-78 -89q23 -22 36.5 -51.5t13.5 -63.5t-13 -63.5t-36 -50.5l76 -86l-9 -9l-77 87q-20 -17 -45.5 -26t-53.5 -9q-29 0 -54.5 9t-45.5 26l-76 -87l-9 9
l76 86q-23 22 -35.5 51t-12.5 63zM112 249q0 -30 11.5 -56t31.5 -46t46 -31.5t56 -11.5t56.5 11.5t46.5 31.5t31.5 46t11.5 56t-11.5 56.5t-31.5 46.5t-46.5 31.5t-56.5 11.5t-56 -11.5t-46 -31.5t-31.5 -46.5t-11.5 -56.5z" />
    <glyph glyph-name="yen" unicode="&#xa5;" horiz-adv-x="660" 
d="M456 107v-107h-252v107h57v98h-159v62h128l-163 305h-52v108h280v-108h-67l112 -220h2l111 220h-66v108h258v-108h-53l-163 -305h128v-62h-158v-98h57z" />
    <glyph glyph-name="brokenbar" unicode="&#xa6;" horiz-adv-x="170" 
d="M42 380v400h85v-400h-85zM42 -100v400h85v-400h-85z" />
    <glyph glyph-name="section" unicode="&#xa7;" horiz-adv-x="600" 
d="M557 350q0 -56 -21.5 -95t-59.5 -65q34 -27 54 -63.5t20 -86.5q0 -51 -20 -87.5t-53.5 -59t-78.5 -33t-96 -10.5q-72 0 -134 18t-106 47l54 107q53 -27 99.5 -38.5t86.5 -11.5q58 0 80.5 19.5t22.5 48.5q0 22 -15.5 38t-39 27.5t-50.5 19t-50 12.5q-44 10 -81.5 26.5
t-65 41t-43 57.5t-15.5 78q0 55 21.5 94t59.5 65q-35 27 -54.5 64t-19.5 87q0 51 20 87.5t53.5 59t78.5 33t96 10.5q72 0 134 -18.5t106 -46.5l-54 -107q-53 27 -99.5 38t-86.5 11q-58 0 -80.5 -19t-22.5 -48q0 -23 15.5 -39t39 -27t50.5 -18.5t50 -13.5q44 -11 81.5 -27
t65 -40t43 -57t15.5 -78zM270 433q-9 -1 -18 -1.5t-18 0.5q-23 -14 -33.5 -37t-10.5 -48q0 -19 10 -32.5t25.5 -23t34.5 -16t36 -10.5q15 -4 31 -8.5t31 -9.5q26 15 40 40.5t14 54.5q0 22 -14.5 37.5t-35.5 25.5t-46 16.5t-46 11.5z" />
    <glyph glyph-name="dieresis" unicode="&#xa8;" horiz-adv-x="480" 
d="M177 700v-130h-115v130h115zM417 700v-130h-115v130h115z" />
    <glyph glyph-name="copyright" unicode="&#xa9;" horiz-adv-x="765" 
d="M30 340q0 73 27.5 137t75.5 111t112 74.5t137 27.5t137.5 -27.5t112.5 -74.5t75.5 -111t27.5 -137t-27.5 -137t-75.5 -111t-112.5 -74.5t-137.5 -27.5t-137 27.5t-112 74.5t-75.5 111t-27.5 137zM89 340q0 -61 23 -114.5t62.5 -93.5t93 -63.5t114.5 -23.5t114.5 23.5
t93.5 63.5t63 93.5t23 114.5t-23 114t-63 92.5t-93.5 62t-114.5 22.5t-114.5 -22.5t-93 -62t-62.5 -92.5t-23 -114zM392 447q-46 0 -71 -24t-25 -79q0 -59 25 -86.5t71 -27.5q18 0 44 6.5t53 23.5l28 -58q-20 -14 -51.5 -27t-78.5 -13q-82 0 -128 47t-46 135q0 85 46 128.5
t128 43.5q47 0 78.5 -13t51.5 -27l-28 -59q-27 17 -53 23.5t-44 6.5z" />
    <glyph glyph-name="ordfeminine" unicode="&#xaa;" horiz-adv-x="278" 
d="M30 603v70q27 5 54.5 8.5t50.5 3.5q48 0 74 -16.5t26 -67.5v-115h28v-56h-97v25h-1q-13 -14 -26 -20.5t-30 -8.5q-5 0 -11 -0.5t-12 -0.5q-29 2 -46 18t-22 40q-3 12 -3 24q1 22 11 36.5t25.5 22.5t33.5 11.5t35 3.5h46v16q0 19 -11.5 25t-35.5 6h-14t-18 -2v-23h-57z
M166 540h-35q-22 0 -35 -6t-13 -26q0 -16 11 -23.5t26 -7.5q14 0 26.5 5t19.5 10v48z" />
    <glyph glyph-name="guillemotleft" unicode="&#xab;" horiz-adv-x="730" 
d="M337 480v-138l-157 -92l157 -93v-137l-295 191v78zM687 480v-138l-157 -92l157 -93v-137l-295 191v78z" />
    <glyph glyph-name="logicalnot" unicode="&#xac;" horiz-adv-x="590" 
d="M527 319v-212h-107v104h-358v108h465z" />
    <glyph glyph-name="uni00AD" unicode="&#xad;" horiz-adv-x="540" 
d="M477 319v-108h-415v108h415z" />
    <glyph glyph-name="registered" unicode="&#xae;" horiz-adv-x="765" 
d="M447 168l-71 104h-49v-104h-79v344h144q64 0 101 -31t37 -88q0 -42 -19.5 -69.5t-52.5 -37.5l86 -118h-97zM327 341h63q27 0 43.5 11.5t16.5 40.5q0 27 -16 38.5t-42 11.5h-65v-102zM30 340q0 73 27.5 137t75.5 111t112 74.5t137 27.5t137.5 -27.5t112.5 -74.5t75.5 -111
t27.5 -137t-27.5 -137t-75.5 -111t-112.5 -74.5t-137.5 -27.5t-137 27.5t-112 74.5t-75.5 111t-27.5 137zM89 340q0 -61 23 -114.5t62.5 -93.5t93 -63.5t114.5 -23.5t114.5 23.5t93.5 63.5t63 93.5t23 114.5t-23 114t-63 92.5t-93.5 62t-114.5 22.5t-114.5 -22.5t-93 -62
t-62.5 -92.5t-23 -114z" />
    <glyph glyph-name="macron" unicode="&#xaf;" horiz-adv-x="380" 
d="M322 665v-93h-265v93h265z" />
    <glyph glyph-name="degree" unicode="&#xb0;" horiz-adv-x="260" 
d="M35 580q0 19 7.5 36.5t20 30.5t30 20.5t37.5 7.5q19 0 36.5 -7.5t30.5 -20.5t20.5 -30.5t7.5 -36.5q0 -20 -7.5 -37.5t-20.5 -30t-30.5 -20t-36.5 -7.5q-40 0 -67.5 27.5t-27.5 67.5zM83 580q0 -20 13.5 -33.5t33.5 -13.5t33.5 13.5t13.5 33.5t-13.5 33.5t-33.5 13.5
t-33.5 -13.5t-13.5 -33.5z" />
    <glyph glyph-name="plusminus" unicode="&#xb1;" horiz-adv-x="500" 
d="M196 127v95h-154v108h154v154h108v-154h153v-108h-153v-95h153v-107h-415v107h154z" />
    <glyph glyph-name="uni00B2" unicode="&#xb2;" horiz-adv-x="273" 
d="M258 625v-85h-243v65q49 31 79.5 55t48 43.5t24 34.5t6.5 29q0 19 -6.5 30t-15.5 17t-19 7.5t-18 1.5q-19 0 -43 -7v-25h-56v69q32 13 57 19t58 6q58 0 86 -30t28 -73q0 -53 -35 -95t-98 -86v-1h91v25h56z" />
    <glyph glyph-name="uni00B3" unicode="&#xb3;" horiz-adv-x="271" 
d="M15 628h56v-29q14 -5 27.5 -6.5t27.5 -1.5q35 0 47 15.5t12 30.5q0 45 -64 45h-46v56h43q36 0 48 16t12 33q0 15 -12 28t-40 13t-51 -8v-29h-56v69q31 14 61 19.5t59 5.5q44 0 75.5 -23t31.5 -67q0 -29 -15.5 -47.5t-43.5 -29.5v-1q35 -9 52 -32.5t17 -52.5
q0 -47 -33 -72t-93 -25q-32 0 -58 5t-57 19v69z" />
    <glyph glyph-name="acute" unicode="&#xb4;" horiz-adv-x="290" 
d="M129 560h-70l55 140h109z" />
    <glyph glyph-name="uni00B5" unicode="&#xb5;" horiz-adv-x="590" 
d="M15 500h187v-313q0 -43 20 -66.5t60 -23.5q32 0 59 13.5t46 25.5v256h-65v108h195v-393h58v-107h-188v65h-2q-20 -21 -44 -36.5t-51 -22.5q-52 -13 -88 6v-37q0 -41 -6 -74t-22 -57t-44.5 -38t-73.5 -15q-16 -1 -34 0q-31 1 -65 8l12 100q14 -3 25.5 -4t20.5 -1
q34 0 45.5 18.5t11.5 53.5v426h-57v108z" />
    <glyph glyph-name="paragraph" unicode="&#xb6;" horiz-adv-x="565" 
d="M385 632h-62v-337h-92q-45 0 -82 14t-63.5 39.5t-41 61t-14.5 78.5q0 45 14.5 80.5t41 60.5t63.5 38t82 13h291v-48h-82v-585h82v-47h-119v2h-18v630z" />
    <glyph glyph-name="periodcentered" unicode="&#xb7;" horiz-adv-x="215" 
d="M172 322v-145h-130v145h130z" />
    <glyph glyph-name="cedilla" unicode="&#xb8;" horiz-adv-x="294" 
d="M107 0h48v-53q12 -2 26.5 -5.5t27 -12t21 -21.5t8.5 -34q0 -36 -27 -57.5t-75 -21.5q-18 0 -39.5 3t-41.5 9l7 41q12 -2 23.5 -4t24.5 -2q26 0 37 12t11 27t-12.5 26.5t-38.5 14.5v78z" />
    <glyph glyph-name="uni00B9" unicode="&#xb9;" horiz-adv-x="207" 
d="M192 596v-56h-176v56h54v220l-54 -2v48l90 21h32v-287h54z" />
    <glyph glyph-name="ordmasculine" unicode="&#xba;" horiz-adv-x="274" 
d="M138 628q-30 0 -40.5 -19.5t-10.5 -53.5t10.5 -54t40.5 -20q29 0 39.5 20t10.5 54t-10.5 53.5t-39.5 19.5zM138 425q-68 0 -95.5 35.5t-27.5 94.5t27.5 94.5t95.5 35.5q66 0 93.5 -35t27.5 -95t-27.5 -95t-93.5 -35z" />
    <glyph glyph-name="guillemotright" unicode="&#xbb;" horiz-adv-x="730" 
d="M337 289v-78l-295 -191v137l158 93l-158 92v138zM687 289v-78l-295 -191v137l158 93l-158 92v138z" />
    <glyph glyph-name="onequarter" unicode="&#xbc;" horiz-adv-x="800" 
d="M254 0h-40l370 680h40zM242 396v-56h-176v56h54v220l-54 -2v48l90 21h32v-287h54zM623 149v121h-1q-20 -37 -38.5 -64t-43.5 -57h83zM623 93h-153v56q42 45 76.5 89.5t61.5 104.5h84v-194h43v-56h-43v-37h28v-56h-125v56h28v37z" />
    <glyph glyph-name="onehalf" unicode="&#xbd;" horiz-adv-x="800" 
d="M217 0h-40l370 680h40zM242 396v-56h-176v56h54v220l-54 -2v48l90 21h32v-287h54zM735 85v-85h-243v65q49 31 79.5 55t47.5 43.5t23.5 34.5t6.5 29q0 19 -6 30t-15 17t-19.5 7.5t-18.5 1.5q-20 0 -42 -7v-25h-56v69q31 13 56.5 19t57.5 6q59 0 87 -30t28 -73
q0 -53 -35.5 -95t-97.5 -86v-1h91v25h56z" />
    <glyph glyph-name="threequarters" unicode="&#xbe;" horiz-adv-x="800" 
d="M264 0h-40l370 680h40zM65 428h56v-29q14 -5 27.5 -6.5t27.5 -1.5q35 0 47 15.5t12 30.5q0 45 -64 45h-46v56h43q36 0 48 16t12 33q0 15 -12 28t-40 13t-51 -8v-29h-56v69q31 14 61 19.5t59 5.5q44 0 75.5 -23t31.5 -67q0 -29 -15.5 -47.5t-43.5 -29.5v-1q35 -9 52 -32.5
t17 -52.5q0 -47 -33 -72t-93 -25q-32 0 -58 5t-57 19v69zM623 149v121h-1q-20 -37 -38.5 -64t-43.5 -57h83zM623 93h-153v56q42 45 76.5 89.5t61.5 104.5h84v-194h43v-56h-43v-37h28v-56h-125v56h28v37z" />
    <glyph glyph-name="questiondown" unicode="&#xbf;" horiz-adv-x="500" 
d="M457 -151q-44 -18 -100 -28.5t-110 -10.5q-62 0 -102 17.5t-63 44.5t-31.5 59t-8.5 61q0 42 13 72t32 52t41.5 38.5t41.5 32t32 32.5t13 41v30h115v-30q0 -40 -11.5 -67.5t-28.5 -47.5t-37 -35.5t-37 -30.5t-28.5 -32t-11.5 -41q0 -25 10 -40t25 -22.5t32.5 -9.5t31.5 -2
t33 3t42 10v70h107v-166zM207 355v145h130v-145h-130z" />
    <glyph glyph-name="Agrave" unicode="&#xc0;" horiz-adv-x="700" 
d="M209 870h109l55 -140h-70zM448 680l182 -573h55v-107h-268v107h63l-29 99h-207l-33 -99h64v-107h-260v107h62l154 465h-67v108h284zM352 557l-80 -251h155l-74 251h-1z" />
    <glyph glyph-name="Aacute" unicode="&#xc1;" horiz-adv-x="700" 
d="M396 730h-70l55 140h109zM448 680l182 -573h55v-107h-268v107h63l-29 99h-207l-33 -99h64v-107h-260v107h62l154 465h-67v108h284zM352 557l-80 -251h155l-74 251h-1z" />
    <glyph glyph-name="Acircumflex" unicode="&#xc2;" horiz-adv-x="700" 
d="M267 730h-70l108 140h79l108 -140h-70l-77 69zM448 680l182 -573h55v-107h-268v107h63l-29 99h-207l-33 -99h64v-107h-260v107h62l154 465h-67v108h284zM352 557l-80 -251h155l-74 251h-1z" />
    <glyph glyph-name="Atilde" unicode="&#xc3;" horiz-adv-x="700" 
d="M288 772q-17 0 -31 -7t-40 -34l-41 31q26 54 54 76.5t54 22.5q19 0 37 -7t35.5 -15t32.5 -15t28 -7q7 0 14 0.5t15 3.5t16.5 10t19.5 20l33 -39q-18 -38 -38.5 -56.5t-43.5 -22.5q-11 -2 -21 0q-14 1 -30 7.5t-32.5 13.5t-32.5 12.5t-29 5.5zM448 680l182 -573h55v-107
h-268v107h63l-29 99h-207l-33 -99h64v-107h-260v107h62l154 465h-67v108h284zM352 557l-80 -251h155l-74 251h-1z" />
    <glyph glyph-name="Adieresis" unicode="&#xc4;" horiz-adv-x="700" 
d="M288 870v-130h-115v130h115zM528 870v-130h-115v130h115zM448 680l182 -573h55v-107h-268v107h63l-29 99h-207l-33 -99h64v-107h-260v107h62l154 465h-67v108h284zM352 557l-80 -251h155l-74 251h-1z" />
    <glyph glyph-name="Aring" unicode="&#xc5;" horiz-adv-x="700" 
d="M250 820q0 19 7.5 36.5t20 30.5t30 20.5t37.5 7.5q19 0 36.5 -7.5t30.5 -20.5t20.5 -30.5t7.5 -36.5q0 -20 -7.5 -37.5t-20.5 -30t-30.5 -20t-36.5 -7.5q-40 0 -67.5 27.5t-27.5 67.5zM298 820q0 -20 13.5 -33.5t33.5 -13.5t33.5 13.5t13.5 33.5t-13.5 33.5t-33.5 13.5
t-33.5 -13.5t-13.5 -33.5zM448 680l182 -573h55v-107h-268v107h63l-29 99h-207l-33 -99h64v-107h-260v107h62l154 465h-67v108h284zM352 557l-80 -251h155l-74 251h-1z" />
    <glyph glyph-name="AE" unicode="&#xc6;" horiz-adv-x="916" 
d="M232 572v108h651v-168h-107v60h-220v-167h277v-108h-277v-190h220v60h107v-167h-465v189h-169l-75 -153h21l-13 -36h-172v107h61l230 465h-69zM295 296h123v260h-2z" />
    <glyph glyph-name="Ccedilla" unicode="&#xc7;" horiz-adv-x="610" 
d="M312 -9q-83 3 -137 32.5t-86 77t-44.5 110.5t-12.5 134q0 72 13.5 135t48 109.5t93 73.5t148.5 27q61 0 118 -8.5t127 -29.5v-160h-108v77q-41 8 -69 10.5t-57 2.5q-47 0 -79.5 -18t-52.5 -50t-28.5 -75t-8.5 -94q0 -54 8.5 -99.5t28.5 -78.5t52.5 -51.5t79.5 -18.5
q29 0 57 2.5t69 11.5v76h108v-160q-63 -19 -115 -27t-106 -9v-44q13 -2 27.5 -5.5t27 -12t20.5 -21.5t8 -34q0 -36 -26.5 -57.5t-75.5 -21.5q-18 0 -39.5 3t-41.5 9l8 41q12 -2 23 -4t25 -2q25 0 36.5 12t11.5 27t-13 26.5t-38 14.5v69z" />
    <glyph glyph-name="Egrave" unicode="&#xc8;" horiz-adv-x="570" 
d="M188 870h109l55 -140h-70zM537 680v-168h-107v60h-220v-167h277v-108h-277v-190h220v60h107v-167h-522v107h57v465h-57v108h522z" />
    <glyph glyph-name="Eacute" unicode="&#xc9;" horiz-adv-x="570" 
d="M326 730h-70l55 140h109zM537 680v-168h-107v60h-220v-167h277v-108h-277v-190h220v60h107v-167h-522v107h57v465h-57v108h522z" />
    <glyph glyph-name="Ecircumflex" unicode="&#xca;" horiz-adv-x="570" 
d="M234 730h-70l108 140h79l108 -140h-70l-77 69zM537 680v-168h-107v60h-220v-167h277v-108h-277v-190h220v60h107v-167h-522v107h57v465h-57v108h522z" />
    <glyph glyph-name="Edieresis" unicode="&#xcb;" horiz-adv-x="570" 
d="M235 870v-130h-115v130h115zM475 870v-130h-115v130h115zM537 680v-168h-107v60h-220v-167h277v-108h-277v-190h220v60h107v-167h-522v107h57v465h-57v108h522z" />
    <glyph glyph-name="Igrave" unicode="&#xcc;" horiz-adv-x="282" 
d="M20 870h109l55 -140h-70zM72 107v465h-57v108h252v-108h-57v-465h57v-107h-252v107h57z" />
    <glyph glyph-name="Iacute" unicode="&#xcd;" horiz-adv-x="282" 
d="M169 730h-70l55 140h109zM72 107v465h-57v108h252v-108h-57v-465h57v-107h-252v107h57z" />
    <glyph glyph-name="Icircumflex" unicode="&#xce;" horiz-adv-x="282" 
d="M63 730h-70l108 140h79l108 -140h-70l-77 69zM72 107v465h-57v108h252v-108h-57v-465h57v-107h-252v107h57z" />
    <glyph glyph-name="Idieresis" unicode="&#xcf;" horiz-adv-x="282" 
d="M78 870v-130h-115v130h115zM318 870v-130h-115v130h115zM72 107v465h-57v108h252v-108h-57v-465h57v-107h-252v107h57z" />
    <glyph glyph-name="Eth" unicode="&#xd0;" horiz-adv-x="660" 
d="M326 680q88 0 146 -25.5t92.5 -70t48.5 -106t14 -133.5q0 -73 -14 -136t-48.5 -109.5t-92.5 -73t-146 -26.5h-311v107h57v199h-57v78h57v188h-57v108h311zM326 107q48 0 78.5 18t48 50t23.5 75.5t6 94.5t-6 92.5t-23.5 71.5t-48 46.5t-78.5 16.5h-116v-188h102v-78h-102
v-199h116z" />
    <glyph glyph-name="Ntilde" unicode="&#xd1;" horiz-adv-x="690" 
d="M297 772q-17 0 -31 -7t-40 -34l-41 31q26 54 54 76.5t54 22.5q19 0 37 -7t35.5 -15t32.5 -15t28 -7q7 0 14 0.5t15 3.5t16.5 10t19.5 20l33 -39q-18 -38 -38.5 -56.5t-43.5 -22.5q-11 -2 -21 0q-14 1 -30 7.5t-32.5 13.5t-32.5 12.5t-29 5.5zM675 680v-108h-58v-572h-141
l-275 431h-2v-324h61v-107h-245v107h57v465h-57v108h191l283 -450h2v342h-61v108h245z" />
    <glyph glyph-name="Ograve" unicode="&#xd2;" horiz-adv-x="670" 
d="M225 870h109l55 -140h-70zM335 582q-50 0 -81 -18t-48 -50t-23 -75t-6 -94t6 -96t23 -78.5t48 -53.5t81 -20t81 20t48 53.5t22.5 78.5t5.5 96t-5.5 94t-22.5 75t-48 50t-81 18zM335 -10q-90 0 -148.5 28t-93 76.5t-48 113t-13.5 137.5q0 72 13.5 135t48 109.5t93 73.5
t148.5 27t148 -27t92.5 -73.5t48 -109.5t13.5 -135q0 -73 -13.5 -137.5t-48 -113t-92.5 -76.5t-148 -28z" />
    <glyph glyph-name="Oacute" unicode="&#xd3;" horiz-adv-x="670" 
d="M368 730h-70l55 140h109zM335 582q-50 0 -81 -18t-48 -50t-23 -75t-6 -94t6 -96t23 -78.5t48 -53.5t81 -20t81 20t48 53.5t22.5 78.5t5.5 96t-5.5 94t-22.5 75t-48 50t-81 18zM335 -10q-90 0 -148.5 28t-93 76.5t-48 113t-13.5 137.5q0 72 13.5 135t48 109.5t93 73.5
t148.5 27t148 -27t92.5 -73.5t48 -109.5t13.5 -135q0 -73 -13.5 -137.5t-48 -113t-92.5 -76.5t-148 -28z" />
    <glyph glyph-name="Ocircumflex" unicode="&#xd4;" horiz-adv-x="670" 
d="M258 730h-70l108 140h79l108 -140h-70l-77 69zM335 582q-50 0 -81 -18t-48 -50t-23 -75t-6 -94t6 -96t23 -78.5t48 -53.5t81 -20t81 20t48 53.5t22.5 78.5t5.5 96t-5.5 94t-22.5 75t-48 50t-81 18zM335 -10q-90 0 -148.5 28t-93 76.5t-48 113t-13.5 137.5q0 72 13.5 135
t48 109.5t93 73.5t148.5 27t148 -27t92.5 -73.5t48 -109.5t13.5 -135q0 -73 -13.5 -137.5t-48 -113t-92.5 -76.5t-148 -28z" />
    <glyph glyph-name="Otilde" unicode="&#xd5;" horiz-adv-x="670" 
d="M276 772q-17 0 -31 -7t-40 -34l-41 31q26 54 54 76.5t54 22.5q19 0 37 -7t35.5 -15t32.5 -15t28 -7q7 0 14 0.5t15 3.5t16.5 10t19.5 20l33 -39q-18 -38 -38.5 -56.5t-43.5 -22.5q-11 -2 -21 0q-14 1 -30 7.5t-32.5 13.5t-32.5 12.5t-29 5.5zM335 582q-50 0 -81 -18
t-48 -50t-23 -75t-6 -94t6 -96t23 -78.5t48 -53.5t81 -20t81 20t48 53.5t22.5 78.5t5.5 96t-5.5 94t-22.5 75t-48 50t-81 18zM335 -10q-90 0 -148.5 28t-93 76.5t-48 113t-13.5 137.5q0 72 13.5 135t48 109.5t93 73.5t148.5 27t148 -27t92.5 -73.5t48 -109.5t13.5 -135
q0 -73 -13.5 -137.5t-48 -113t-92.5 -76.5t-148 -28z" />
    <glyph glyph-name="Odieresis" unicode="&#xd6;" horiz-adv-x="670" 
d="M276 870v-130h-115v130h115zM516 870v-130h-115v130h115zM335 582q-50 0 -81 -18t-48 -50t-23 -75t-6 -94t6 -96t23 -78.5t48 -53.5t81 -20t81 20t48 53.5t22.5 78.5t5.5 96t-5.5 94t-22.5 75t-48 50t-81 18zM335 -10q-90 0 -148.5 28t-93 76.5t-48 113t-13.5 137.5
q0 72 13.5 135t48 109.5t93 73.5t148.5 27t148 -27t92.5 -73.5t48 -109.5t13.5 -135q0 -73 -13.5 -137.5t-48 -113t-92.5 -76.5t-148 -28z" />
    <glyph glyph-name="multiply" unicode="&#xd7;" horiz-adv-x="526" 
d="M339 265l137 -137l-76 -76l-137 137l-137 -137l-76 76l137 137l-137 137l76 76l137 -137l137 137l76 -76z" />
    <glyph glyph-name="Oslash" unicode="&#xd8;" horiz-adv-x="670" 
d="M335 -10q-69 0 -117.5 16.5t-83.5 46.5l-69 -89l-40 32l73 92q-37 49 -51.5 115.5t-14.5 141.5q0 72 13.5 135t48 109.5t93 73.5t148.5 27q65 0 112.5 -15.5t82.5 -41.5l74 95l40 -32l-77 -97q40 -47 55 -112t15 -142q0 -73 -13.5 -137.5t-48 -113t-92.5 -76.5t-148 -28z
M335 105q50 0 81 18.5t48 51t22.5 76t5.5 94.5q0 38 -4 72.5t-15 62.5l-256 -324q17 -25 45.5 -38t72.5 -13zM335 575q-50 0 -81 -17t-48 -47.5t-23 -72.5t-6 -93q0 -37 3.5 -71.5t14.5 -62.5l254 320q-17 21 -45 32.5t-69 11.5z" />
    <glyph glyph-name="Ugrave" unicode="&#xd9;" horiz-adv-x="680" 
d="M210 870h109l55 -140h-70zM665 680v-108h-58v-332q0 -67 -19 -114.5t-54 -77.5t-84.5 -44t-109.5 -14t-109.5 14t-85 44t-54.5 77.5t-19 114.5v332h-57v108h252v-108h-57v-332q0 -27 5 -53t19.5 -46t40 -32t66.5 -12q39 0 64.5 12t39.5 32t19.5 46t5.5 53v332h-58v108
h253z" />
    <glyph glyph-name="Uacute" unicode="&#xda;" horiz-adv-x="680" 
d="M373 730h-70l55 140h109zM665 680v-108h-58v-332q0 -67 -19 -114.5t-54 -77.5t-84.5 -44t-109.5 -14t-109.5 14t-85 44t-54.5 77.5t-19 114.5v332h-57v108h252v-108h-57v-332q0 -27 5 -53t19.5 -46t40 -32t66.5 -12q39 0 64.5 12t39.5 32t19.5 46t5.5 53v332h-58v108h253
z" />
    <glyph glyph-name="Ucircumflex" unicode="&#xdb;" horiz-adv-x="680" 
d="M264 730h-70l108 140h79l108 -140h-70l-77 69zM665 680v-108h-58v-332q0 -67 -19 -114.5t-54 -77.5t-84.5 -44t-109.5 -14t-109.5 14t-85 44t-54.5 77.5t-19 114.5v332h-57v108h252v-108h-57v-332q0 -27 5 -53t19.5 -46t40 -32t66.5 -12q39 0 64.5 12t39.5 32t19.5 46
t5.5 53v332h-58v108h253z" />
    <glyph glyph-name="Udieresis" unicode="&#xdc;" horiz-adv-x="680" 
d="M276 870v-130h-115v130h115zM516 870v-130h-115v130h115zM665 680v-108h-58v-332q0 -67 -19 -114.5t-54 -77.5t-84.5 -44t-109.5 -14t-109.5 14t-85 44t-54.5 77.5t-19 114.5v332h-57v108h252v-108h-57v-332q0 -27 5 -53t19.5 -46t40 -32t66.5 -12q39 0 64.5 12t39.5 32
t19.5 46t5.5 53v332h-58v108h253z" />
    <glyph glyph-name="Yacute" unicode="&#xdd;" horiz-adv-x="660" 
d="M382 730h-70l55 140h109zM456 107v-107h-252v107h57v103l-187 362h-59v108h280v-108h-74l119 -235h2l119 235h-74v108h258v-108h-53l-193 -362v-103h57z" />
    <glyph glyph-name="Thorn" unicode="&#xde;" horiz-adv-x="620" 
d="M362 552q108 0 166.5 -56t58.5 -156q0 -102 -58.5 -157.5t-166.5 -55.5h-152v-127h-195v107h57v465h-57v108h195v-128h152zM210 235h137q44 0 71.5 25.5t27.5 79.5q0 52 -27.5 78.5t-71.5 26.5h-137v-210z" />
    <glyph glyph-name="germandbls" unicode="&#xdf;" horiz-adv-x="645" 
d="M82 407h-67v85l67 8q0 59 20.5 98t53.5 61.5t76 31.5t88 9q46 0 86 -8t69 -25.5t45.5 -46t16.5 -70.5q0 -41 -18.5 -68t-40 -46.5t-40 -35.5t-18.5 -35t12.5 -28t30.5 -17q46 -17 76 -36t47 -40t24 -43.5t7 -46.5q0 -46 -18 -77t-48 -50.5t-68.5 -28t-78.5 -8.5
q-38 0 -69 5.5t-60 14.5l16 100q32 -11 58 -15.5t51 -4.5q24 0 39.5 6t24.5 15.5t12.5 20.5t3.5 20q0 21 -12 36.5t-29 26.5t-35 18.5t-30 14.5q-21 11 -35.5 21t-23.5 21.5t-13.5 26t-4.5 34.5q0 29 14 49.5t31 39t31 38.5t14 49q0 19 -6.5 32.5t-17.5 21.5t-25 12t-29 4
q-51 0 -74 -32.5t-23 -92.5v-472h-187v107h57v300z" />
    <glyph glyph-name="agrave" unicode="&#xe0;" horiz-adv-x="535" 
d="M59 347v140q54 11 107.5 17t98.5 6q48 0 84.5 -7.5t61.5 -26t38 -51t13 -83.5v-235h58v-107h-188v50h-2q-65 -65 -162 -59q-64 4 -101.5 44.5t-37.5 108.5q0 43 16.5 73t45 48.5t66.5 26.5t80 8h95v35q0 38 -24 52.5t-73 14.5q-14 0 -30.5 -1t-38.5 -4v-50h-107zM332 222
h-74q-48 0 -74.5 -13.5t-26.5 -53.5q0 -33 23 -49t55 -16q31 0 57 10t40 21v101zM151 700h109l55 -140h-70z" />
    <glyph glyph-name="aacute" unicode="&#xe1;" horiz-adv-x="535" 
d="M59 347v140q54 11 107.5 17t98.5 6q48 0 84.5 -7.5t61.5 -26t38 -51t13 -83.5v-235h58v-107h-188v50h-2q-65 -65 -162 -59q-64 4 -101.5 44.5t-37.5 108.5q0 43 16.5 73t45 48.5t66.5 26.5t80 8h95v35q0 38 -24 52.5t-73 14.5q-14 0 -30.5 -1t-38.5 -4v-50h-107zM332 222
h-74q-48 0 -74.5 -13.5t-26.5 -53.5q0 -33 23 -49t55 -16q31 0 57 10t40 21v101zM295 560h-70l55 140h109z" />
    <glyph glyph-name="acircumflex" unicode="&#xe2;" horiz-adv-x="535" 
d="M59 347v140q54 11 107.5 17t98.5 6q48 0 84.5 -7.5t61.5 -26t38 -51t13 -83.5v-235h58v-107h-188v50h-2q-65 -65 -162 -59q-64 4 -101.5 44.5t-37.5 108.5q0 43 16.5 73t45 48.5t66.5 26.5t80 8h95v35q0 38 -24 52.5t-73 14.5q-14 0 -30.5 -1t-38.5 -4v-50h-107zM332 222
h-74q-48 0 -74.5 -13.5t-26.5 -53.5q0 -33 23 -49t55 -16q31 0 57 10t40 21v101zM192 560h-70l108 140h79l108 -140h-70l-77 69z" />
    <glyph glyph-name="atilde" unicode="&#xe3;" horiz-adv-x="535" 
d="M59 347v140q54 11 107.5 17t98.5 6q48 0 84.5 -7.5t61.5 -26t38 -51t13 -83.5v-235h58v-107h-188v50h-2q-65 -65 -162 -59q-64 4 -101.5 44.5t-37.5 108.5q0 43 16.5 73t45 48.5t66.5 26.5t80 8h95v35q0 38 -24 52.5t-73 14.5q-14 0 -30.5 -1t-38.5 -4v-50h-107zM332 222
h-74q-48 0 -74.5 -13.5t-26.5 -53.5q0 -33 23 -49t55 -16q31 0 57 10t40 21v101zM209 602q-17 0 -31 -7t-40 -34l-41 31q26 54 54 76.5t54 22.5q19 0 37 -7t35.5 -15t32.5 -15t28 -7q7 0 14 0.5t15 3.5t16.5 10t19.5 20l33 -39q-18 -38 -38.5 -56.5t-43.5 -22.5
q-11 -2 -21 0q-14 1 -30 7.5t-32.5 13.5t-32.5 12.5t-29 5.5z" />
    <glyph glyph-name="adieresis" unicode="&#xe4;" horiz-adv-x="535" 
d="M59 347v140q54 11 107.5 17t98.5 6q48 0 84.5 -7.5t61.5 -26t38 -51t13 -83.5v-235h58v-107h-188v50h-2q-65 -65 -162 -59q-64 4 -101.5 44.5t-37.5 108.5q0 43 16.5 73t45 48.5t66.5 26.5t80 8h95v35q0 38 -24 52.5t-73 14.5q-14 0 -30.5 -1t-38.5 -4v-50h-107zM332 222
h-74q-48 0 -74.5 -13.5t-26.5 -53.5q0 -33 23 -49t55 -16q31 0 57 10t40 21v101zM206 700v-130h-115v130h115zM446 700v-130h-115v130h115z" />
    <glyph glyph-name="aring" unicode="&#xe5;" horiz-adv-x="535" 
d="M59 347v140q54 11 107.5 17t98.5 6q48 0 84.5 -7.5t61.5 -26t38 -51t13 -83.5v-235h58v-107h-188v50h-2q-65 -65 -162 -59q-64 4 -101.5 44.5t-37.5 108.5q0 43 16.5 73t45 48.5t66.5 26.5t80 8h95v35q0 38 -24 52.5t-73 14.5q-14 0 -30.5 -1t-38.5 -4v-50h-107zM332 222
h-74q-48 0 -74.5 -13.5t-26.5 -53.5q0 -33 23 -49t55 -16q31 0 57 10t40 21v101zM175 650q0 19 7.5 36.5t20 30.5t30 20.5t37.5 7.5q19 0 36.5 -7.5t30.5 -20.5t20.5 -30.5t7.5 -36.5q0 -20 -7.5 -37.5t-20.5 -30t-30.5 -20t-36.5 -7.5q-40 0 -67.5 27.5t-27.5 67.5z
M223 650q0 -20 13.5 -33.5t33.5 -13.5t33.5 13.5t13.5 33.5t-13.5 33.5t-33.5 13.5t-33.5 -13.5t-13.5 -33.5z" />
    <glyph glyph-name="ae" unicode="&#xe6;" horiz-adv-x="830" 
d="M235 402q-14 0 -30.5 -1t-38.5 -4v-50h-107v140q19 4 43 8t50 7.5t53 5.5t51 2q60 0 98.5 -14t65.5 -50q26 29 68 46.5t102 17.5q81 0 126 -25.5t65.5 -66t21.5 -92.5t-7 -104h-322q2 -57 35 -91t102 -34q32 0 69.5 3t86.5 17l15 -103q-50 -14 -95.5 -19t-94.5 -5
q-85 0 -137.5 24t-81.5 69q-25 -29 -49.5 -47t-48 -28.5t-47 -14t-46.5 -3.5q-38 0 -66.5 12t-48.5 32.5t-30 48.5t-10 61q0 47 19.5 77t50.5 47.5t68.5 24.5t73.5 7h93v27q0 44 -21.5 59.5t-75.5 15.5zM235 90q31 0 59 11t46 27q-4 21 -6 44.5t-2 49.5h-87q-88 0 -88 -67
q0 -33 23 -49t55 -16zM582 410q-54 0 -79 -29t-29 -77h194q3 21 1.5 40t-10.5 33.5t-27.5 23.5t-49.5 9z" />
    <glyph glyph-name="ccedilla" unicode="&#xe7;" horiz-adv-x="485" 
d="M170 250q0 -75 30.5 -114t89.5 -39q14 0 27.5 0.5t31 2t40 5.5t53.5 12l23 -103q-45 -11 -84 -17t-85 -7v-43q12 -2 26.5 -5.5t27 -12t21 -21.5t8.5 -34q0 -36 -27 -57.5t-75 -21.5q-18 0 -39.5 3t-41.5 9l8 41q12 -2 23 -4t24 -2q26 0 37 12t11 27t-10.5 27t-40.5 14v70
q-60 5 -101.5 25.5t-67 54t-36.5 78.5t-11 100q0 59 13 107t43 82t79.5 52.5t122.5 18.5q48 0 89 -6.5t86 -17.5v-139h-108v50q-21 4 -37 4.5t-30 0.5q-59 0 -89.5 -38.5t-30.5 -113.5z" />
    <glyph glyph-name="egrave" unicode="&#xe8;" horiz-adv-x="530" 
d="M170 222q3 -57 37.5 -91t103.5 -34q32 0 69.5 3t86.5 17l15 -103q-50 -14 -95.5 -19t-94.5 -5q-72 0 -121.5 18.5t-80.5 52.5t-44.5 82t-13.5 107t13.5 107t44 82t80 52.5t120.5 18.5q81 0 126 -25.5t65.5 -66t21.5 -92.5t-7 -104h-326zM282 410q-54 0 -80.5 -29
t-31.5 -77h198q3 21 1.5 40t-10.5 33.5t-27.5 23.5t-49.5 9zM161 700h109l55 -140h-70z" />
    <glyph glyph-name="eacute" unicode="&#xe9;" horiz-adv-x="530" 
d="M170 222q3 -57 37.5 -91t103.5 -34q32 0 69.5 3t86.5 17l15 -103q-50 -14 -95.5 -19t-94.5 -5q-72 0 -121.5 18.5t-80.5 52.5t-44.5 82t-13.5 107t13.5 107t44 82t80 52.5t120.5 18.5q81 0 126 -25.5t65.5 -66t21.5 -92.5t-7 -104h-326zM282 410q-54 0 -80.5 -29
t-31.5 -77h198q3 21 1.5 40t-10.5 33.5t-27.5 23.5t-49.5 9zM335 560h-70l55 140h109z" />
    <glyph glyph-name="ecircumflex" unicode="&#xea;" horiz-adv-x="530" 
d="M170 222q3 -57 37.5 -91t103.5 -34q32 0 69.5 3t86.5 17l15 -103q-50 -14 -95.5 -19t-94.5 -5q-72 0 -121.5 18.5t-80.5 52.5t-44.5 82t-13.5 107t13.5 107t44 82t80 52.5t120.5 18.5q81 0 126 -25.5t65.5 -66t21.5 -92.5t-7 -104h-326zM282 410q-54 0 -80.5 -29
t-31.5 -77h198q3 21 1.5 40t-10.5 33.5t-27.5 23.5t-49.5 9zM211 560h-70l108 140h79l108 -140h-70l-77 69z" />
    <glyph glyph-name="edieresis" unicode="&#xeb;" horiz-adv-x="530" 
d="M170 222q3 -57 37.5 -91t103.5 -34q32 0 69.5 3t86.5 17l15 -103q-50 -14 -95.5 -19t-94.5 -5q-72 0 -121.5 18.5t-80.5 52.5t-44.5 82t-13.5 107t13.5 107t44 82t80 52.5t120.5 18.5q81 0 126 -25.5t65.5 -66t21.5 -92.5t-7 -104h-326zM282 410q-54 0 -80.5 -29
t-31.5 -77h198q3 21 1.5 40t-10.5 33.5t-27.5 23.5t-49.5 9zM221 700v-130h-115v130h115zM461 700v-130h-115v130h115z" />
    <glyph glyph-name="igrave" unicode="&#xec;" horiz-adv-x="275" 
d="M15 500h187v-393h58v-107h-245v107h57v285h-57v108zM-12 700h109l55 -140h-70z" />
    <glyph glyph-name="iacute" unicode="&#xed;" horiz-adv-x="275" 
d="M15 500h187v-393h58v-107h-245v107h57v285h-57v108zM174 560h-70l55 140h109z" />
    <glyph glyph-name="icircumflex" unicode="&#xee;" horiz-adv-x="275" 
d="M44 560h-70l108 140h79l108 -140h-70l-77 69zM15 500h187v-393h58v-107h-245v107h57v285h-57v108z" />
    <glyph glyph-name="idieresis" unicode="&#xef;" horiz-adv-x="275" 
d="M16 500h187v-393h58v-107h-245v107h57v285h-57v108zM67 700v-130h-115v130h115zM307 700v-130h-115v130h115z" />
    <glyph glyph-name="eth" unicode="&#xf0;" horiz-adv-x="550" 
d="M445 725l44 -44l-66 -66q44 -44 69 -120.5t25 -194.5q0 -60 -13.5 -116t-43.5 -99t-77.5 -69t-115.5 -26q-51 0 -94.5 15.5t-74.5 45.5t-48.5 72.5t-17.5 96.5q0 113 56 174t153 61q43 0 80.5 -19.5t63.5 -51.5l2 1q0 38 -10.5 78.5t-36.5 68.5l-55 -55l-44 45l42 42
q-16 8 -34.5 13t-38.5 5q-31 0 -63.5 -5t-77.5 -22l-16 100q23 9 43 16t39.5 11t40.5 6t45 2q41 0 79 -9t71 -29zM376 288q-20 23 -44.5 38.5t-55.5 15.5q-32 0 -52.5 -11.5t-32.5 -29.5t-16.5 -39.5t-4.5 -41.5q0 -61 30.5 -92t73.5 -31q36 0 57.5 17t32.5 44t13 61t-1 69z
" />
    <glyph glyph-name="ntilde" unicode="&#xf1;" horiz-adv-x="590" 
d="M337 107h50v205q0 44 -18 67t-62 23q-31 0 -58.5 -13t-46.5 -25v-257h50v-107h-237v107h57v285h-57v108h187v-65h2q32 35 73 55t90 20q75 0 112.5 -45t37.5 -123v-235h58v-107h-238v107zM240 602q-17 0 -31 -7t-40 -34l-41 31q26 54 54 76.5t54 22.5q19 0 37 -7t35.5 -15
t32.5 -15t28 -7q7 0 14 0.5t15 3.5t16.5 10t19.5 20l33 -39q-18 -38 -38.5 -56.5t-43.5 -22.5q-11 -2 -21 0q-14 1 -30 7.5t-32.5 13.5t-32.5 12.5t-29 5.5z" />
    <glyph glyph-name="ograve" unicode="&#xf2;" horiz-adv-x="550" 
d="M275 402q-31 0 -51 -11t-32 -30.5t-17 -48t-5 -62.5q0 -35 5 -63t17 -48t32 -31t51 -11q61 0 83 41.5t22 111.5q0 34 -5 62.5t-17 48t-32 30.5t-51 11zM275 -10q-66 0 -112 18.5t-75.5 52.5t-42.5 82t-13 107t13 107t42.5 82t75.5 52.5t112 18.5t112 -18.5t75 -52.5
t42 -82t13 -107t-13 -107t-42 -82t-75 -52.5t-112 -18.5zM155 700h109l55 -140h-70z" />
    <glyph glyph-name="oacute" unicode="&#xf3;" horiz-adv-x="550" 
d="M275 402q-31 0 -51 -11t-32 -30.5t-17 -48t-5 -62.5q0 -35 5 -63t17 -48t32 -31t51 -11q61 0 83 41.5t22 111.5q0 34 -5 62.5t-17 48t-32 30.5t-51 11zM275 -10q-66 0 -112 18.5t-75.5 52.5t-42.5 82t-13 107t13 107t42.5 82t75.5 52.5t112 18.5t112 -18.5t75 -52.5
t42 -82t13 -107t-13 -107t-42 -82t-75 -52.5t-112 -18.5zM312 560h-70l55 140h109z" />
    <glyph glyph-name="ocircumflex" unicode="&#xf4;" horiz-adv-x="550" 
d="M275 402q-31 0 -51 -11t-32 -30.5t-17 -48t-5 -62.5q0 -35 5 -63t17 -48t32 -31t51 -11q61 0 83 41.5t22 111.5q0 34 -5 62.5t-17 48t-32 30.5t-51 11zM275 -10q-66 0 -112 18.5t-75.5 52.5t-42.5 82t-13 107t13 107t42.5 82t75.5 52.5t112 18.5t112 -18.5t75 -52.5
t42 -82t13 -107t-13 -107t-42 -82t-75 -52.5t-112 -18.5zM197 560h-70l108 140h79l108 -140h-70l-77 69z" />
    <glyph glyph-name="otilde" unicode="&#xf5;" horiz-adv-x="550" 
d="M275 402q-31 0 -51 -11t-32 -30.5t-17 -48t-5 -62.5q0 -35 5 -63t17 -48t32 -31t51 -11q61 0 83 41.5t22 111.5q0 34 -5 62.5t-17 48t-32 30.5t-51 11zM275 -10q-66 0 -112 18.5t-75.5 52.5t-42.5 82t-13 107t13 107t42.5 82t75.5 52.5t112 18.5t112 -18.5t75 -52.5
t42 -82t13 -107t-13 -107t-42 -82t-75 -52.5t-112 -18.5zM217 602q-17 0 -31 -7t-40 -34l-41 31q26 54 54 76.5t54 22.5q19 0 37 -7t35.5 -15t32.5 -15t28 -7q7 0 14 0.5t15 3.5t16.5 10t19.5 20l33 -39q-18 -38 -38.5 -56.5t-43.5 -22.5q-11 -2 -21 0q-14 1 -30 7.5
t-32.5 13.5t-32.5 12.5t-29 5.5z" />
    <glyph glyph-name="odieresis" unicode="&#xf6;" horiz-adv-x="550" 
d="M275 402q-31 0 -51 -11t-32 -30.5t-17 -48t-5 -62.5q0 -35 5 -63t17 -48t32 -31t51 -11q61 0 83 41.5t22 111.5q0 34 -5 62.5t-17 48t-32 30.5t-51 11zM275 -10q-66 0 -112 18.5t-75.5 52.5t-42.5 82t-13 107t13 107t42.5 82t75.5 52.5t112 18.5t112 -18.5t75 -52.5
t42 -82t13 -107t-13 -107t-42 -82t-75 -52.5t-112 -18.5zM212 700v-130h-115v130h115zM452 700v-130h-115v130h115z" />
    <glyph glyph-name="divide" unicode="&#xf7;" horiz-adv-x="500" 
d="M457 304v-78h-415v78h415zM307 165v-130h-115v130h115zM307 495v-130h-115v130h115z" />
    <glyph glyph-name="oslash" unicode="&#xf8;" horiz-adv-x="550" 
d="M275 -10q-50 0 -87.5 11t-64.5 31l-58 -68l-40 32l58 69q-27 34 -39 80.5t-12 104.5q0 59 13 107t42.5 82t75.5 52.5t112 18.5q49 0 86.5 -11.5t65.5 -31.5l58 69l40 -32l-60 -69q27 -35 39.5 -81.5t12.5 -103.5q0 -59 -13 -107t-42 -82t-75 -52.5t-112 -18.5zM275 97
q61 0 83 41.5t22 111.5q0 41 -12 71l-166 -196q12 -14 29.5 -21t43.5 -7zM275 402q-31 0 -51 -11t-32 -30.5t-17 -48t-5 -62.5q0 -20 2.5 -38t8.5 -33l166 195q-25 28 -72 28z" />
    <glyph glyph-name="ugrave" unicode="&#xf9;" horiz-adv-x="590" 
d="M15 500h187v-313q0 -43 20 -66.5t60 -23.5q32 0 59 13.5t46 25.5v256h-65v108h195v-393h58v-107h-188v65h-2q-32 -35 -73 -55t-90 -20q-75 0 -112.5 45t-37.5 122v235h-57v108zM160 700h109l55 -140h-70z" />
    <glyph glyph-name="uacute" unicode="&#xfa;" horiz-adv-x="590" 
d="M15 500h187v-313q0 -43 20 -66.5t60 -23.5q32 0 59 13.5t46 25.5v256h-65v108h195v-393h58v-107h-188v65h-2q-32 -35 -73 -55t-90 -20q-75 0 -112.5 45t-37.5 122v235h-57v108zM327 560h-70l55 140h109z" />
    <glyph glyph-name="ucircumflex" unicode="&#xfb;" horiz-adv-x="590" 
d="M15 500h187v-313q0 -43 20 -66.5t60 -23.5q32 0 59 13.5t46 25.5v256h-65v108h195v-393h58v-107h-188v65h-2q-32 -35 -73 -55t-90 -20q-75 0 -112.5 45t-37.5 122v235h-57v108zM213 560h-70l108 140h79l108 -140h-70l-77 69z" />
    <glyph glyph-name="udieresis" unicode="&#xfc;" horiz-adv-x="590" 
d="M15 500h187v-313q0 -43 20 -66.5t60 -23.5q32 0 59 13.5t46 25.5v256h-65v108h195v-393h58v-107h-188v65h-2q-32 -35 -73 -55t-90 -20q-75 0 -112.5 45t-37.5 122v235h-57v108zM227 700v-130h-115v130h115zM467 700v-130h-115v130h115z" />
    <glyph glyph-name="yacute" unicode="&#xfd;" horiz-adv-x="580" 
d="M343 500h220v-108h-36l-168 -406q-17 -40 -37.5 -75.5t-47 -62.5t-60 -42.5t-74.5 -15.5q-20 0 -44.5 2t-43.5 7l11 103q12 -2 26 -3.5t22 -1.5q38 0 67 25t43 67l-165 403h-41v108h242v-108h-57l104 -277h2l92 277h-55v108zM338 560h-70l55 140h109z" />
    <glyph glyph-name="thorn" unicode="&#xfe;" horiz-adv-x="560" 
d="M15 700h187v-250h2q24 26 62 43t79 17q52 0 87 -20.5t56 -56t30 -83t9 -100.5q0 -54 -10 -101t-32.5 -82.5t-59 -56t-88.5 -20.5q-38 0 -73.5 15t-59.5 41h-2v-139h58v-107h-245v107h57v685h-57v108zM390 250q0 32 -4.5 59.5t-15.5 48t-30 32.5t-48 12q-32 0 -55 -11
t-35 -20v-242q12 -10 35 -21t55 -11q29 0 48 12t30 32.5t15.5 48.5t4.5 60z" />
    <glyph glyph-name="ydieresis" unicode="&#xff;" horiz-adv-x="580" 
d="M343 500h220v-108h-36l-168 -406q-17 -40 -37.5 -75.5t-47 -62.5t-60 -42.5t-74.5 -15.5q-20 0 -44.5 2t-43.5 7l11 103q12 -2 26 -3.5t22 -1.5q38 0 67 25t43 67l-165 403h-41v108h242v-108h-57l104 -277h2l92 277h-55v108zM238 700v-130h-115v130h115zM478 700v-130
h-115v130h115z" />
    <glyph glyph-name="Amacron" unicode="&#x100;" horiz-adv-x="700" 
d="M476 835v-93h-265v93h265zM448 680l182 -573h55v-107h-268v107h63l-29 99h-207l-33 -99h64v-107h-260v107h62l154 465h-67v108h284zM352 557l-80 -251h155l-74 251h-1z" />
    <glyph glyph-name="amacron" unicode="&#x101;" horiz-adv-x="535" 
d="M59 347v140q54 11 107.5 17t98.5 6q48 0 84.5 -7.5t61.5 -26t38 -51t13 -83.5v-235h58v-107h-188v50h-2q-65 -65 -162 -59q-64 4 -101.5 44.5t-37.5 108.5q0 43 16.5 73t45 48.5t66.5 26.5t80 8h95v35q0 38 -24 52.5t-73 14.5q-14 0 -30.5 -1t-38.5 -4v-50h-107zM332 222
h-74q-48 0 -74.5 -13.5t-26.5 -53.5q0 -33 23 -49t55 -16q31 0 57 10t40 21v101zM398 665v-93h-265v93h265z" />
    <glyph glyph-name="Abreve" unicode="&#x102;" horiz-adv-x="700" 
d="M345 812q36 0 59.5 19t34.5 49h53q-8 -66 -43.5 -104.5t-103.5 -38.5t-103 38.5t-44 104.5h53q11 -30 35 -49t59 -19zM448 680l182 -573h55v-107h-268v107h63l-29 99h-207l-33 -99h64v-107h-260v107h62l154 465h-67v108h284zM352 557l-80 -251h155l-74 251h-1z" />
    <glyph glyph-name="abreve" unicode="&#x103;" horiz-adv-x="535" 
d="M59 347v140q54 11 107.5 17t98.5 6q48 0 84.5 -7.5t61.5 -26t38 -51t13 -83.5v-235h58v-107h-188v50h-2q-65 -65 -162 -59q-64 4 -101.5 44.5t-37.5 108.5q0 43 16.5 73t45 48.5t66.5 26.5t80 8h95v35q0 38 -24 52.5t-73 14.5q-14 0 -30.5 -1t-38.5 -4v-50h-107zM332 222
h-74q-48 0 -74.5 -13.5t-26.5 -53.5q0 -33 23 -49t55 -16q31 0 57 10t40 21v101zM272 642q36 0 59.5 19t34.5 49h53q-8 -66 -43.5 -104.5t-103.5 -38.5t-103 38.5t-44 104.5h53q11 -30 35 -49t59 -19z" />
    <glyph glyph-name="Aogonek" unicode="&#x104;" horiz-adv-x="700" 
d="M639 -174q-17 -14 -44 -21.5t-51 -7.5q-45 0 -73.5 21.5t-28.5 56.5t22 67t64 58h-111v107h63l-29 99h-207l-33 -99h64v-107h-260v107h62l154 465h-67v108h284l182 -573h55v-107h-94q-29 -23 -45.5 -50t-16.5 -51q0 -26 15.5 -39.5t43.5 -13.5q14 0 25 3.5t21 8.5z
M352 557l-80 -251h155l-74 251h-1z" />
    <glyph glyph-name="aogonek" unicode="&#x105;" horiz-adv-x="535" 
d="M444 -174q-17 -14 -44 -21.5t-51 -7.5q-45 0 -73.5 21.5t-28.5 56.5t22 67t63 58v50h-2q-32 -33 -66 -46.5t-82 -13.5q-38 0 -66.5 12t-48.5 32.5t-30 48.5t-10 61q0 46 19 76t49 48t67.5 25t74.5 7h95v35q0 38 -24 52.5t-73 14.5q-14 0 -30.5 -1t-38.5 -4v-50h-107v140
q54 11 107.5 17t98.5 6q48 0 84.5 -7.5t61.5 -26t38 -51t13 -83.5v-235h58v-107h-124q-29 -23 -45.5 -50t-16.5 -51q0 -26 15.5 -39.5t43.5 -13.5q14 0 25 3.5t21 8.5zM332 222h-87q-88 0 -88 -67q0 -33 23 -49t55 -16q31 0 57 10t40 21v101z" />
    <glyph glyph-name="Cacute" unicode="&#x106;" horiz-adv-x="610" 
d="M376 730h-70l55 140h109zM580 187v-160q-70 -20 -127 -28.5t-118 -8.5q-90 0 -148.5 28t-93 76.5t-48 113t-13.5 137.5q0 72 13.5 135t48 109.5t93 73.5t148.5 27q61 0 118 -8.5t127 -29.5v-160h-108v77q-41 8 -69 10.5t-57 2.5q-47 0 -79.5 -18t-52.5 -50t-28.5 -75
t-8.5 -94q0 -54 8.5 -99.5t28.5 -78.5t52.5 -51.5t79.5 -18.5q29 0 57 2.5t69 11.5v76h108z" />
    <glyph glyph-name="cacute" unicode="&#x107;" horiz-adv-x="485" 
d="M357 347v50q-21 4 -37 4.5t-30 0.5q-59 0 -89.5 -38.5t-30.5 -113.5t30.5 -114t89.5 -39q14 0 27.5 0.5t31 2t40 5.5t53.5 12l23 -103q-45 -11 -86 -17.5t-89 -6.5q-73 0 -122.5 18.5t-79.5 52.5t-43 82t-13 107t13 107t43 82t79.5 52.5t122.5 18.5q48 0 89 -6.5
t86 -17.5v-139h-108zM313 560h-70l55 140h109z" />
    <glyph glyph-name="Ccircumflex" unicode="&#x108;" horiz-adv-x="610" 
d="M278 730h-70l108 140h79l108 -140h-70l-77 69zM580 187v-160q-70 -20 -127 -28.5t-118 -8.5q-90 0 -148.5 28t-93 76.5t-48 113t-13.5 137.5q0 72 13.5 135t48 109.5t93 73.5t148.5 27q61 0 118 -8.5t127 -29.5v-160h-108v77q-41 8 -69 10.5t-57 2.5q-47 0 -79.5 -18
t-52.5 -50t-28.5 -75t-8.5 -94q0 -54 8.5 -99.5t28.5 -78.5t52.5 -51.5t79.5 -18.5q29 0 57 2.5t69 11.5v76h108z" />
    <glyph glyph-name="ccircumflex" unicode="&#x109;" horiz-adv-x="485" 
d="M357 347v50q-21 4 -37 4.5t-30 0.5q-59 0 -89.5 -38.5t-30.5 -113.5t30.5 -114t89.5 -39q14 0 27.5 0.5t31 2t40 5.5t53.5 12l23 -103q-45 -11 -86 -17.5t-89 -6.5q-73 0 -122.5 18.5t-79.5 52.5t-43 82t-13 107t13 107t43 82t79.5 52.5t122.5 18.5q48 0 89 -6.5
t86 -17.5v-139h-108zM198 560h-70l108 140h79l108 -140h-70l-77 69z" />
    <glyph glyph-name="Cdotaccent" unicode="&#x10a;" horiz-adv-x="610" 
d="M404 870v-130h-115v130h115zM580 187v-160q-70 -20 -127 -28.5t-118 -8.5q-90 0 -148.5 28t-93 76.5t-48 113t-13.5 137.5q0 72 13.5 135t48 109.5t93 73.5t148.5 27q61 0 118 -8.5t127 -29.5v-160h-108v77q-41 8 -69 10.5t-57 2.5q-47 0 -79.5 -18t-52.5 -50t-28.5 -75
t-8.5 -94q0 -54 8.5 -99.5t28.5 -78.5t52.5 -51.5t79.5 -18.5q29 0 57 2.5t69 11.5v76h108z" />
    <glyph glyph-name="cdotaccent" unicode="&#x10b;" horiz-adv-x="485" 
d="M357 347v50q-21 4 -37 4.5t-30 0.5q-59 0 -89.5 -38.5t-30.5 -113.5t30.5 -114t89.5 -39q14 0 27.5 0.5t31 2t40 5.5t53.5 12l23 -103q-45 -11 -86 -17.5t-89 -6.5q-73 0 -122.5 18.5t-79.5 52.5t-43 82t-13 107t13 107t43 82t79.5 52.5t122.5 18.5q48 0 89 -6.5
t86 -17.5v-139h-108zM335 700v-130h-115v130h115z" />
    <glyph glyph-name="Ccaron" unicode="&#x10c;" horiz-adv-x="610" 
d="M348 801l77 69h70l-108 -140h-79l-108 140h70zM580 187v-160q-70 -20 -127 -28.5t-118 -8.5q-90 0 -148.5 28t-93 76.5t-48 113t-13.5 137.5q0 72 13.5 135t48 109.5t93 73.5t148.5 27q61 0 118 -8.5t127 -29.5v-160h-108v77q-41 8 -69 10.5t-57 2.5q-47 0 -79.5 -18
t-52.5 -50t-28.5 -75t-8.5 -94q0 -54 8.5 -99.5t28.5 -78.5t52.5 -51.5t79.5 -18.5q29 0 57 2.5t69 11.5v76h108z" />
    <glyph glyph-name="ccaron" unicode="&#x10d;" horiz-adv-x="485" 
d="M357 347v50q-21 4 -37 4.5t-30 0.5q-59 0 -89.5 -38.5t-30.5 -113.5t30.5 -114t89.5 -39q14 0 27.5 0.5t31 2t40 5.5t53.5 12l23 -103q-45 -11 -86 -17.5t-89 -6.5q-73 0 -122.5 18.5t-79.5 52.5t-43 82t-13 107t13 107t43 82t79.5 52.5t122.5 18.5q48 0 89 -6.5
t86 -17.5v-139h-108zM289 631l77 69h70l-108 -140h-79l-108 140h70z" />
    <glyph glyph-name="Dcaron" unicode="&#x10e;" horiz-adv-x="660" 
d="M311 801l77 69h70l-108 -140h-79l-108 140h70zM326 680q88 0 146 -25.5t92.5 -70t48.5 -106t14 -133.5q0 -73 -14 -136t-48.5 -109.5t-92.5 -73t-146 -26.5h-311v107h57v465h-57v108h311zM326 107q48 0 78.5 18t48 50t23.5 75.5t6 94.5t-6 92.5t-23.5 71.5t-48 46.5
t-78.5 16.5h-116v-465h116z" />
    <glyph glyph-name="dcaron" unicode="&#x10f;" horiz-adv-x="560" 
d="M300 700h187v-593h58v-107h-188v50h-2q-23 -26 -61 -43t-79 -17q-53 0 -88 20.5t-56 56t-30 82.5t-9 101q0 53 10 100.5t32.5 83t58.5 56t89 20.5q38 0 74 -15t59 -41h2v138h-57v108zM170 250q0 -32 4.5 -60t15.5 -48.5t29.5 -32.5t47.5 -12q32 0 55.5 11t34.5 21v242
q-11 9 -34.5 20t-55.5 11q-29 0 -47.5 -12t-29.5 -32.5t-15.5 -48t-4.5 -59.5zM560 610l25 102h-53v118h130v-118l-62 -102h-40z" />
    <glyph glyph-name="Dcroat" unicode="&#x110;" horiz-adv-x="660" 
d="M326 680q88 0 146 -25.5t92.5 -70t48.5 -106t14 -133.5q0 -73 -14 -136t-48.5 -109.5t-92.5 -73t-146 -26.5h-311v107h57v199h-57v78h57v188h-57v108h311zM326 107q48 0 78.5 18t48 50t23.5 75.5t6 94.5t-6 92.5t-23.5 71.5t-48 46.5t-78.5 16.5h-116v-188h102v-78h-102
v-199h116z" />
    <glyph glyph-name="dcroat" unicode="&#x111;" horiz-adv-x="560" 
d="M487 700v-71h55v-78h-55v-444h58v-107h-188v50h-2q-38 -36 -75 -48t-73 -12q-46 0 -79 20.5t-54.5 56t-31.5 83t-10 100.5t10 100.5t32.5 83t58.5 56t89 20.5q38 0 74 -15t59 -41h2v97h-67v78h67v71h130zM170 250q0 -32 4.5 -60t15.5 -48.5t29.5 -32.5t47.5 -12
q32 0 55.5 11t34.5 21v242q-11 9 -34.5 20t-55.5 11q-29 0 -47.5 -12t-29.5 -32.5t-15.5 -48t-4.5 -59.5z" />
    <glyph glyph-name="Emacron" unicode="&#x112;" horiz-adv-x="570" 
d="M427 835v-93h-265v93h265zM537 680v-168h-107v60h-220v-167h277v-108h-277v-190h220v60h107v-167h-522v107h57v465h-57v108h522z" />
    <glyph glyph-name="emacron" unicode="&#x113;" horiz-adv-x="530" 
d="M170 222q3 -57 37.5 -91t103.5 -34q32 0 69.5 3t86.5 17l15 -103q-50 -14 -95.5 -19t-94.5 -5q-72 0 -121.5 18.5t-80.5 52.5t-44.5 82t-13.5 107t13.5 107t44 82t80 52.5t120.5 18.5q81 0 126 -25.5t65.5 -66t21.5 -92.5t-7 -104h-326zM282 410q-54 0 -80.5 -29
t-31.5 -77h198q3 21 1.5 40t-10.5 33.5t-27.5 23.5t-49.5 9zM415 665v-93h-265v93h265z" />
    <glyph glyph-name="Ebreve" unicode="&#x114;" horiz-adv-x="570" 
d="M319 812q36 0 59.5 19t34.5 49h53q-8 -66 -43.5 -104.5t-103.5 -38.5t-103 38.5t-44 104.5h53q11 -30 35 -49t59 -19zM537 680v-168h-107v60h-220v-167h277v-108h-277v-190h220v60h107v-167h-522v107h57v465h-57v108h522z" />
    <glyph glyph-name="ebreve" unicode="&#x115;" horiz-adv-x="530" 
d="M170 222q3 -57 37.5 -91t103.5 -34q32 0 69.5 3t86.5 17l15 -103q-50 -14 -95.5 -19t-94.5 -5q-72 0 -121.5 18.5t-80.5 52.5t-44.5 82t-13.5 107t13.5 107t44 82t80 52.5t120.5 18.5q81 0 126 -25.5t65.5 -66t21.5 -92.5t-7 -104h-326zM282 410q-54 0 -80.5 -29
t-31.5 -77h198q3 21 1.5 40t-10.5 33.5t-27.5 23.5t-49.5 9zM286 642q36 0 59.5 19t34.5 49h53q-8 -66 -43.5 -104.5t-103.5 -38.5t-103 38.5t-44 104.5h53q11 -30 35 -49t59 -19z" />
    <glyph glyph-name="Edotaccent" unicode="&#x116;" horiz-adv-x="570" 
d="M354 870v-130h-115v130h115zM537 680v-168h-107v60h-220v-167h277v-108h-277v-190h220v60h107v-167h-522v107h57v465h-57v108h522z" />
    <glyph glyph-name="edotaccent" unicode="&#x117;" horiz-adv-x="530" 
d="M170 222q3 -57 37.5 -91t103.5 -34q32 0 69.5 3t86.5 17l15 -103q-50 -14 -95.5 -19t-94.5 -5q-72 0 -121.5 18.5t-80.5 52.5t-44.5 82t-13.5 107t13.5 107t44 82t80 52.5t120.5 18.5q81 0 126 -25.5t65.5 -66t21.5 -92.5t-7 -104h-326zM282 410q-54 0 -80.5 -29
t-31.5 -77h198q3 21 1.5 40t-10.5 33.5t-27.5 23.5t-49.5 9zM337 700v-130h-115v130h115z" />
    <glyph glyph-name="Eogonek" unicode="&#x118;" horiz-adv-x="570" 
d="M537 680v-168h-107v60h-220v-167h277v-108h-277v-190h220v60h107v-167q-29 -23 -45 -50t-16 -51q0 -26 15.5 -39.5t43.5 -13.5q14 0 24.5 3.5t21.5 8.5l4 -32q-17 -14 -44 -21.5t-51 -7.5q-45 0 -73 21.5t-28 56.5t22 67t63 58h-459v107h57v465h-57v108h522z" />
    <glyph glyph-name="eogonek" unicode="&#x119;" horiz-adv-x="530" 
d="M530 -160q-17 -14 -44 -21.5t-51 -7.5q-45 0 -73 21.5t-28 56.5q0 29 16 56.5t45 51.5q-26 -4 -50.5 -5.5t-52.5 -1.5q-72 0 -121.5 18.5t-80.5 52.5t-44.5 82t-13.5 107t13.5 107t44 82t80 52.5t120.5 18.5q81 0 126 -25.5t65.5 -66t21.5 -92.5t-7 -104h-322
q2 -57 35 -91t102 -34q32 0 69.5 3t86.5 17l15 -103q-29 -23 -45 -50t-16 -51q0 -26 15.5 -40t43.5 -14q14 0 24.5 3.5t21.5 8.5zM282 410q-54 0 -79 -29t-29 -77h194q3 21 1.5 40t-10.5 33.5t-27.5 23.5t-49.5 9z" />
    <glyph glyph-name="Ecaron" unicode="&#x11a;" horiz-adv-x="570" 
d="M304 801l77 69h70l-108 -140h-79l-108 140h70zM537 680v-168h-107v60h-220v-167h277v-108h-277v-190h220v60h107v-167h-522v107h57v465h-57v108h522z" />
    <glyph glyph-name="ecaron" unicode="&#x11b;" horiz-adv-x="530" 
d="M170 222q3 -57 37.5 -91t103.5 -34q32 0 69.5 3t86.5 17l15 -103q-50 -14 -95.5 -19t-94.5 -5q-72 0 -121.5 18.5t-80.5 52.5t-44.5 82t-13.5 107t13.5 107t44 82t80 52.5t120.5 18.5q81 0 126 -25.5t65.5 -66t21.5 -92.5t-7 -104h-326zM282 410q-54 0 -80.5 -29
t-31.5 -77h198q3 21 1.5 40t-10.5 33.5t-27.5 23.5t-49.5 9zM282 631l77 69h70l-108 -140h-79l-108 140h70z" />
    <glyph glyph-name="Gcircumflex" unicode="&#x11c;" horiz-adv-x="620" 
d="M283 730h-70l108 140h79l108 -140h-70l-77 69zM177 345q0 -54 9.5 -98t29.5 -75.5t52.5 -49t77.5 -17.5q26 0 50 5t46 13v119h-105v108h243v-313q-63 -23 -120 -35t-125 -12q-88 0 -146 28t-93 76.5t-49.5 113t-14.5 137.5q0 72 13.5 135t48 109.5t93 73.5t148.5 27
q61 0 118 -8.5t127 -29.5v-160h-108v77q-41 8 -69 10.5t-57 2.5q-47 0 -79.5 -18t-52.5 -50t-28.5 -75t-8.5 -94z" />
    <glyph glyph-name="gcircumflex" unicode="&#x11d;" horiz-adv-x="555" 
d="M131 -58q0 -20 10 -32t27 -19t39.5 -9.5t48.5 -2.5q27 0 52 3.5t44.5 12t31.5 21.5t12 32q0 18 -14 31t-47 15l-170 10q-14 -14 -24 -26.5t-10 -35.5zM265 261q37 0 60.5 18.5t23.5 60.5t-24 61.5t-60 19.5q-40 0 -62.5 -19.5t-22.5 -61.5t23.5 -60.5t61.5 -18.5zM98 24
q-24 15 -33.5 37.5t-4.5 47t23.5 48t51.5 41.5v2q-38 19 -59.5 55.5t-21.5 84.5q0 86 57.5 128t153.5 42q20 0 39 -2.5t33 -7.5h185v-78h-80v-1q17 -15 23 -36t6 -45q0 -44 -15.5 -75.5t-43 -52t-65 -30.5t-82.5 -10q-14 0 -30.5 2.5t-33.5 7.5q-19 -26 -18 -46.5t30 -22.5
l164 -8q77 -3 117 -38t40 -95q0 -93 -72.5 -137.5t-226.5 -44.5q-112 0 -163.5 31.5t-51.5 98.5q0 32 18 57t60 45v2zM202 560h-70l108 140h79l108 -140h-70l-77 69z" />
    <glyph glyph-name="Gbreve" unicode="&#x11e;" horiz-adv-x="620" 
d="M351 812q36 0 59.5 19t34.5 49h53q-8 -66 -43.5 -104.5t-103.5 -38.5t-103 38.5t-44 104.5h53q11 -30 35 -49t59 -19zM177 345q0 -54 9.5 -98t29.5 -75.5t52.5 -49t77.5 -17.5q26 0 50 5t46 13v119h-105v108h243v-313q-63 -23 -120 -35t-125 -12q-88 0 -146 28t-93 76.5
t-49.5 113t-14.5 137.5q0 72 13.5 135t48 109.5t93 73.5t148.5 27q61 0 118 -8.5t127 -29.5v-160h-108v77q-41 8 -69 10.5t-57 2.5q-47 0 -79.5 -18t-52.5 -50t-28.5 -75t-8.5 -94z" />
    <glyph glyph-name="gbreve" unicode="&#x11f;" horiz-adv-x="555" 
d="M131 -58q0 -20 10 -32t27 -19t39.5 -9.5t48.5 -2.5q27 0 52 3.5t44.5 12t31.5 21.5t12 32q0 18 -14 31t-47 15l-170 10q-14 -14 -24 -26.5t-10 -35.5zM265 261q37 0 60.5 18.5t23.5 60.5t-24 61.5t-60 19.5q-40 0 -62.5 -19.5t-22.5 -61.5t23.5 -60.5t61.5 -18.5zM98 24
q-24 15 -33.5 37.5t-4.5 47t23.5 48t51.5 41.5v2q-38 19 -59.5 55.5t-21.5 84.5q0 86 57.5 128t153.5 42q20 0 39 -2.5t33 -7.5h185v-78h-80v-1q17 -15 23 -36t6 -45q0 -44 -15.5 -75.5t-43 -52t-65 -30.5t-82.5 -10q-14 0 -30.5 2.5t-33.5 7.5q-19 -26 -18 -46.5t30 -22.5
l164 -8q77 -3 117 -38t40 -95q0 -93 -72.5 -137.5t-226.5 -44.5q-112 0 -163.5 31.5t-51.5 98.5q0 32 18 57t60 45v2zM286 642q36 0 59.5 19t34.5 49h53q-8 -66 -43.5 -104.5t-103.5 -38.5t-103 38.5t-44 104.5h53q11 -30 35 -49t59 -19z" />
    <glyph glyph-name="Gdotaccent" unicode="&#x120;" horiz-adv-x="620" 
d="M405 870v-130h-115v130h115zM177 345q0 -54 9.5 -98t29.5 -75.5t52.5 -49t77.5 -17.5q26 0 50 5t46 13v119h-105v108h243v-313q-63 -23 -120 -35t-125 -12q-88 0 -146 28t-93 76.5t-49.5 113t-14.5 137.5q0 72 13.5 135t48 109.5t93 73.5t148.5 27q61 0 118 -8.5
t127 -29.5v-160h-108v77q-41 8 -69 10.5t-57 2.5q-47 0 -79.5 -18t-52.5 -50t-28.5 -75t-8.5 -94z" />
    <glyph glyph-name="gdotaccent" unicode="&#x121;" horiz-adv-x="555" 
d="M131 -58q0 -20 10 -32t27 -19t39.5 -9.5t48.5 -2.5q27 0 52 3.5t44.5 12t31.5 21.5t12 32q0 18 -14 31t-47 15l-170 10q-14 -14 -24 -26.5t-10 -35.5zM265 261q37 0 60.5 18.5t23.5 60.5t-24 61.5t-60 19.5q-40 0 -62.5 -19.5t-22.5 -61.5t23.5 -60.5t61.5 -18.5zM98 24
q-24 15 -33.5 37.5t-4.5 47t23.5 48t51.5 41.5v2q-38 19 -59.5 55.5t-21.5 84.5q0 86 57.5 128t153.5 42q20 0 39 -2.5t33 -7.5h185v-78h-80v-1q17 -15 23 -36t6 -45q0 -44 -15.5 -75.5t-43 -52t-65 -30.5t-82.5 -10q-14 0 -30.5 2.5t-33.5 7.5q-19 -26 -18 -46.5t30 -22.5
l164 -8q77 -3 117 -38t40 -95q0 -93 -72.5 -137.5t-226.5 -44.5q-112 0 -163.5 31.5t-51.5 98.5q0 32 18 57t60 45v2zM323 700v-130h-115v130h115z" />
    <glyph glyph-name="Gcommaaccent" unicode="&#x122;" horiz-adv-x="620" 
d="M177 345q0 -54 9.5 -98t29.5 -75.5t52.5 -49t77.5 -17.5q26 0 50 5t46 13v119h-105v108h243v-313q-63 -23 -120 -35t-125 -12q-88 0 -146 28t-93 76.5t-49.5 113t-14.5 137.5q0 72 13.5 135t48 109.5t93 73.5t148.5 27q61 0 118 -8.5t127 -29.5v-160h-108v77
q-41 8 -69 10.5t-57 2.5q-47 0 -79.5 -18t-52.5 -50t-28.5 -75t-8.5 -94zM304 -260l25 102h-53v118h130v-118l-62 -102h-40z" />
    <glyph glyph-name="gcommaaccent" unicode="&#x123;" horiz-adv-x="555" 
d="M131 -58q0 -20 10 -32t27 -19t39.5 -9.5t48.5 -2.5q27 0 52 3.5t44.5 12t31.5 21.5t12 32q0 18 -14 31t-47 15l-170 10q-14 -14 -24 -26.5t-10 -35.5zM265 261q37 0 60.5 18.5t23.5 60.5t-24 61.5t-60 19.5q-40 0 -62.5 -19.5t-22.5 -61.5t23.5 -60.5t61.5 -18.5zM98 24
q-24 15 -33.5 37.5t-4.5 47t23.5 48t51.5 41.5v2q-38 19 -59.5 55.5t-21.5 84.5q0 86 57.5 128t153.5 42q20 0 39 -2.5t33 -7.5h185v-78h-80v-1q17 -15 23 -36t6 -45q0 -44 -15.5 -75.5t-43 -52t-65 -30.5t-82.5 -10q-14 0 -30.5 2.5t-33.5 7.5q-19 -26 -18 -46.5t30 -22.5
l164 -8q77 -3 117 -38t40 -95q0 -93 -72.5 -137.5t-226.5 -44.5q-112 0 -163.5 31.5t-51.5 98.5q0 32 18 57t60 45v2zM307 850l-25 -130h52v-145h-130v145l63 130h40z" />
    <glyph glyph-name="Hcircumflex" unicode="&#x124;" horiz-adv-x="680" 
d="M262 730h-70l108 140h79l108 -140h-70l-77 69zM470 107v190h-260v-190h57v-107h-252v107h57v465h-57v108h252v-108h-57v-167h260v167h-58v108h253v-108h-58v-465h58v-107h-253v107h58z" />
    <glyph glyph-name="hcircumflex" unicode="&#x125;" horiz-adv-x="590" 
d="M337 107h50v205q0 44 -18 67t-62 23q-31 0 -58.5 -13t-46.5 -25v-257h50v-107h-237v107h57v485h-57v108h187v-265h2q32 35 73 55t90 20q75 0 112.5 -45t37.5 -123v-235h58v-107h-238v107zM41 750h-70l108 140h79l108 -140h-70l-77 69z" />
    <glyph glyph-name="Hbar" unicode="&#x126;" horiz-adv-x="680" 
d="M470 107v190h-260v-190h57v-107h-252v107h57v367h-55v40h55v58h-57v108h252v-108h-57v-58h260v58h-58v108h253v-108h-58v-58h55v-40h-55v-367h58v-107h-253v107h58zM470 405v69h-260v-69h260z" />
    <glyph glyph-name="hbar" unicode="&#x127;" horiz-adv-x="590" 
d="M337 107h50v205q0 44 -18 67t-62 23q-31 0 -58.5 -13t-46.5 -25v-257h50v-107h-237v107h57v444h-55v78h55v71h130v-71h68v-78h-68v-116h2q27 29 60 47.5t71 23.5q11 2 22 3t22 0q69 -3 103.5 -48t34.5 -119v-235h58v-107h-238v107z" />
    <glyph glyph-name="Itilde" unicode="&#x128;" horiz-adv-x="282" 
d="M84 772q-17 0 -31 -7t-40 -34l-41 31q26 54 54 76.5t54 22.5q19 0 37 -7t35.5 -15t32.5 -15t28 -7q7 0 14 0.5t15 3.5t16.5 10t19.5 20l33 -39q-18 -38 -38.5 -56.5t-43.5 -22.5q-11 -2 -21 0q-14 1 -30 7.5t-32.5 13.5t-32.5 12.5t-29 5.5zM72 107v465h-57v108h252v-108
h-57v-465h57v-107h-252v107h57z" />
    <glyph glyph-name="itilde" unicode="&#x129;" horiz-adv-x="275" 
d="M15 500h187v-393h58v-107h-245v107h57v285h-57v108zM65 602q-17 0 -31 -7t-40 -34l-41 31q26 54 54 76.5t54 22.5q19 0 37 -7t35.5 -15t32.5 -15t28 -7q7 0 14 0.5t15 3.5t16.5 10t19.5 20l33 -39q-18 -38 -38.5 -56.5t-43.5 -22.5q-11 -2 -21 0q-14 1 -30 7.5
t-32.5 13.5t-32.5 12.5t-29 5.5z" />
    <glyph glyph-name="Imacron" unicode="&#x12a;" horiz-adv-x="282" 
d="M273 835v-93h-265v93h265zM72 107v465h-57v108h252v-108h-57v-465h57v-107h-252v107h57z" />
    <glyph glyph-name="imacron" unicode="&#x12b;" horiz-adv-x="275" 
d="M15 500h187v-393h58v-107h-245v107h57v285h-57v108zM251 665v-93h-265v93h265z" />
    <glyph glyph-name="Ibreve" unicode="&#x12c;" horiz-adv-x="282" 
d="M141 812q36 0 59.5 19t34.5 49h53q-8 -66 -43.5 -104.5t-103.5 -38.5t-103 38.5t-44 104.5h53q11 -30 35 -49t59 -19zM72 107v465h-57v108h252v-108h-57v-465h57v-107h-252v107h57z" />
    <glyph glyph-name="ibreve" unicode="&#x12d;" horiz-adv-x="275" 
d="M15 500h187v-393h58v-107h-245v107h57v285h-57v108zM122 642q36 0 59.5 19t34.5 49h53q-8 -66 -43.5 -104.5t-103.5 -38.5t-103 38.5t-44 104.5h53q11 -30 35 -49t59 -19z" />
    <glyph glyph-name="Iogonek" unicode="&#x12e;" horiz-adv-x="282" 
d="M228 -174q-17 -14 -44 -21.5t-51 -7.5q-45 0 -73.5 21.5t-28.5 56.5t22 67t64 58h-102v107h57v465h-57v108h252v-108h-57v-465h57v-107h-87q-29 -23 -45.5 -50t-16.5 -51q0 -26 15.5 -39.5t43.5 -13.5q14 0 25 3.5t21 8.5z" />
    <glyph glyph-name="iogonek" unicode="&#x12f;" horiz-adv-x="275" 
d="M225 -174q-17 -14 -44 -21.5t-51 -7.5q-45 0 -73 21.5t-28 56.5t22 67t63 58h-99v107h57v285h-57v108h187v-393h58v-107h-83q-29 -23 -45 -50t-16 -51q0 -26 15.5 -39.5t43.5 -13.5q14 0 24.5 3.5t21.5 8.5zM202 700v-138h-130v138h130z" />
    <glyph glyph-name="Idotaccent" unicode="&#x130;" horiz-adv-x="282" 
d="M198 870v-130h-115v130h115zM72 107v465h-57v108h252v-108h-57v-465h57v-107h-252v107h57z" />
    <glyph glyph-name="IJ" unicode="&#x132;" horiz-adv-x="650" 
d="M72 107v465h-57v108h252v-108h-57v-465h57v-107h-252v107h57zM635 680v-108h-58v-391q0 -52 -12.5 -88t-36 -59t-57 -33.5t-74.5 -10.5q-64 0 -106 9l12 107q15 -2 28.5 -3.5t28.5 -1.5q34 0 57 16.5t23 63.5v391h-58v108h253z" />
    <glyph glyph-name="ij" unicode="&#x133;" horiz-adv-x="490" 
d="M15 500h187v-393h58v-107h-245v107h57v285h-57v108zM202 700v-138h-130v138h130zM250 500h197v-561q0 -37 -7 -65t-24.5 -46.5t-48 -28t-77.5 -9.5q-20 0 -43 2t-45 7l12 100q14 -3 25.5 -4t20.5 -1q33 0 45 11t12 43v444h-67v108zM447 700v-138h-130v138h130z" />
    <glyph glyph-name="Jcircumflex" unicode="&#x134;" horiz-adv-x="372" 
d="M153 730h-70l108 140h79l108 -140h-70l-77 69zM357 680v-108h-57v-391q0 -52 -12.5 -88t-36 -59t-57 -33.5t-74.5 -10.5q-64 0 -106 9l11 107q16 -2 29.5 -3.5t27.5 -1.5q34 0 57 16.5t23 63.5v391h-57v108h252z" />
    <glyph glyph-name="jcircumflex" unicode="&#x135;" horiz-adv-x="255" 
d="M15 500h197v-561q0 -37 -7 -65t-24.5 -46.5t-48 -28t-77.5 -9.5q-20 0 -43 2t-45 7l12 100q14 -3 25.5 -4t20.5 -1q33 0 45 11t12 43v444h-67v108zM51 560h-70l108 140h79l108 -140h-70l-77 69z" />
    <glyph glyph-name="Kcommaaccent" unicode="&#x136;" horiz-adv-x="680" 
d="M289 -253l25 102h-53v118h130v-118l-62 -102h-40zM267 680v-108h-57v-227l219 227h-52v108h278v-108h-62l-182 -182l199 -283h55v-107h-285v107h56l-128 188l-98 -97v-91h57v-107h-252v107h57v465h-57v108h252z" />
    <glyph glyph-name="kcommaaccent" unicode="&#x137;" horiz-adv-x="600" 
d="M15 700h187v-432l166 124h-43v108h250v-108h-61l-111 -83l135 -202h47v-107h-250v107h40l-82 132l-91 -70v-62h58v-107h-245v107h57v485h-57v108zM264 -260l25 102h-53v118h130v-118l-62 -102h-40z" />
    <glyph glyph-name="kgreenlandic" unicode="&#x138;" horiz-adv-x="600" 
d="M15 500h187v-232l166 124h-36v108h243v-108h-61l-111 -83l135 -202h47v-107h-250v107h40l-82 132l-91 -70v-62h58v-107h-245v107h57v285h-57v108z" />
    <glyph glyph-name="Lacute" unicode="&#x139;" horiz-adv-x="550" 
d="M175 730h-70l55 140h109zM530 167v-167h-515v107h57v465h-57v108h252v-108h-57v-465h212v60h108z" />
    <glyph glyph-name="lacute" unicode="&#x13a;" horiz-adv-x="290" 
d="M15 700h187v-593h58v-107h-245v107h57v485h-57v108zM170 750h-70l55 140h109z" />
    <glyph glyph-name="Lcommaaccent" unicode="&#x13b;" horiz-adv-x="550" 
d="M251 -254l25 102h-53v118h130v-118l-62 -102h-40zM530 167v-167h-515v107h57v465h-57v108h252v-108h-57v-465h212v60h108z" />
    <glyph glyph-name="lcommaaccent" unicode="&#x13c;" horiz-adv-x="290" 
d="M15 700h187v-593h58v-107h-245v107h57v485h-57v108zM100 -260l25 102h-53v118h130v-118l-62 -102h-40z" />
    <glyph glyph-name="Lcaron" unicode="&#x13d;" horiz-adv-x="550" 
d="M345 460l25 102h-53v118h130v-118l-62 -102h-40zM530 167v-167h-515v107h57v465h-57v108h252v-108h-57v-465h212v60h108z" />
    <glyph glyph-name="lcaron" unicode="&#x13e;" horiz-adv-x="290" 
d="M15 700h187v-593h58v-107h-245v107h57v485h-57v108zM265 610l25 102h-53v118h130v-118l-62 -102h-40z" />
    <glyph glyph-name="Ldot" unicode="&#x13f;" horiz-adv-x="550" 
d="M417 435v-130h-115v130h115zM530 167v-167h-515v107h57v465h-57v108h252v-108h-57v-465h212v60h108z" />
    <glyph glyph-name="ldot" unicode="&#x140;" horiz-adv-x="362" 
d="M15 700h187v-593h58v-107h-245v107h57v485h-57v108zM352 425v-130h-115v130h115z" />
    <glyph glyph-name="Lslash" unicode="&#x141;" horiz-adv-x="550" 
d="M72 350v222h-57v108h252v-108h-57v-182l57 16v-62l-57 -17v-220h212v60h108v-167h-515v107h57v180l-57 -16v63z" />
    <glyph glyph-name="lslash" unicode="&#x142;" horiz-adv-x="290" 
d="M15 700h187v-296l58 17v-62l-58 -18v-234h58v-107h-245v107h57v196l-57 -17v63l57 17v226h-57v108z" />
    <glyph glyph-name="Nacute" unicode="&#x143;" horiz-adv-x="690" 
d="M380 730h-70l55 140h109zM675 680v-108h-58v-572h-141l-275 431h-2v-324h61v-107h-245v107h57v465h-57v108h191l283 -450h2v342h-61v108h245z" />
    <glyph glyph-name="nacute" unicode="&#x144;" horiz-adv-x="590" 
d="M337 107h50v205q0 44 -18 67t-62 23q-31 0 -58.5 -13t-46.5 -25v-257h50v-107h-237v107h57v285h-57v108h187v-65h2q32 35 73 55t90 20q75 0 112.5 -45t37.5 -123v-235h58v-107h-238v107zM320 560h-70l55 140h109z" />
    <glyph glyph-name="Ncommaaccent" unicode="&#x145;" horiz-adv-x="690" 
d="M313 -260l25 102h-53v118h130v-118l-62 -102h-40zM675 680v-108h-58v-572h-141l-275 431h-2v-324h61v-107h-245v107h57v465h-57v108h191l283 -450h2v342h-61v108h245z" />
    <glyph glyph-name="ncommaaccent" unicode="&#x146;" horiz-adv-x="590" 
d="M337 107h50v205q0 44 -18 67t-62 23q-31 0 -58.5 -13t-46.5 -25v-257h50v-107h-237v107h57v285h-57v108h187v-65h2q32 35 73 55t90 20q75 0 112.5 -45t37.5 -123v-235h58v-107h-238v107zM260 -260l25 102h-53v118h130v-118l-62 -102h-40z" />
    <glyph glyph-name="Ncaron" unicode="&#x147;" horiz-adv-x="690" 
d="M350 801l77 69h70l-108 -140h-79l-108 140h70zM675 680v-108h-58v-572h-141l-275 431h-2v-324h61v-107h-245v107h57v465h-57v108h191l283 -450h2v342h-61v108h245z" />
    <glyph glyph-name="ncaron" unicode="&#x148;" horiz-adv-x="590" 
d="M337 107h50v205q0 44 -18 67t-62 23q-31 0 -58.5 -13t-46.5 -25v-257h50v-107h-237v107h57v285h-57v108h187v-65h2q32 35 73 55t90 20q75 0 112.5 -45t37.5 -123v-235h58v-107h-238v107zM297 631l77 69h70l-108 -140h-79l-108 140h70z" />
    <glyph glyph-name="napostrophe" unicode="&#x149;" horiz-adv-x="590" 
d="M337 107h50v205q0 44 -18 67t-62 23q-31 0 -58.5 -13t-46.5 -25v-257h50v-107h-237v107h57v285h-57v108h187v-65h2q32 35 73 55t90 20q75 0 112.5 -45t37.5 -123v-235h58v-107h-238v107zM98 561l25 102h-53v118h130v-118l-62 -102h-40z" />
    <glyph glyph-name="Eng" unicode="&#x14a;" horiz-adv-x="690" 
d="M617 -20q0 -90 -33.5 -133.5t-96.5 -52.5q-11 -2 -23.5 -3t-26.5 -1q-36 0 -61.5 2.5t-44.5 6.5l12 115q15 -3 28.5 -4t28.5 -1q17 0 31.5 3.5t25.5 12.5t17 24t6 38l-21 44l-258 389h-2v-313h61v-107h-245v107h57v465h-57v108h195l279 -435h2v327h-61v108h245v-108h-58
v-592z" />
    <glyph glyph-name="eng" unicode="&#x14b;" horiz-adv-x="560" 
d="M387 312q0 44 -18 67t-62 23q-31 0 -58.5 -13t-46.5 -25v-257h50v-107h-237v107h57v285h-57v108h187v-65h2q32 35 73 55t90 20q75 0 112.5 -45t37.5 -123v-377q0 -40 -7 -72.5t-24.5 -55t-48 -35t-77.5 -12.5q-20 0 -43 2t-45 7l12 100q14 -3 25.5 -4t20.5 -1
q34 0 45.5 18t11.5 53v347z" />
    <glyph glyph-name="Omacron" unicode="&#x14c;" horiz-adv-x="670" 
d="M469 835v-93h-265v93h265zM335 582q-50 0 -81 -18t-48 -50t-23 -75t-6 -94t6 -96t23 -78.5t48 -53.5t81 -20t81 20t48 53.5t22.5 78.5t5.5 96t-5.5 94t-22.5 75t-48 50t-81 18zM335 -10q-90 0 -148.5 28t-93 76.5t-48 113t-13.5 137.5q0 72 13.5 135t48 109.5t93 73.5
t148.5 27t148 -27t92.5 -73.5t48 -109.5t13.5 -135q0 -73 -13.5 -137.5t-48 -113t-92.5 -76.5t-148 -28z" />
    <glyph glyph-name="omacron" unicode="&#x14d;" horiz-adv-x="550" 
d="M275 402q-31 0 -51 -11t-32 -30.5t-17 -48t-5 -62.5q0 -35 5 -63t17 -48t32 -31t51 -11q61 0 83 41.5t22 111.5q0 34 -5 62.5t-17 48t-32 30.5t-51 11zM275 -10q-66 0 -112 18.5t-75.5 52.5t-42.5 82t-13 107t13 107t42.5 82t75.5 52.5t112 18.5t112 -18.5t75 -52.5
t42 -82t13 -107t-13 -107t-42 -82t-75 -52.5t-112 -18.5zM407 665v-93h-265v93h265z" />
    <glyph glyph-name="Obreve" unicode="&#x14e;" horiz-adv-x="670" 
d="M335 812q36 0 59.5 19t34.5 49h53q-8 -66 -43.5 -104.5t-103.5 -38.5t-103 38.5t-44 104.5h53q11 -30 35 -49t59 -19zM335 582q-50 0 -81 -18t-48 -50t-23 -75t-6 -94t6 -96t23 -78.5t48 -53.5t81 -20t81 20t48 53.5t22.5 78.5t5.5 96t-5.5 94t-22.5 75t-48 50t-81 18z
M335 -10q-90 0 -148.5 28t-93 76.5t-48 113t-13.5 137.5q0 72 13.5 135t48 109.5t93 73.5t148.5 27t148 -27t92.5 -73.5t48 -109.5t13.5 -135q0 -73 -13.5 -137.5t-48 -113t-92.5 -76.5t-148 -28z" />
    <glyph glyph-name="obreve" unicode="&#x14f;" horiz-adv-x="550" 
d="M275 402q-31 0 -51 -11t-32 -30.5t-17 -48t-5 -62.5q0 -35 5 -63t17 -48t32 -31t51 -11q61 0 83 41.5t22 111.5q0 34 -5 62.5t-17 48t-32 30.5t-51 11zM275 -10q-66 0 -112 18.5t-75.5 52.5t-42.5 82t-13 107t13 107t42.5 82t75.5 52.5t112 18.5t112 -18.5t75 -52.5
t42 -82t13 -107t-13 -107t-42 -82t-75 -52.5t-112 -18.5zM275 642q36 0 59.5 19t34.5 49h53q-8 -66 -43.5 -104.5t-103.5 -38.5t-103 38.5t-44 104.5h53q11 -30 35 -49t59 -19z" />
    <glyph glyph-name="Ohungarumlaut" unicode="&#x150;" horiz-adv-x="670" 
d="M280 730h-70l55 140h109zM450 730h-70l55 140h109zM335 582q-50 0 -81 -18t-48 -50t-23 -75t-6 -94t6 -96t23 -78.5t48 -53.5t81 -20t81 20t48 53.5t22.5 78.5t5.5 96t-5.5 94t-22.5 75t-48 50t-81 18zM335 -10q-90 0 -148.5 28t-93 76.5t-48 113t-13.5 137.5
q0 72 13.5 135t48 109.5t93 73.5t148.5 27t148 -27t92.5 -73.5t48 -109.5t13.5 -135q0 -73 -13.5 -137.5t-48 -113t-92.5 -76.5t-148 -28z" />
    <glyph glyph-name="ohungarumlaut" unicode="&#x151;" horiz-adv-x="550" 
d="M275 402q-31 0 -51 -11t-32 -30.5t-17 -48t-5 -62.5q0 -35 5 -63t17 -48t32 -31t51 -11q61 0 83 41.5t22 111.5q0 34 -5 62.5t-17 48t-32 30.5t-51 11zM275 -10q-66 0 -112 18.5t-75.5 52.5t-42.5 82t-13 107t13 107t42.5 82t75.5 52.5t112 18.5t112 -18.5t75 -52.5
t42 -82t13 -107t-13 -107t-42 -82t-75 -52.5t-112 -18.5zM215 560h-70l55 140h109zM385 560h-70l55 140h109z" />
    <glyph glyph-name="OE" unicode="&#x152;" horiz-adv-x="997" 
d="M335 582q-50 0 -81 -18t-48 -50t-23 -75t-6 -94t6 -96t23 -78.5t48 -53.5t81 -20t81 20t48 54t22.5 79.5t5.5 97.5q0 50 -6 93t-23 74.5t-48 49t-80 17.5zM471 0v53q-20 -28 -52.5 -45.5t-83.5 -17.5q-90 0 -148.5 28t-93 76.5t-48 113t-13.5 137.5q0 72 13.5 135
t48 109.5t93 73.5t148.5 27q52 0 84.5 -17.5t53.5 -44.5v52h492v-168h-108v60h-220v-167h278v-108h-278v-190h220v60h108v-167h-494z" />
    <glyph glyph-name="oe" unicode="&#x153;" horiz-adv-x="878" 
d="M522 222q3 -57 35.5 -91t101.5 -34q32 0 70 3t86 17l16 -103q-51 -14 -96 -19t-94 -5q-72 0 -118 21t-73 58q-26 -37 -68.5 -58t-106.5 -21q-66 0 -112 18.5t-75.5 52.5t-42.5 82t-13 107t13 107t42.5 82t75.5 52.5t112 18.5q64 0 106.5 -21.5t68.5 -58.5
q27 37 72.5 58.5t115.5 21.5q81 0 126 -25.5t65.5 -66t21.5 -92.5t-7 -104h-322zM275 402q-31 0 -51 -11t-32 -30.5t-17 -48t-5 -62.5q0 -35 5 -63t17 -48t32 -31t51 -11q30 0 50.5 10.5t32.5 30.5t17 48.5t5 63.5q0 34 -5 62.5t-17 48t-32 30.5t-51 11zM631 410
q-55 0 -79.5 -29t-29.5 -77h194q4 21 2.5 40t-11 33.5t-28 23.5t-48.5 9z" />
    <glyph glyph-name="Racute" unicode="&#x154;" horiz-adv-x="650" 
d="M336 730h-70l55 140h109zM362 680q108 0 166.5 -55.5t58.5 -155.5q0 -70 -33.5 -121t-94.5 -68l131 -173h45v-107h-262v107h43l-108 150h-98v-150h57v-107h-252v107h57v465h-57v108h347zM210 365h135q43 0 72 25t29 79q0 51 -27.5 77t-71.5 26h-137v-207z" />
    <glyph glyph-name="racute" unicode="&#x155;" horiz-adv-x="400" 
d="M15 500h187v-80h2q12 17 29.5 33t39 29t48 20.5t56.5 7.5v-123q-51 0 -98 -11.5t-77 -26.5v-242h63v-107h-250v107h57v285h-57v108zM178 560h-70l55 140h109z" />
    <glyph glyph-name="Rcommaaccent" unicode="&#x156;" horiz-adv-x="650" 
d="M286 -254l25 102h-53v118h130v-118l-62 -102h-40zM362 680q108 0 166.5 -55.5t58.5 -155.5q0 -70 -33.5 -121t-94.5 -68l131 -173h45v-107h-262v107h43l-108 150h-98v-150h57v-107h-252v107h57v465h-57v108h347zM210 365h135q43 0 72 25t29 79q0 51 -27.5 77t-71.5 26
h-137v-207z" />
    <glyph glyph-name="rcommaaccent" unicode="&#x157;" horiz-adv-x="400" 
d="M15 500h187v-80h2q12 17 29.5 33t39 29t48 20.5t56.5 7.5v-123q-51 0 -98 -11.5t-77 -26.5v-242h63v-107h-250v107h57v285h-57v108zM100 -260l25 102h-53v118h130v-118l-62 -102h-40z" />
    <glyph glyph-name="Rcaron" unicode="&#x158;" horiz-adv-x="650" 
d="M313 801l77 69h70l-108 -140h-79l-108 140h70zM362 680q108 0 166.5 -55.5t58.5 -155.5q0 -70 -33.5 -121t-94.5 -68l131 -173h45v-107h-262v107h43l-108 150h-98v-150h57v-107h-252v107h57v465h-57v108h347zM210 365h135q43 0 72 25t29 79q0 51 -27.5 77t-71.5 26h-137
v-207z" />
    <glyph glyph-name="rcaron" unicode="&#x159;" horiz-adv-x="400" 
d="M15 500h187v-80h2q12 17 29.5 33t39 29t48 20.5t56.5 7.5v-123q-51 0 -98 -11.5t-77 -26.5v-242h63v-107h-250v107h57v285h-57v108zM207 631l77 69h70l-108 -140h-79l-108 140h70z" />
    <glyph glyph-name="Sacute" unicode="&#x15a;" horiz-adv-x="580" 
d="M326 730h-70l55 140h109zM140 195v-71q48 -11 84.5 -15t65.5 -4q58 0 85 23t27 57q0 24 -13.5 40t-35.5 27t-50 19t-58 16q-44 12 -82.5 31t-67 45t-44.5 60t-16 77q0 51 19.5 87.5t53.5 59t78.5 33t95.5 10.5q59 0 115 -8.5t125 -29.5v-167h-107v75q-45 9 -74.5 12
t-58.5 3q-53 0 -77.5 -20t-24.5 -51q0 -21 12.5 -37t34 -28t49.5 -21t59 -16q44 -10 83 -26t67.5 -40.5t45 -57.5t16.5 -78q0 -54 -20 -94t-54.5 -65.5t-81.5 -38t-101 -12.5q-59 0 -123.5 8.5t-134.5 28.5v168h108z" />
    <glyph glyph-name="sacute" unicode="&#x15b;" horiz-adv-x="480" 
d="M330 347v51q-29 5 -54 6.5t-41 1.5q-23 0 -37.5 -4t-22.5 -10.5t-11.5 -14t-3.5 -13.5q0 -18 16 -29.5t65 -21.5q36 -8 73 -18t68 -27.5t50.5 -45.5t19.5 -71q0 -83 -53 -122t-144 -39q-61 0 -122 6.5t-106 17.5v138h108v-50q32 -6 60 -7t45 -1q24 0 40 5t25 12.5
t13 15.5t4 15q0 19 -20.5 29.5t-65.5 19.5q-42 7 -79.5 18.5t-65.5 31t-44.5 48.5t-16.5 71q0 80 53 115t144 35q62 0 113.5 -6.5t96.5 -17.5v-139h-107zM278 560h-70l55 140h109z" />
    <glyph glyph-name="Scircumflex" unicode="&#x15c;" horiz-adv-x="580" 
d="M221 730h-70l108 140h79l108 -140h-70l-77 69zM140 195v-71q48 -11 84.5 -15t65.5 -4q58 0 85 23t27 57q0 24 -13.5 40t-35.5 27t-50 19t-58 16q-44 12 -82.5 31t-67 45t-44.5 60t-16 77q0 51 19.5 87.5t53.5 59t78.5 33t95.5 10.5q59 0 115 -8.5t125 -29.5v-167h-107v75
q-45 9 -74.5 12t-58.5 3q-53 0 -77.5 -20t-24.5 -51q0 -21 12.5 -37t34 -28t49.5 -21t59 -16q44 -10 83 -26t67.5 -40.5t45 -57.5t16.5 -78q0 -54 -20 -94t-54.5 -65.5t-81.5 -38t-101 -12.5q-59 0 -123.5 8.5t-134.5 28.5v168h108z" />
    <glyph glyph-name="scircumflex" unicode="&#x15d;" horiz-adv-x="480" 
d="M330 347v51q-29 5 -54 6.5t-41 1.5q-23 0 -37.5 -4t-22.5 -10.5t-11.5 -14t-3.5 -13.5q0 -18 16 -29.5t65 -21.5q36 -8 73 -18t68 -27.5t50.5 -45.5t19.5 -71q0 -83 -53 -122t-144 -39q-61 0 -122 6.5t-106 17.5v138h108v-50q32 -6 60 -7t45 -1q24 0 40 5t25 12.5
t13 15.5t4 15q0 19 -20.5 29.5t-65.5 19.5q-42 7 -79.5 18.5t-65.5 31t-44.5 48.5t-16.5 71q0 80 53 115t144 35q62 0 113.5 -6.5t96.5 -17.5v-139h-107zM168 560h-70l108 140h79l108 -140h-70l-77 69z" />
    <glyph glyph-name="Scedilla" unicode="&#x15e;" horiz-adv-x="580" 
d="M255 -9q-52 2 -107.5 10.5t-115.5 25.5v168h108v-71q48 -11 84.5 -15t65.5 -4q58 0 85 23t27 57q0 24 -13.5 40t-35.5 27t-50 19t-58 16q-44 12 -82.5 31t-67 45t-44.5 60t-16 77q0 51 19.5 87.5t53.5 59t78.5 33t95.5 10.5q59 0 115 -8.5t125 -29.5v-167h-107v75
q-45 9 -74.5 12t-58.5 3q-53 0 -77.5 -20t-24.5 -51q0 -21 12.5 -37t34 -28t49.5 -21t59 -16q44 -10 83 -26t67.5 -40.5t45 -57.5t16.5 -78q0 -53 -18.5 -92t-51.5 -64.5t-77.5 -39t-96.5 -14.5v-43q12 -2 26.5 -5.5t27 -12t21 -21.5t8.5 -34q0 -36 -27 -57.5t-75 -21.5
q-18 0 -39.5 3t-41.5 9l7 41q12 -2 23.5 -4t24.5 -2q26 0 37 12t11 27t-12.5 26.5t-38.5 14.5v69z" />
    <glyph glyph-name="scedilla" unicode="&#x15f;" horiz-adv-x="480" 
d="M214 -9q-52 2 -100.5 7.5t-86.5 15.5v138h108v-50q32 -6 60 -7t45 -1q24 0 40 5t25 12.5t13 15.5t4 15q0 19 -20.5 29.5t-65.5 19.5q-42 7 -79.5 18.5t-65.5 31t-44.5 48.5t-16.5 71q0 80 53 115t144 35q62 0 113.5 -6.5t96.5 -17.5v-139h-107v51q-29 5 -54 6.5t-41 1.5
q-23 0 -37.5 -4t-22.5 -10.5t-11.5 -14t-3.5 -13.5q0 -18 16 -29.5t65 -21.5q36 -8 73 -18t68 -27.5t50.5 -45.5t19.5 -71q0 -81 -51 -120t-139 -41v-43q12 -2 26.5 -5.5t27 -12t21 -21.5t8.5 -34q0 -36 -27 -57.5t-75 -21.5q-18 0 -39.5 3t-41.5 9l8 41q12 -2 23 -4t24 -2
q26 0 37 12t11 27t-12.5 26.5t-38.5 14.5v69z" />
    <glyph glyph-name="Scaron" unicode="&#x160;" horiz-adv-x="580" 
d="M290 801l77 69h70l-108 -140h-79l-108 140h70zM140 195v-71q48 -11 84.5 -15t65.5 -4q58 0 85 23t27 57q0 24 -13.5 40t-35.5 27t-50 19t-58 16q-44 12 -82.5 31t-67 45t-44.5 60t-16 77q0 51 19.5 87.5t53.5 59t78.5 33t95.5 10.5q59 0 115 -8.5t125 -29.5v-167h-107v75
q-45 9 -74.5 12t-58.5 3q-53 0 -77.5 -20t-24.5 -51q0 -21 12.5 -37t34 -28t49.5 -21t59 -16q44 -10 83 -26t67.5 -40.5t45 -57.5t16.5 -78q0 -54 -20 -94t-54.5 -65.5t-81.5 -38t-101 -12.5q-59 0 -123.5 8.5t-134.5 28.5v168h108z" />
    <glyph glyph-name="scaron" unicode="&#x161;" horiz-adv-x="480" 
d="M330 347v51q-29 5 -54 6.5t-41 1.5q-23 0 -37.5 -4t-22.5 -10.5t-11.5 -14t-3.5 -13.5q0 -18 16 -29.5t65 -21.5q36 -8 73 -18t68 -27.5t50.5 -45.5t19.5 -71q0 -83 -53 -122t-144 -39q-61 0 -122 6.5t-106 17.5v138h108v-50q32 -6 60 -7t45 -1q24 0 40 5t25 12.5
t13 15.5t4 15q0 19 -20.5 29.5t-65.5 19.5q-42 7 -79.5 18.5t-65.5 31t-44.5 48.5t-16.5 71q0 80 53 115t144 35q62 0 113.5 -6.5t96.5 -17.5v-139h-107zM249 631l77 69h70l-108 -140h-79l-108 140h70z" />
    <glyph glyph-name="Tcommaaccent" unicode="&#x162;" horiz-adv-x="580" 
d="M252 -260l25 102h-53v118h130v-118l-62 -102h-40zM555 680v-168h-108v60h-88v-465h57v-107h-252v107h57v465h-89v-60h-107v168h530z" />
    <glyph glyph-name="tcommaaccent" unicode="&#x163;" horiz-adv-x="375" 
d="M82 407h-67v85l67 8l16 140h114v-140h125v-93h-125v-241q0 -35 16.5 -53.5t56.5 -18.5q9 0 20.5 1t25.5 4l11 -100q-21 -5 -51.5 -7t-50.5 -2q-86 0 -122 36.5t-36 116.5v264zM158 -260l25 102h-53v118h130v-118l-62 -102h-40z" />
    <glyph glyph-name="Tcaron" unicode="&#x164;" horiz-adv-x="580" 
d="M291 801l77 69h70l-108 -140h-79l-108 140h70zM555 680v-168h-108v60h-88v-465h57v-107h-252v107h57v465h-89v-60h-107v168h530z" />
    <glyph glyph-name="tcaron" unicode="&#x165;" horiz-adv-x="375" 
d="M82 407h-67v85l67 8l16 140h114v-140h125v-93h-125v-241q0 -35 16.5 -53.5t56.5 -18.5q9 0 20.5 1t25.5 4l11 -100q-21 -5 -51.5 -7t-50.5 -2q-86 0 -122 36.5t-36 116.5v264zM280 590l25 102h-53v118h130v-118l-62 -102h-40z" />
    <glyph glyph-name="Tbar" unicode="&#x166;" horiz-adv-x="580" 
d="M555 680v-168h-108v60h-88v-223h77v-78h-77v-164h57v-107h-252v107h57v164h-77v78h77v223h-89v-60h-107v168h530z" />
    <glyph glyph-name="tbar" unicode="&#x167;" horiz-adv-x="375" 
d="M22 232v78h60v97h-67v85l67 8l16 140h114v-140h125v-93h-125v-97h115v-78h-115v-66q0 -35 16.5 -53.5t56.5 -18.5q9 0 20.5 1t25.5 4l11 -100q-21 -5 -51.5 -7t-50.5 -2q-86 0 -122 36.5t-36 116.5v89h-60z" />
    <glyph glyph-name="Utilde" unicode="&#x168;" horiz-adv-x="680" 
d="M282 772q-17 0 -31 -7t-40 -34l-41 31q26 54 54 76.5t54 22.5q19 0 37 -7t35.5 -15t32.5 -15t28 -7q7 0 14 0.5t15 3.5t16.5 10t19.5 20l33 -39q-18 -38 -38.5 -56.5t-43.5 -22.5q-11 -2 -21 0q-14 1 -30 7.5t-32.5 13.5t-32.5 12.5t-29 5.5zM665 680v-108h-58v-332
q0 -67 -19 -114.5t-54 -77.5t-84.5 -44t-109.5 -14t-109.5 14t-85 44t-54.5 77.5t-19 114.5v332h-57v108h252v-108h-57v-332q0 -27 5 -53t19.5 -46t40 -32t66.5 -12q39 0 64.5 12t39.5 32t19.5 46t5.5 53v332h-58v108h253z" />
    <glyph glyph-name="utilde" unicode="&#x169;" horiz-adv-x="590" 
d="M15 500h187v-313q0 -43 20 -66.5t60 -23.5q32 0 59 13.5t46 25.5v256h-65v108h195v-393h58v-107h-188v65h-2q-32 -35 -73 -55t-90 -20q-75 0 -112.5 45t-37.5 122v235h-57v108zM236 602q-17 0 -31 -7t-40 -34l-41 31q26 54 54 76.5t54 22.5q19 0 37 -7t35.5 -15t32.5 -15
t28 -7q7 0 14 0.5t15 3.5t16.5 10t19.5 20l33 -39q-18 -38 -38.5 -56.5t-43.5 -22.5q-11 -2 -21 0q-14 1 -30 7.5t-32.5 13.5t-32.5 12.5t-29 5.5z" />
    <glyph glyph-name="Umacron" unicode="&#x16a;" horiz-adv-x="680" 
d="M472 835v-93h-265v93h265zM665 680v-108h-58v-332q0 -67 -19 -114.5t-54 -77.5t-84.5 -44t-109.5 -14t-109.5 14t-85 44t-54.5 77.5t-19 114.5v332h-57v108h252v-108h-57v-332q0 -27 5 -53t19.5 -46t40 -32t66.5 -12q39 0 64.5 12t39.5 32t19.5 46t5.5 53v332h-58v108
h253z" />
    <glyph glyph-name="umacron" unicode="&#x16b;" horiz-adv-x="590" 
d="M15 500h187v-313q0 -43 20 -66.5t60 -23.5q32 0 59 13.5t46 25.5v256h-65v108h195v-393h58v-107h-188v65h-2q-32 -35 -73 -55t-90 -20q-75 0 -112.5 45t-37.5 122v235h-57v108zM417 665v-93h-265v93h265z" />
    <glyph glyph-name="Ubreve" unicode="&#x16c;" horiz-adv-x="680" 
d="M340 812q36 0 59.5 19t34.5 49h53q-8 -66 -43.5 -104.5t-103.5 -38.5t-103 38.5t-44 104.5h53q11 -30 35 -49t59 -19zM665 680v-108h-58v-332q0 -67 -19 -114.5t-54 -77.5t-84.5 -44t-109.5 -14t-109.5 14t-85 44t-54.5 77.5t-19 114.5v332h-57v108h252v-108h-57v-332
q0 -27 5 -53t19.5 -46t40 -32t66.5 -12q39 0 64.5 12t39.5 32t19.5 46t5.5 53v332h-58v108h253z" />
    <glyph glyph-name="ubreve" unicode="&#x16d;" horiz-adv-x="590" 
d="M15 500h187v-313q0 -43 20 -66.5t60 -23.5q32 0 59 13.5t46 25.5v256h-65v108h195v-393h58v-107h-188v65h-2q-32 -35 -73 -55t-90 -20q-75 0 -112.5 45t-37.5 122v235h-57v108zM293 642q36 0 59.5 19t34.5 49h53q-8 -66 -43.5 -104.5t-103.5 -38.5t-103 38.5t-44 104.5
h53q11 -30 35 -49t59 -19z" />
    <glyph glyph-name="Uring" unicode="&#x16e;" horiz-adv-x="680" 
d="M247 820q0 19 7.5 36.5t20 30.5t30 20.5t37.5 7.5q19 0 36.5 -7.5t30.5 -20.5t20.5 -30.5t7.5 -36.5q0 -20 -7.5 -37.5t-20.5 -30t-30.5 -20t-36.5 -7.5q-40 0 -67.5 27.5t-27.5 67.5zM295 820q0 -20 13.5 -33.5t33.5 -13.5t33.5 13.5t13.5 33.5t-13.5 33.5t-33.5 13.5
t-33.5 -13.5t-13.5 -33.5zM665 680v-108h-58v-332q0 -67 -19 -114.5t-54 -77.5t-84.5 -44t-109.5 -14t-109.5 14t-85 44t-54.5 77.5t-19 114.5v332h-57v108h252v-108h-57v-332q0 -27 5 -53t19.5 -46t40 -32t66.5 -12q39 0 64.5 12t39.5 32t19.5 46t5.5 53v332h-58v108h253z
" />
    <glyph glyph-name="uring" unicode="&#x16f;" horiz-adv-x="590" 
d="M15 500h187v-313q0 -43 20 -66.5t60 -23.5q32 0 59 13.5t46 25.5v256h-65v108h195v-393h58v-107h-188v65h-2q-32 -35 -73 -55t-90 -20q-75 0 -112.5 45t-37.5 122v235h-57v108zM200 650q0 19 7.5 36.5t20 30.5t30 20.5t37.5 7.5q19 0 36.5 -7.5t30.5 -20.5t20.5 -30.5
t7.5 -36.5q0 -20 -7.5 -37.5t-20.5 -30t-30.5 -20t-36.5 -7.5q-40 0 -67.5 27.5t-27.5 67.5zM248 650q0 -20 13.5 -33.5t33.5 -13.5t33.5 13.5t13.5 33.5t-13.5 33.5t-33.5 13.5t-33.5 -13.5t-13.5 -33.5z" />
    <glyph glyph-name="Uhungarumlaut" unicode="&#x170;" horiz-adv-x="680" 
d="M284 730h-70l55 140h109zM454 730h-70l55 140h109zM665 680v-108h-58v-332q0 -67 -19 -114.5t-54 -77.5t-84.5 -44t-109.5 -14t-109.5 14t-85 44t-54.5 77.5t-19 114.5v332h-57v108h252v-108h-57v-332q0 -27 5 -53t19.5 -46t40 -32t66.5 -12q39 0 64.5 12t39.5 32
t19.5 46t5.5 53v332h-58v108h253z" />
    <glyph glyph-name="uhungarumlaut" unicode="&#x171;" horiz-adv-x="590" 
d="M15 500h187v-313q0 -43 20 -66.5t60 -23.5q32 0 59 13.5t46 25.5v256h-65v108h195v-393h58v-107h-188v65h-2q-32 -35 -73 -55t-90 -20q-75 0 -112.5 45t-37.5 122v235h-57v108zM241 560h-70l55 140h109zM411 560h-70l55 140h109z" />
    <glyph glyph-name="Uogonek" unicode="&#x172;" horiz-adv-x="680" 
d="M665 680v-108h-58v-332q0 -63 -17 -109t-48.5 -76t-76.5 -45.5t-100 -18.5q-23 -22 -36.5 -46t-13.5 -46q0 -26 15.5 -39.5t43.5 -13.5q14 0 25 3.5t21 8.5l5 -32q-17 -14 -44 -21.5t-51 -7.5q-45 0 -73.5 21.5t-28.5 56.5q0 65 74 117q-107 7 -168.5 66.5t-61.5 181.5
v332h-57v108h252v-108h-57v-332q0 -27 5 -53t19.5 -46t40 -32t66.5 -12q39 0 64.5 12t39.5 32t19.5 46t5.5 53v332h-58v108h253z" />
    <glyph glyph-name="uogonek" unicode="&#x173;" horiz-adv-x="590" 
d="M575 107v-107h-124q-29 -23 -45.5 -50t-16.5 -51q0 -26 15.5 -39.5t43.5 -13.5q14 0 25 3.5t21 8.5l5 -32q-17 -14 -44 -21.5t-51 -7.5q-45 0 -73.5 21.5t-28.5 56.5t22 67t63 58v65h-2q-32 -35 -73 -55t-90 -20q-75 0 -112.5 45t-37.5 122v235h-57v108h187v-313
q0 -43 20 -66.5t60 -23.5q32 0 59 13.5t46 25.5v256h-65v108h195v-393h58z" />
    <glyph glyph-name="Wcircumflex" unicode="&#x174;" horiz-adv-x="980" 
d="M411 730h-70l108 140h79l108 -140h-70l-77 69zM287 680v-108h-69l93 -411h1l116 519h146l123 -519h1l87 411h-70v108h250v-108h-46l-140 -577h-184l-104 434h-2l-97 -434h-183l-147 577h-47v108h272z" />
    <glyph glyph-name="wcircumflex" unicode="&#x175;" horiz-adv-x="810" 
d="M573 500h220v-108h-39l-120 -397h-139l-91 284h-2l-80 -284h-139l-130 397h-38v108h242v-108h-64l72 -252h2l94 360h107l100 -367h2l58 259h-55v108zM334 560h-70l108 140h79l108 -140h-70l-77 69z" />
    <glyph glyph-name="Ycircumflex" unicode="&#x176;" horiz-adv-x="660" 
d="M265 730h-70l108 140h79l108 -140h-70l-77 69zM456 107v-107h-252v107h57v103l-187 362h-59v108h280v-108h-74l119 -235h2l119 235h-74v108h258v-108h-53l-193 -362v-103h57z" />
    <glyph glyph-name="ycircumflex" unicode="&#x177;" horiz-adv-x="580" 
d="M343 500h220v-108h-36l-168 -406q-17 -40 -37.5 -75.5t-47 -62.5t-60 -42.5t-74.5 -15.5q-20 0 -44.5 2t-43.5 7l11 103q12 -2 26 -3.5t22 -1.5q38 0 67 25t43 67l-165 403h-41v108h242v-108h-57l104 -277h2l92 277h-55v108zM224 560h-70l108 140h79l108 -140h-70l-77 69
z" />
    <glyph glyph-name="Ydieresis" unicode="&#x178;" horiz-adv-x="660" 
d="M278 870v-130h-115v130h115zM518 870v-130h-115v130h115zM456 107v-107h-252v107h57v103l-187 362h-59v108h280v-108h-74l119 -235h2l119 235h-74v108h258v-108h-53l-193 -362v-103h57z" />
    <glyph glyph-name="Zacute" unicode="&#x179;" horiz-adv-x="560" 
d="M311 730h-70l55 140h109zM520 680v-100l-321 -471v-2h226v60h107v-167h-502v100l325 470v2h-200v-60h-108v168h473z" />
    <glyph glyph-name="zacute" unicode="&#x17a;" horiz-adv-x="470" 
d="M439 500v-100l-259 -298v-2h165v52h107v-152h-433v100l262 298v2h-146v-53h-108v153h412zM260 560h-70l55 140h109z" />
    <glyph glyph-name="Zdotaccent" unicode="&#x17b;" horiz-adv-x="560" 
d="M334 870v-130h-115v130h115zM520 680v-100l-321 -471v-2h226v60h107v-167h-502v100l325 470v2h-200v-60h-108v168h473z" />
    <glyph glyph-name="zdotaccent" unicode="&#x17c;" horiz-adv-x="470" 
d="M439 500v-100l-259 -298v-2h165v52h107v-152h-433v100l262 298v2h-146v-53h-108v153h412zM294 700v-130h-115v130h115z" />
    <glyph glyph-name="Zcaron" unicode="&#x17d;" horiz-adv-x="560" 
d="M289 801l77 69h70l-108 -140h-79l-108 140h70zM520 680v-100l-321 -471v-2h226v60h107v-167h-502v100l325 470v2h-200v-60h-108v168h473z" />
    <glyph glyph-name="zcaron" unicode="&#x17e;" horiz-adv-x="470" 
d="M439 500v-100l-259 -298v-2h165v52h107v-152h-433v100l262 298v2h-146v-53h-108v153h412zM252 631l77 69h70l-108 -140h-79l-108 140h70z" />
    <glyph glyph-name="longs" unicode="&#x17f;" horiz-adv-x="317" 
d="M82 547q0 80 36 116.5t122 36.5q20 0 43 -2.5t44 -6.5l-11 -100q-14 2 -25.5 3.5t-20.5 1.5q-34 0 -46 -18.5t-12 -53.5v-559q0 -40 -7 -72.5t-24.5 -55t-48 -35t-77.5 -12.5q-20 0 -43 2t-45 7l12 100q14 -3 25.5 -4t20.5 -1q34 0 45.5 18.5t11.5 53.5v581z" />
    <glyph glyph-name="florin" unicode="&#x192;" horiz-adv-x="460" 
d="M157 407h-67v85l67 8v47q0 80 36 116.5t122 36.5q20 0 43 -2.5t44 -6.5l-11 -100q-14 2 -25.5 3.5t-20.5 1.5q-34 0 -46 -18.5t-12 -53.5v-24h110v-93h-110v-442q0 -40 -7 -72.5t-24.5 -55t-48 -35t-77.5 -12.5q-20 0 -43 2t-45 7l12 100q14 -3 25.5 -4t20.5 -1
q34 0 45.5 18.5t11.5 53.5v441z" />
    <glyph glyph-name="Scommaaccent" unicode="&#x218;" horiz-adv-x="580" 
d="M254 -260l25 102h-53v118h130v-118l-62 -102h-40zM140 195v-71q48 -11 84.5 -15t65.5 -4q58 0 85 23t27 57q0 24 -13.5 40t-35.5 27t-50 19t-58 16q-44 12 -82.5 31t-67 45t-44.5 60t-16 77q0 51 19.5 87.5t53.5 59t78.5 33t95.5 10.5q59 0 115 -8.5t125 -29.5v-167h-107
v75q-45 9 -74.5 12t-58.5 3q-53 0 -77.5 -20t-24.5 -51q0 -21 12.5 -37t34 -28t49.5 -21t59 -16q44 -10 83 -26t67.5 -40.5t45 -57.5t16.5 -78q0 -54 -20 -94t-54.5 -65.5t-81.5 -38t-101 -12.5q-59 0 -123.5 8.5t-134.5 28.5v168h108z" />
    <glyph glyph-name="scommaaccent" unicode="&#x219;" horiz-adv-x="480" 
d="M330 347v51q-29 5 -54 6.5t-41 1.5q-23 0 -37.5 -4t-22.5 -10.5t-11.5 -14t-3.5 -13.5q0 -18 16 -29.5t65 -21.5q36 -8 73 -18t68 -27.5t50.5 -45.5t19.5 -71q0 -83 -53 -122t-144 -39q-61 0 -122 6.5t-106 17.5v138h108v-50q32 -6 60 -7t45 -1q24 0 40 5t25 12.5
t13 15.5t4 15q0 19 -20.5 29.5t-65.5 19.5q-42 7 -79.5 18.5t-65.5 31t-44.5 48.5t-16.5 71q0 80 53 115t144 35q62 0 113.5 -6.5t96.5 -17.5v-139h-107zM199 -260l25 102h-53v118h130v-118l-62 -102h-40z" />
    <glyph glyph-name="uni021A" unicode="&#x21a;" horiz-adv-x="580" 
d="M252 -257l25 102h-53v118h130v-118l-62 -102h-40zM555 680v-168h-108v60h-88v-465h57v-107h-252v107h57v465h-89v-60h-107v168h530z" />
    <glyph glyph-name="uni021B" unicode="&#x21b;" horiz-adv-x="375" 
d="M82 407h-67v85l67 8l16 140h114v-140h125v-93h-125v-241q0 -35 16.5 -53.5t56.5 -18.5q9 0 20.5 1t25.5 4l11 -100q-21 -5 -51.5 -7t-50.5 -2q-86 0 -122 36.5t-36 116.5v264zM169 -262l25 102h-53v118h130v-118l-62 -102h-40z" />
    <glyph glyph-name="circumflex" unicode="&#x2c6;" horiz-adv-x="420" 
d="M132 560h-70l108 140h79l108 -140h-70l-77 69z" />
    <glyph glyph-name="caron" unicode="&#x2c7;" horiz-adv-x="420" 
d="M210 631l77 69h70l-108 -140h-79l-108 140h70z" />
    <glyph glyph-name="uni02C9" unicode="&#x2c9;" horiz-adv-x="440" 
d="M382 665v-93h-325v93h325z" />
    <glyph glyph-name="breve" unicode="&#x2d8;" horiz-adv-x="408" 
d="M204 642q36 0 59.5 19t34.5 49h53q-8 -66 -43.5 -104.5t-103.5 -38.5t-103 38.5t-44 104.5h53q11 -30 35 -49t59 -19z" />
    <glyph glyph-name="dotaccent" unicode="&#x2d9;" horiz-adv-x="250" 
d="M177 700v-130h-115v130h115z" />
    <glyph glyph-name="ring" unicode="&#x2da;" horiz-adv-x="300" 
d="M55 650q0 19 7.5 36.5t20 30.5t30 20.5t37.5 7.5q19 0 36.5 -7.5t30.5 -20.5t20.5 -30.5t7.5 -36.5q0 -20 -7.5 -37.5t-20.5 -30t-30.5 -20t-36.5 -7.5q-40 0 -67.5 27.5t-27.5 67.5zM103 650q0 -20 13.5 -33.5t33.5 -13.5t33.5 13.5t13.5 33.5t-13.5 33.5t-33.5 13.5
t-33.5 -13.5t-13.5 -33.5z" />
    <glyph glyph-name="ogonek" unicode="&#x2db;" horiz-adv-x="314" 
d="M258 -174q-17 -14 -44 -21.5t-51 -7.5q-45 0 -73.5 21.5t-28.5 56.5t22 67t64 58h63q-29 -23 -45.5 -50t-16.5 -51q0 -26 15.5 -39.5t43.5 -13.5q14 0 25 3.5t21 8.5z" />
    <glyph glyph-name="tilde" unicode="&#x2dc;" horiz-adv-x="450" 
d="M168 602q-17 0 -31 -7t-40 -34l-41 31q26 54 54 76.5t54 22.5q19 0 37 -7t35.5 -15t32.5 -15t28 -7q7 0 14 0.5t15 3.5t16.5 10t19.5 20l33 -39q-18 -38 -38.5 -56.5t-43.5 -22.5q-11 -2 -21 0q-14 1 -30 7.5t-32.5 13.5t-32.5 12.5t-29 5.5z" />
    <glyph glyph-name="hungarumlaut" unicode="&#x2dd;" horiz-adv-x="460" 
d="M129 560h-70l55 140h109zM299 560h-70l55 140h109z" />
    <glyph glyph-name="mu" unicode="&#x3bc;" horiz-adv-x="590" 
d="M15 500h187v-313q0 -43 20 -66.5t60 -23.5q32 0 59 13.5t46 25.5v256h-65v108h195v-393h58v-107h-188v65h-2q-20 -21 -44 -36.5t-51 -22.5q-52 -13 -88 6v-37q0 -41 -6 -74t-22 -57t-44.5 -38t-73.5 -15q-16 -1 -34 0q-31 1 -65 8l12 100q14 -3 25.5 -4t20.5 -1
q34 0 45.5 18.5t11.5 53.5v426h-57v108z" />
    <glyph glyph-name="pi" unicode="&#x3c0;" horiz-adv-x="590" 
d="M387 107v285h-185v-285h50v-107h-237v107h57v285h-57v108h560v-108h-58v-285h58v-107h-238v107h50z" />
    <glyph glyph-name="Wgrave" unicode="&#x1e80;" horiz-adv-x="980" 
d="M372 870h109l55 -140h-70zM287 680v-108h-69l93 -411h1l116 519h146l123 -519h1l87 411h-70v108h250v-108h-46l-140 -577h-184l-104 434h-2l-97 -434h-183l-147 577h-47v108h272z" />
    <glyph glyph-name="wgrave" unicode="&#x1e81;" horiz-adv-x="810" 
d="M573 500h220v-108h-39l-120 -397h-139l-91 284h-2l-80 -284h-139l-130 397h-38v108h242v-108h-64l72 -252h2l94 360h107l100 -367h2l58 259h-55v108zM279 700h109l55 -140h-70z" />
    <glyph glyph-name="Wacute" unicode="&#x1e82;" horiz-adv-x="980" 
d="M530 730h-70l55 140h109zM287 680v-108h-69l93 -411h1l116 519h146l123 -519h1l87 411h-70v108h250v-108h-46l-140 -577h-184l-104 434h-2l-97 -434h-183l-147 577h-47v108h272z" />
    <glyph glyph-name="wacute" unicode="&#x1e83;" horiz-adv-x="810" 
d="M573 500h220v-108h-39l-120 -397h-139l-91 284h-2l-80 -284h-139l-130 397h-38v108h242v-108h-64l72 -252h2l94 360h107l100 -367h2l58 259h-55v108zM450 558h-70l55 140h109z" />
    <glyph glyph-name="Wdieresis" unicode="&#x1e84;" horiz-adv-x="980" 
d="M437 870v-130h-115v130h115zM677 870v-130h-115v130h115zM287 680v-108h-69l93 -411h1l116 519h146l123 -519h1l87 411h-70v108h250v-108h-46l-140 -577h-184l-104 434h-2l-97 -434h-183l-147 577h-47v108h272z" />
    <glyph glyph-name="wdieresis" unicode="&#x1e85;" horiz-adv-x="810" 
d="M573 500h220v-108h-39l-120 -397h-139l-91 284h-2l-80 -284h-139l-130 397h-38v108h242v-108h-64l72 -252h2l94 360h107l100 -367h2l58 259h-55v108zM349 700v-130h-115v130h115zM589 700v-130h-115v130h115z" />
    <glyph glyph-name="Ygrave" unicode="&#x1ef2;" horiz-adv-x="660" 
d="M216 870h109l55 -140h-70zM456 107v-107h-252v107h57v103l-187 362h-59v108h280v-108h-74l119 -235h2l119 235h-74v108h258v-108h-53l-193 -362v-103h57z" />
    <glyph glyph-name="ygrave" unicode="&#x1ef3;" horiz-adv-x="580" 
d="M343 500h220v-108h-36l-168 -406q-17 -40 -37.5 -75.5t-47 -62.5t-60 -42.5t-74.5 -15.5q-20 0 -44.5 2t-43.5 7l11 103q12 -2 26 -3.5t22 -1.5q38 0 67 25t43 67l-165 403h-41v108h242v-108h-57l104 -277h2l92 277h-55v108zM167 700h109l55 -140h-70z" />
    <glyph glyph-name="figuredash" unicode="&#x2012;" horiz-adv-x="600" 
d="M557 319v-108h-515v108h515z" />
    <glyph glyph-name="endash" unicode="&#x2013;" horiz-adv-x="600" 
d="M557 319v-108h-515v108h515z" />
    <glyph glyph-name="emdash" unicode="&#x2014;" horiz-adv-x="700" 
d="M657 319v-108h-615v108h615z" />
    <glyph glyph-name="quoteleft" unicode="&#x2018;" horiz-adv-x="215" 
d="M145 680l-25 -130h52v-145h-130v145l63 130h40z" />
    <glyph glyph-name="quoteright" unicode="&#x2019;" horiz-adv-x="215" 
d="M70 405l25 130h-53v145h130v-145l-62 -130h-40z" />
    <glyph glyph-name="quotesinglbase" unicode="&#x201a;" horiz-adv-x="215" 
d="M70 -130l25 130h-53v145h130v-145l-62 -130h-40z" />
    <glyph glyph-name="quotedblleft" unicode="&#x201c;" horiz-adv-x="435" 
d="M365 680l-25 -130h52v-145h-130v145l63 130h40zM145 680l-25 -130h52v-145h-130v145l63 130h40z" />
    <glyph glyph-name="quotedblright" unicode="&#x201d;" horiz-adv-x="435" 
d="M70 405l25 130h-53v145h130v-145l-62 -130h-40zM290 405l25 130h-53v145h130v-145l-62 -130h-40z" />
    <glyph glyph-name="quotedblbase" unicode="&#x201e;" horiz-adv-x="435" 
d="M70 -130l25 130h-53v145h130v-145l-62 -130h-40zM290 -130l25 130h-53v145h130v-145l-62 -130h-40z" />
    <glyph glyph-name="dagger" unicode="&#x2020;" horiz-adv-x="580" 
d="M351 385l8 -385h-138l8 385l-187 -8v123l187 -8l-8 208h138l-8 -208l186 8v-123z" />
    <glyph glyph-name="daggerdbl" unicode="&#x2021;" horiz-adv-x="580" 
d="M229 415l-187 -8v123l187 -8l-8 178h138l-8 -178l186 8v-123l-186 8v-130l186 7v-122l-186 7l8 -177h-138l8 177l-187 -7v122l187 -7v130z" />
    <glyph glyph-name="bullet" unicode="&#x2022;" horiz-adv-x="230" 
d="M172 322v-145h-130v145h130z" />
    <glyph glyph-name="onedotenleader" unicode="&#x2024;" horiz-adv-x="215" 
d="M172 145v-145h-130v145h130z" />
    <glyph glyph-name="twodotenleader" unicode="&#x2025;" horiz-adv-x="415" 
d="M172 145v-145h-130v145h130zM372 145v-145h-130v145h130z" />
    <glyph glyph-name="ellipsis" unicode="&#x2026;" horiz-adv-x="655" 
d="M192 145v-145h-130v145h130zM392 145v-145h-130v145h130zM592 145v-145h-130v145h130z" />
    <glyph glyph-name="perthousand" unicode="&#x2030;" horiz-adv-x="1110" 
d="M237 0h-85l370 680h85zM180 389q-70 0 -106.5 39t-36.5 108q0 68 36.5 107t106.5 39q71 0 107 -39t36 -107q0 -69 -36 -108t-107 -39zM180 454q63 0 63 82t-63 82q-62 0 -62 -82t62 -82zM579 -3q-70 0 -106.5 39.5t-36.5 107.5q0 69 36.5 108t106.5 39q71 0 107 -39
t36 -108q0 -68 -36 -107.5t-107 -39.5zM579 62q63 0 63 82t-63 82q-62 0 -62 -82t62 -82zM929 -3q-70 0 -106.5 39.5t-36.5 107.5q0 69 36.5 108t106.5 39q71 0 107 -39t36 -108q0 -68 -36 -107.5t-107 -39.5zM929 62q63 0 63 82t-63 82q-62 0 -62 -82t62 -82z" />
    <glyph glyph-name="guilsinglleft" unicode="&#x2039;" horiz-adv-x="380" 
d="M337 480v-138l-157 -92l157 -93v-137l-295 191v78z" />
    <glyph glyph-name="guilsinglright" unicode="&#x203a;" horiz-adv-x="380" 
d="M337 289v-78l-295 -191v137l158 93l-158 92v138z" />
    <glyph glyph-name="fraction" unicode="&#x2044;" horiz-adv-x="540" 
d="M142 0h-115l370 680h115z" />
    <glyph glyph-name="uni2070" unicode="&#x2070;" horiz-adv-x="284" 
d="M143 828q-17 0 -28 -8.5t-17 -24t-8.5 -36.5t-2.5 -46t2.5 -47.5t8.5 -39t17 -26t28 -9.5q16 0 26.5 9.5t17 26t9 39t2.5 47.5q0 50 -11.5 82.5t-43.5 32.5zM143 535q-39 0 -64 14t-39 38t-19.5 56.5t-5.5 69.5q0 36 5.5 67.5t19.5 54.5t39 36.5t64 13.5q38 0 62.5 -13.5
t38.5 -36.5t19.5 -54.5t5.5 -67.5q0 -37 -5.5 -69.5t-19.5 -56.5t-38.5 -38t-62.5 -14z" />
    <glyph glyph-name="uni2074" unicode="&#x2074;" horiz-adv-x="294" 
d="M168 689v121h-1q-20 -37 -39 -64t-43 -57h83zM168 633h-153v56q42 45 76.5 89.5t60.5 104.5h84v-194h43v-56h-43v-37h28v-56h-124v56h28v37z" />
    <glyph glyph-name="uni2075" unicode="&#x2075;" horiz-adv-x="271" 
d="M244 794h-55v26h-102l-4 -79h1q12 10 28 16t39 6q48 0 76.5 -28t28.5 -83q0 -58 -34.5 -87.5t-95.5 -29.5q-28 0 -53.5 5.5t-57.5 19.5v65h56v-27q25 -7 51 -7q32 0 47 17t15 41q0 19 -12 37.5t-45 18.5q-20 0 -32 -5.5t-24 -16.5l-49 4l7 193h215v-86z" />
    <glyph glyph-name="uni2076" unicode="&#x2076;" horiz-adv-x="274" 
d="M84 733q13 16 31.5 25.5t39.5 9.5q48 0 76 -30.5t28 -87.5q0 -54 -32.5 -84.5t-84.5 -30.5q-34 0 -58 13t-39.5 34.5t-22.5 49.5t-7 58q0 57 12 94.5t32.5 60t48 31.5t57.5 9q24 0 44 -3.5t40 -10.5v-77h-56v33q-5 1 -10.5 1h-12.5q-35 0 -61 -24.5t-26 -69.5zM89 683
q-2 -17 -1 -33.5t6.5 -29.5t15.5 -21t27 -8q21 0 36 15t15 44q0 10 -2.5 20t-8 18.5t-15.5 14t-25 5.5t-26.5 -7t-21.5 -18z" />
    <glyph glyph-name="uni2077" unicode="&#x2077;" horiz-adv-x="253" 
d="M238 880v-48q-18 -31 -35 -63t-32 -68t-27 -75.5t-19 -85.5h-76q6 33 17 69.5t26 73.5t33.5 71.5t38.5 64.5v1h-93v-26h-56v86h223z" />
    <glyph glyph-name="uni2078" unicode="&#x2078;" horiz-adv-x="284" 
d="M202 719q32 -17 49.5 -37t17.5 -49q0 -26 -10.5 -44.5t-28 -30.5t-41 -17.5t-49.5 -5.5q-25 0 -47.5 5t-40 16t-27.5 28t-10 41q0 30 17.5 50.5t49.5 33.5v1q-26 14 -41.5 33.5t-15.5 49.5q0 23 10 40.5t26.5 29t38 17t44.5 5.5q22 0 42.5 -5.5t36.5 -16.5t26 -27.5
t10 -38.5q0 -29 -15 -46t-42 -31v-1zM85 633q0 -18 13.5 -33t46.5 -15q30 0 42 12.5t12 29.5q0 13 -6.5 21.5t-16.5 15t-22 11t-22 8.5q-18 -7 -32.5 -19t-14.5 -31zM140 834q-18 0 -32.5 -10.5t-14.5 -28.5q0 -21 18 -33.5t39 -17.5q17 6 29 17.5t12 29.5q0 20 -14.5 31.5
t-36.5 11.5z" />
    <glyph glyph-name="uni2079" unicode="&#x2079;" horiz-adv-x="274" 
d="M190 687q-12 -16 -31 -25t-40 -9q-48 0 -76 30t-28 87q0 54 33 84.5t86 30.5q34 0 58 -13t39 -34.5t21.5 -49.5t6.5 -58q0 -57 -12 -95t-32.5 -60t-47 -31t-56.5 -9q-25 0 -45.5 3.5t-40.5 10.5v76h57v-32q5 -1 10 -1.5t12 -0.5q17 0 33 6.5t28 18.5t19 29.5t7 40.5z
M185 737q1 16 0.5 32.5t-5.5 29.5t-15.5 21t-27.5 8q-20 0 -35 -14.5t-15 -43.5q0 -10 2 -20t8 -18.5t16 -14t25 -5.5q14 0 25.5 7t21.5 18z" />
    <glyph glyph-name="uni207D" unicode="&#x207d;" horiz-adv-x="163" 
d="M15 710q0 63 22 125t66 115h45q-35 -61 -50 -120t-15 -120q0 -60 15 -118t50 -122h-45q-44 53 -66 115.5t-22 124.5z" />
    <glyph glyph-name="uni207E" unicode="&#x207e;" horiz-adv-x="163" 
d="M148 710q0 -62 -22 -124.5t-66 -115.5h-45q35 64 50 122t15 118q0 61 -15 120t-50 120h45q44 -53 66 -115t22 -125z" />
    <glyph glyph-name="uni207F" unicode="&#x207f;" horiz-adv-x="310" 
d="M175 486h24v99q0 21 -9 32t-30 11q-14 0 -27 -6t-22 -11v-125h24v-56h-120v56h28v137h-28v57h96v-33h1q33 38 80 38q38 0 56.5 -23t18.5 -61v-115h28v-56h-120v56z" />
    <glyph glyph-name="uni2080" unicode="&#x2080;" horiz-adv-x="284" 
d="M143 88q-17 0 -28 -8.5t-17 -24t-8.5 -36.5t-2.5 -46t2.5 -47.5t8.5 -39t17 -26t28 -9.5q16 0 26.5 9.5t17 26t9 39t2.5 47.5q0 50 -11.5 82.5t-43.5 32.5zM143 -205q-39 0 -64 14t-39 38t-19.5 56.5t-5.5 69.5q0 36 5.5 67.5t19.5 54.5t39 36.5t64 13.5q38 0 62.5 -13.5
t38.5 -36.5t19.5 -54.5t5.5 -67.5q0 -37 -5.5 -69.5t-19.5 -56.5t-38.5 -38t-62.5 -14z" />
    <glyph glyph-name="uni2081" unicode="&#x2081;" horiz-adv-x="207" 
d="M192 -144v-56h-176v56h54v220l-54 -2v48l90 21h32v-287h54z" />
    <glyph glyph-name="uni2082" unicode="&#x2082;" horiz-adv-x="273" 
d="M258 -115v-85h-243v65q49 31 79.5 55t48 43.5t24 34.5t6.5 29q0 19 -6.5 30t-15.5 17t-19 7.5t-18 1.5q-19 0 -43 -7v-25h-56v69q32 13 57 19t58 6q58 0 86 -30t28 -73q0 -53 -35 -95t-98 -86v-1h91v25h56z" />
    <glyph glyph-name="uni2083" unicode="&#x2083;" horiz-adv-x="271" 
d="M15 -112h56v-29q14 -5 27.5 -6.5t27.5 -1.5q35 0 47 15.5t12 30.5q0 45 -64 45h-46v56h43q36 0 48 16t12 33q0 15 -12 28t-40 13t-51 -8v-29h-56v69q31 14 61 19.5t59 5.5q44 0 75.5 -23t31.5 -67q0 -29 -15.5 -47.5t-43.5 -29.5v-1q35 -9 52 -32.5t17 -52.5
q0 -47 -33 -72t-93 -25q-32 0 -58 5t-57 19v69z" />
    <glyph glyph-name="uni2084" unicode="&#x2084;" horiz-adv-x="294" 
d="M168 -51v121h-1q-20 -37 -39 -64t-43 -57h83zM168 -107h-153v56q42 45 76.5 89.5t60.5 104.5h84v-194h43v-56h-43v-37h28v-56h-124v56h28v37z" />
    <glyph glyph-name="uni2085" unicode="&#x2085;" horiz-adv-x="271" 
d="M244 54h-55v26h-102l-4 -79h1q12 10 28 16t39 6q48 0 76.5 -28t28.5 -83q0 -58 -34.5 -87.5t-95.5 -29.5q-28 0 -53.5 5.5t-57.5 19.5v65h56v-27q25 -7 51 -7q32 0 47 17t15 41q0 19 -12 37.5t-45 18.5q-20 0 -32 -5.5t-24 -16.5l-49 4l7 193h215v-86z" />
    <glyph glyph-name="uni2086" unicode="&#x2086;" horiz-adv-x="274" 
d="M84 -7q13 16 31.5 25.5t39.5 9.5q48 0 76 -30.5t28 -87.5q0 -54 -32.5 -84.5t-84.5 -30.5q-34 0 -58 13t-39.5 34.5t-22.5 49.5t-7 58q0 57 12 94.5t32.5 60t48 31.5t57.5 9q24 0 44 -3.5t40 -10.5v-77h-56v33q-5 1 -10.5 1h-12.5q-35 0 -61 -24.5t-26 -69.5zM89 -57
q-2 -17 -1 -33.5t6.5 -29.5t15.5 -21t27 -8q21 0 36 15t15 44q0 10 -2.5 20t-8 18.5t-15.5 14t-25 5.5t-26.5 -7t-21.5 -18z" />
    <glyph glyph-name="uni2087" unicode="&#x2087;" horiz-adv-x="253" 
d="M238 140v-48q-18 -31 -35 -63t-32 -68t-27 -75.5t-19 -85.5h-76q6 33 17 69.5t26 73.5t33.5 71.5t38.5 64.5v1h-93v-26h-56v86h223z" />
    <glyph glyph-name="uni2088" unicode="&#x2088;" horiz-adv-x="284" 
d="M202 -21q32 -17 49.5 -37t17.5 -49q0 -26 -10.5 -44.5t-28 -30.5t-41 -17.5t-49.5 -5.5q-25 0 -47.5 5t-40 16t-27.5 28t-10 41q0 30 17.5 50.5t49.5 33.5v1q-26 14 -41.5 33.5t-15.5 49.5q0 23 10 40.5t26.5 29t38 17t44.5 5.5q22 0 42.5 -5.5t36.5 -16.5t26 -27.5
t10 -38.5q0 -29 -15 -46t-42 -31v-1zM85 -107q0 -18 13.5 -33t46.5 -15q30 0 42 12.5t12 29.5q0 13 -6.5 21.5t-16.5 15t-22 11t-22 8.5q-18 -7 -32.5 -19t-14.5 -31zM140 94q-18 0 -32.5 -10.5t-14.5 -28.5q0 -21 18 -33.5t39 -17.5q17 6 29 17.5t12 29.5q0 20 -14.5 31.5
t-36.5 11.5z" />
    <glyph glyph-name="uni2089" unicode="&#x2089;" horiz-adv-x="274" 
d="M190 -53q-12 -16 -31 -25t-40 -9q-48 0 -76 30t-28 87q0 54 33 84.5t86 30.5q34 0 58 -13t39 -34.5t21.5 -49.5t6.5 -58q0 -57 -12 -95t-32.5 -60t-47 -31t-56.5 -9q-25 0 -45.5 3.5t-40.5 10.5v76h57v-32q5 -1 10 -1.5t12 -0.5q17 0 33 6.5t28 18.5t19 29.5t7 40.5z
M185 -3q1 16 0.5 32.5t-5.5 29.5t-15.5 21t-27.5 8q-20 0 -35 -14.5t-15 -43.5q0 -10 2 -20t8 -18.5t16 -14t25 -5.5q14 0 25.5 7t21.5 18z" />
    <glyph glyph-name="uni208D" unicode="&#x208d;" horiz-adv-x="163" 
d="M15 -30q0 63 22 125t66 115h45q-35 -61 -50 -120t-15 -120q0 -60 15 -118t50 -122h-45q-44 53 -66 115.5t-22 124.5z" />
    <glyph glyph-name="uni208E" unicode="&#x208e;" horiz-adv-x="163" 
d="M148 -30q0 -62 -22 -124.5t-66 -115.5h-45q35 64 50 122t15 118q0 61 -15 120t-50 120h45q44 -53 66 -115t22 -125z" />
    <glyph glyph-name="colonmonetary" unicode="&#x20a1;" horiz-adv-x="610" 
d="M580 187v-160q-35 -10 -65.5 -17t-59.5 -11v-99h-55v92q-17 -1 -33 -1.5t-32 -0.5h-13.5t-16.5 2v-92h-55v98q-64 13 -106 45t-67 77.5t-35 103t-10 121.5q0 63 10 118.5t35 100t67 75.5t106 43v98h55v-92q7 1 14.5 1.5t15.5 0.5q32 0 65 -3v93h55v-99q29 -5 59.5 -11.5
t65.5 -17.5v-160h-108v77q-41 8 -69 10.5t-57 2.5q-47 0 -79.5 -18t-52.5 -50t-28.5 -75t-8.5 -94q0 -54 8.5 -99.5t28.5 -78.5t52.5 -51.5t79.5 -18.5q29 0 57 2.5t69 11.5v76h108z" />
    <glyph glyph-name="franc" unicode="&#x20a3;" horiz-adv-x="650" 
d="M74 297q-1 12 -1.5 23.5t-0.5 24.5v18.5t1 18.5h-56v63h63q8 53 27.5 98t54.5 77.5t87 51t126 18.5q61 0 118 -8.5t127 -29.5v-160h-108v77q-41 8 -69 10.5t-57 2.5q-35 0 -61.5 -10t-45 -28.5t-31 -43.5t-19.5 -55h153l-1 -63h-162q-2 -9 -2 -18.5v-18.5q0 -13 0.5 -25
t1.5 -23h163l-1 -62h-151q7 -31 19 -56.5t31 -43.5t45 -28t61 -10q29 0 57 2.5t69 11.5v76h108v-160q-70 -20 -127 -28.5t-118 -8.5q-72 0 -123.5 18.5t-86.5 51t-55 77.5t-29 98h-64v62h57z" />
    <glyph glyph-name="lira" unicode="&#x20a4;" horiz-adv-x="650" 
d="M74 297q-1 12 -1.5 23.5t-0.5 24.5v18.5t1 18.5h-56v63h63q8 53 27.5 98t54.5 77.5t87 51t126 18.5q61 0 118 -8.5t127 -29.5v-160h-108v77q-41 8 -69 10.5t-57 2.5q-35 0 -61.5 -10t-45 -28.5t-31 -43.5t-19.5 -55h153l-1 -63h-162q-2 -9 -2 -18.5v-18.5q0 -13 0.5 -25
t1.5 -23h163l-1 -62h-151q7 -31 19 -56.5t31 -43.5t45 -28t61 -10q29 0 57 2.5t69 11.5v76h108v-160q-70 -20 -127 -28.5t-118 -8.5q-72 0 -123.5 18.5t-86.5 51t-55 77.5t-29 98h-64v62h57z" />
    <glyph glyph-name="peseta" unicode="&#x20a7;" horiz-adv-x="650" 
d="M74 297q-1 12 -1.5 23.5t-0.5 24.5v18.5t1 18.5h-56v63h63q8 53 27.5 98t54.5 77.5t87 51t126 18.5q61 0 118 -8.5t127 -29.5v-160h-108v77q-41 8 -69 10.5t-57 2.5q-35 0 -61.5 -10t-45 -28.5t-31 -43.5t-19.5 -55h153l-1 -63h-162q-2 -9 -2 -18.5v-18.5q0 -13 0.5 -25
t1.5 -23h163l-1 -62h-151q7 -31 19 -56.5t31 -43.5t45 -28t61 -10q29 0 57 2.5t69 11.5v76h108v-160q-70 -20 -127 -28.5t-118 -8.5q-72 0 -123.5 18.5t-86.5 51t-55 77.5t-29 98h-64v62h57z" />
    <glyph glyph-name="Euro" unicode="&#x20ac;" horiz-adv-x="650" 
d="M74 297q-1 12 -1.5 23.5t-0.5 24.5v18.5t1 18.5h-56v63h63q8 53 27.5 98t54.5 77.5t87 51t126 18.5q61 0 118 -8.5t127 -29.5v-160h-108v77q-41 8 -69 10.5t-57 2.5q-35 0 -61.5 -10t-45 -28.5t-31 -43.5t-19.5 -55h153l-1 -63h-162q-2 -9 -2 -18.5v-18.5q0 -13 0.5 -25
t1.5 -23h163l-1 -62h-151q7 -31 19 -56.5t31 -43.5t45 -28t61 -10q29 0 57 2.5t69 11.5v76h108v-160q-70 -20 -127 -28.5t-118 -8.5q-72 0 -123.5 18.5t-86.5 51t-55 77.5t-29 98h-64v62h57z" />
    <glyph glyph-name="afii61289" unicode="&#x2113;" horiz-adv-x="449" 
d="M30 167l94 99v243q0 102 40 151q42 50 100 50q45 0 70.5 -27t25.5 -72q0 -51 -31 -112q-31 -63 -129 -176v-168q0 -75 23 -106q22 -29 60 -29q35 0 64 29q32 29 54 103h18q-21 -83 -68 -127q-37 -35 -89 -35q-44 0 -78 24t-49 66q-11 33 -11 107v52l-82 -83zM200 350
q134 155 134 242q0 43 -19.5 66t-47.5 23q-29 0 -48 -28t-19 -110v-193z" />
    <glyph glyph-name="trademark" unicode="&#x2122;" horiz-adv-x="800" 
d="M318 680v-98h-65v29h-49v-210h37v-65h-152v65h37v210h-49v-29h-65v98h306zM788 680v-65h-38v-214h38v-65h-153v65h33v152h-1l-82 -217h-55l-83 217h-2v-152h36v-65h-143v65h37v214h-37v65h146l81 -214l77 214h146z" />
    <glyph glyph-name="uni2126" unicode="&#x2126;" horiz-adv-x="670" 
d="M335 690q76 0 133 -23.5t94.5 -64t56 -95t18.5 -117.5q0 -40 -10.5 -80t-32 -74.5t-54.5 -60.5t-79 -39v-44h176v-92h-268v191q60 11 91.5 58.5t31.5 140.5q0 41 -8.5 75t-27.5 58.5t-48.5 38t-72.5 13.5t-73 -13.5t-49 -38t-27.5 -58.5t-8.5 -75q0 -93 32 -140.5
t92 -58.5v-191h-269v92h177v44q-46 13 -79.5 39t-55 60.5t-32 74.5t-10.5 80q0 63 18.5 117.5t56.5 95t94.5 64t133.5 23.5z" />
    <glyph glyph-name="estimated" unicode="&#x212e;" horiz-adv-x="736" 
d="M178 349v-235q81 -78 190 -78q163 0 252 157l46 -26q-64 -91 -130 -134q-67 -43 -168 -43q-153 0 -244 103q-94 100 -94 256q0 158 94 259q94 102 244 102q135 0 234 -91q48 -46 74.5 -112.5t29.5 -157.5h-528zM558 397v189q-82 77 -191 77q-110 0 -189 -77v-189h380z
" />
    <glyph glyph-name="onethird" unicode="&#x2153;" horiz-adv-x="800" 
d="M222 0h-40l370 680h40zM242 396v-56h-176v56h54v220l-54 -2v48l90 21h32v-287h54zM494 88h57v-29q23 -8 55 -8q34 0 46.5 15.5t12.5 30.5q0 45 -65 45h-45v56h42q37 0 48.5 16t11.5 33q0 15 -11.5 28t-39.5 13q-14 0 -26.5 -1.5t-24.5 -6.5v-29h-57v69q31 14 61 19.5
t59 5.5q44 0 75.5 -23t31.5 -67q0 -29 -15.5 -47.5t-43.5 -29.5v-1q35 -9 52 -32.5t17 -52.5q0 -47 -33 -72t-92 -25q-32 0 -58.5 5t-57.5 19v69z" />
    <glyph glyph-name="twothirds" unicode="&#x2154;" horiz-adv-x="800" 
d="M242 0h-40l370 680h40zM494 88h57v-29q23 -8 55 -8q34 0 46.5 15.5t12.5 30.5q0 45 -65 45h-45v56h42q37 0 48.5 16t11.5 33q0 15 -11.5 28t-39.5 13q-14 0 -26.5 -1.5t-24.5 -6.5v-29h-57v69q31 14 61 19.5t59 5.5q44 0 75.5 -23t31.5 -67q0 -29 -15.5 -47.5
t-43.5 -29.5v-1q35 -9 52 -32.5t17 -52.5q0 -47 -33 -72t-92 -25q-32 0 -58.5 5t-57.5 19v69zM308 425v-85h-243v65q49 31 79.5 55t48 43.5t24 34.5t6.5 29q0 19 -6.5 30t-15.5 17t-19 7.5t-18 1.5q-19 0 -43 -7v-25h-56v69q32 13 57 19t58 6q58 0 86 -30t28 -73
q0 -53 -35 -95t-98 -86v-1h91v25h56z" />
    <glyph glyph-name="oneeighth" unicode="&#x215b;" horiz-adv-x="800" 
d="M222 0h-40l370 680h40zM242 396v-56h-176v56h54v220l-54 -2v48l90 21h32v-287h54zM667 179q32 -17 50 -37t18 -49q0 -26 -10.5 -44.5t-28 -30.5t-41 -17.5t-49.5 -5.5q-25 0 -48 5t-40 16t-27.5 28t-10.5 41q0 30 17.5 50.5t49.5 33.5v1q-26 14 -41.5 33.5t-15.5 49.5
q0 23 10 40.5t26.5 29t38.5 17t45 5.5q21 0 42 -5.5t37 -16.5t26 -27.5t10 -38.5q0 -29 -15 -46t-43 -31v-1zM551 93q0 -18 13 -33t46 -15q30 0 42.5 12.5t12.5 29.5q0 13 -6.5 21.5t-16.5 15t-22 11t-23 8.5q-18 -7 -32 -19t-14 -31zM606 294q-19 0 -33.5 -10.5
t-14.5 -28.5q0 -21 18.5 -33.5t39.5 -17.5q17 6 29 17.5t12 29.5q0 20 -15 31.5t-36 11.5z" />
    <glyph glyph-name="threeeighths" unicode="&#x215c;" horiz-adv-x="800" 
d="M232 0h-40l370 680h40zM667 179q32 -17 50 -37t18 -49q0 -26 -10.5 -44.5t-28 -30.5t-41 -17.5t-49.5 -5.5q-25 0 -48 5t-40 16t-27.5 28t-10.5 41q0 30 17.5 50.5t49.5 33.5v1q-26 14 -41.5 33.5t-15.5 49.5q0 23 10 40.5t26.5 29t38.5 17t45 5.5q21 0 42 -5.5t37 -16.5
t26 -27.5t10 -38.5q0 -29 -15 -46t-43 -31v-1zM551 93q0 -18 13 -33t46 -15q30 0 42.5 12.5t12.5 29.5q0 13 -6.5 21.5t-16.5 15t-22 11t-23 8.5q-18 -7 -32 -19t-14 -31zM606 294q-19 0 -33.5 -10.5t-14.5 -28.5q0 -21 18.5 -33.5t39.5 -17.5q17 6 29 17.5t12 29.5
q0 20 -15 31.5t-36 11.5zM65 428h56v-29q14 -5 27.5 -6.5t27.5 -1.5q35 0 47 15.5t12 30.5q0 45 -64 45h-46v56h43q36 0 48 16t12 33q0 15 -12 28t-40 13t-51 -8v-29h-56v69q31 14 61 19.5t59 5.5q44 0 75.5 -23t31.5 -67q0 -29 -15.5 -47.5t-43.5 -29.5v-1q35 -9 52 -32.5
t17 -52.5q0 -47 -33 -72t-93 -25q-32 0 -58 5t-57 19v69z" />
    <glyph glyph-name="fiveeighths" unicode="&#x215d;" horiz-adv-x="800" 
d="M232 0h-40l370 680h40zM667 179q32 -17 50 -37t18 -49q0 -26 -10.5 -44.5t-28 -30.5t-41 -17.5t-49.5 -5.5q-25 0 -48 5t-40 16t-27.5 28t-10.5 41q0 30 17.5 50.5t49.5 33.5v1q-26 14 -41.5 33.5t-15.5 49.5q0 23 10 40.5t26.5 29t38.5 17t45 5.5q21 0 42 -5.5t37 -16.5
t26 -27.5t10 -38.5q0 -29 -15 -46t-43 -31v-1zM551 93q0 -18 13 -33t46 -15q30 0 42.5 12.5t12.5 29.5q0 13 -6.5 21.5t-16.5 15t-22 11t-23 8.5q-18 -7 -32 -19t-14 -31zM606 294q-19 0 -33.5 -10.5t-14.5 -28.5q0 -21 18.5 -33.5t39.5 -17.5q17 6 29 17.5t12 29.5
q0 20 -15 31.5t-36 11.5zM294 594h-55v26h-102l-4 -79h1q12 10 28 16t39 6q48 0 76.5 -28t28.5 -83q0 -58 -34.5 -87.5t-95.5 -29.5q-28 0 -53.5 5.5t-57.5 19.5v65h56v-27q25 -7 51 -7q32 0 47 17t15 41q0 19 -12 37.5t-45 18.5q-20 0 -32 -5.5t-24 -16.5l-49 4l7 193h215
v-86z" />
    <glyph glyph-name="seveneighths" unicode="&#x215e;" horiz-adv-x="800" 
d="M189 0h-40l370 680h40zM667 179q32 -17 50 -37t18 -49q0 -26 -10.5 -44.5t-28 -30.5t-41 -17.5t-49.5 -5.5q-25 0 -48 5t-40 16t-27.5 28t-10.5 41q0 30 17.5 50.5t49.5 33.5v1q-26 14 -41.5 33.5t-15.5 49.5q0 23 10 40.5t26.5 29t38.5 17t45 5.5q21 0 42 -5.5t37 -16.5
t26 -27.5t10 -38.5q0 -29 -15 -46t-43 -31v-1zM551 93q0 -18 13 -33t46 -15q30 0 42.5 12.5t12.5 29.5q0 13 -6.5 21.5t-16.5 15t-22 11t-23 8.5q-18 -7 -32 -19t-14 -31zM606 294q-19 0 -33.5 -10.5t-14.5 -28.5q0 -21 18.5 -33.5t39.5 -17.5q17 6 29 17.5t12 29.5
q0 20 -15 31.5t-36 11.5zM288 680v-48q-18 -31 -35 -63t-32 -68t-27 -75.5t-19 -85.5h-76q6 33 17 69.5t26 73.5t33.5 71.5t38.5 64.5v1h-93v-26h-56v86h223z" />
    <glyph glyph-name="partialdiff" unicode="&#x2202;" horiz-adv-x="573" 
d="M413 385q6 44 -2.5 80t-29 62t-51 40.5t-67.5 14.5q-30 0 -63.5 -5t-80.5 -22l-2 100q24 9 45 16t41 11t41.5 6t45.5 2q60 0 111 -18t85.5 -62.5t47.5 -120t-3 -189.5q-8 -60 -29.5 -116t-57.5 -99t-87.5 -69t-119.5 -26q-51 0 -92 15.5t-68 45.5t-38.5 72.5t-3.5 96.5
q16 113 80.5 174t161.5 61q43 0 78 -19.5t56 -51.5zM388 288q-17 23 -39 38.5t-53 15.5q-32 0 -54.5 -11.5t-36.5 -29.5t-21.5 -39.5t-10.5 -41.5q-9 -61 17.5 -92t68.5 -31q36 0 59.5 17t38.5 44t22 61t9 69z" />
    <glyph glyph-name="uni2206" unicode="&#x2206;" horiz-adv-x="628" 
d="M578 0h-528l244 710zM115 55h329l-175 454z" />
    <glyph glyph-name="product" unicode="&#x220f;" horiz-adv-x="680" 
d="M470 107v465h-260v-465h57v-107h-252v107h57v465h-57v108h650v-108h-58v-465h58v-107h-253v107h58z" />
    <glyph glyph-name="summation" unicode="&#x2211;" horiz-adv-x="520" 
d="M490 0h-470v100l158 239l-158 241v100h470v-168h-108v60h-190v-2l158 -230l-158 -231v-2h190v60h108v-167z" />
    <glyph glyph-name="minus" unicode="&#x2212;" horiz-adv-x="500" 
d="M457 319v-108h-415v108h415z" />
    <glyph glyph-name="uni2215" unicode="&#x2215;" horiz-adv-x="540" 
d="M142 0h-115l370 680h115z" />
    <glyph glyph-name="uni2219" unicode="&#x2219;" horiz-adv-x="215" 
d="M172 322v-145h-130v145h130z" />
    <glyph glyph-name="radical" unicode="&#x221a;" horiz-adv-x="800" 
d="M62 390h281l79 -252h2l178 562h138l-242 -705h-158l-116 317h-162v78z" />
    <glyph glyph-name="infinity" unicode="&#x221e;" horiz-adv-x="679" 
d="M179 175q19 0 36 7t31.5 18t25.5 23.5t18 24.5q-8 12 -20 25t-26.5 23.5t-31 17t-31.5 6.5q-39 0 -57 -22t-18 -50q0 -27 16.5 -50t56.5 -23zM335 196q-10 -16 -25.5 -32.5t-37 -30t-47.5 -22.5t-57 -9q-33 0 -59.5 11t-45.5 30.5t-29 46.5t-10 60q0 64 40.5 106
t115.5 42q30 0 53.5 -7.5t43.5 -20.5t36.5 -29.5t31.5 -35.5q12 16 27.5 33t35.5 30t45.5 21.5t57.5 8.5q33 0 59.5 -11t45.5 -30.5t29 -46.5t10 -60q0 -30 -10.5 -57t-30.5 -47t-49 -32t-65 -12q-21 0 -42 4.5t-41.5 15t-41 28.5t-40.5 46zM500 324q-36 0 -65.5 -23.5
t-46.5 -50.5q7 -13 19.5 -26t27.5 -23t31.5 -16t32.5 -6q38 0 56 22t18 50q0 13 -4 26t-12.5 23.5t-22.5 17t-34 6.5z" />
    <glyph glyph-name="integral" unicode="&#x222b;" horiz-adv-x="360" 
d="M115 549q0 80 36 116.5t121 36.5q20 0 43.5 -2t44.5 -6l-12 -100q-14 2 -25 3.5t-21 1.5q-34 0 -45.5 -18.5t-11.5 -53.5v-562q0 -40 -7 -72.5t-25 -55t-48.5 -35t-77.5 -12.5q-20 0 -43 2t-44 7l12 100q14 -3 25 -4t20 -1q34 0 46 18.5t12 53.5v583z" />
    <glyph glyph-name="approxequal" unicode="&#x2248;" horiz-adv-x="500" 
d="M168 342q-15 0 -30 -7t-41 -34l-41 31q26 54 54 76.5t54 22.5q19 0 45 -7t52.5 -15t49.5 -15t36 -7q7 0 14 0.5t15 3.5t16.5 10t19.5 20l33 -39q-18 -38 -38.5 -56.5t-43.5 -22.5q-10 -2 -21 0q-15 1 -39 7.5t-49.5 13.5t-49 12.5t-36.5 5.5zM168 142q-15 0 -30 -7
t-41 -34l-41 31q26 54 54 76.5t54 22.5q19 0 45 -7t52.5 -15t49.5 -15t36 -7q7 0 14 0.5t15 3.5t16.5 10t19.5 20l33 -39q-18 -38 -38.5 -56.5t-43.5 -22.5q-10 -2 -21 0q-15 1 -39 7.5t-49.5 13.5t-49 12.5t-36.5 5.5z" />
    <glyph glyph-name="notequal" unicode="&#x2260;" horiz-adv-x="500" 
d="M197 219l50 92h-205v108h264l101 186h55l-101 -186h96v-108h-155l-50 -92h205v-108h-264l-101 -186h-55l101 186h-96v108h155z" />
    <glyph glyph-name="lessequal" unicode="&#x2264;" horiz-adv-x="480" 
d="M437 500v-93l-257 -100l257 -100v-92l-395 161v63zM437 90v-78h-395v78h395z" />
    <glyph glyph-name="greaterequal" unicode="&#x2265;" horiz-adv-x="480" 
d="M437 339v-63l-395 -161v92l258 100l-258 100v93zM437 90v-78h-395v78h395z" />
    <glyph glyph-name="lozenge" unicode="&#x25ca;" horiz-adv-x="472" 
d="M30 344l199 374h14l199 -374l-199 -374h-14zM236 156l100 188l-100 187l-101 -187z" />
    <glyph glyph-name="uniF66D" unicode="&#xf66d;" horiz-adv-x="637" 
d="M321 722q36 0 59.5 19t34.5 49h53q-8 -66 -43.5 -104.5t-103.5 -38.5t-103 38.5t-44 104.5h53q11 -30 35 -49t59 -19zM413 585l159 -481h50v-104h-250v104h55l-23 73h-175l-26 -73h54v-104h-241v104h56l130 377h-60v104h271zM319 459l-63 -186h124l-59 186h-2z" />
    <glyph glyph-name="uniF66E" unicode="&#xf66e;" horiz-adv-x="637" 
d="M453 745v-93h-265v93h265zM413 585l159 -481h50v-104h-250v104h55l-23 73h-175l-26 -73h54v-104h-241v104h56l130 377h-60v104h271zM319 459l-63 -186h124l-59 186h-2z" />
    <glyph glyph-name="uniF671" unicode="&#xf671;" horiz-adv-x="556" 
d="M528 169v-146q-64 -18 -115.5 -25.5t-106.5 -7.5q-81 0 -134.5 24.5t-85 66t-44 97.5t-12.5 119q0 62 12.5 116.5t44 95t85 63.5t134.5 23q55 0 106.5 -7t115.5 -26v-146h-105v65q-35 6 -58.5 8t-48.5 2q-39 0 -67 -14.5t-45 -40.5t-25 -61.5t-8 -77.5q0 -46 8 -83.5
t25 -64t45 -41t67 -14.5q25 0 48.5 1.5t58.5 9.5v64h105zM355 640h-70l55 140h109z" />
    <glyph glyph-name="uniF672" unicode="&#xf672;" horiz-adv-x="556" 
d="M528 169v-146q-64 -18 -115.5 -25.5t-106.5 -7.5q-81 0 -134.5 24.5t-85 66t-44 97.5t-12.5 119q0 62 12.5 116.5t44 95t85 63.5t134.5 23q55 0 106.5 -7t115.5 -26v-146h-105v65q-35 6 -58.5 8t-48.5 2q-39 0 -67 -14.5t-45 -40.5t-25 -61.5t-8 -77.5q0 -46 8 -83.5
t25 -64t45 -41t67 -14.5q25 0 48.5 1.5t58.5 9.5v64h105zM327 711l77 69h70l-108 -140h-79l-108 140h70z" />
    <glyph glyph-name="uniF673" unicode="&#xf673;" horiz-adv-x="556" 
d="M528 169v-146q-64 -18 -115.5 -25.5t-106.5 -7.5q-81 0 -134.5 24.5t-85 66t-44 97.5t-12.5 119q0 62 12.5 116.5t44 95t85 63.5t134.5 23q55 0 106.5 -7t115.5 -26v-146h-105v65q-35 6 -58.5 8t-48.5 2q-39 0 -67 -14.5t-45 -40.5t-25 -61.5t-8 -77.5q0 -46 8 -83.5
t25 -64t45 -41t67 -14.5q25 0 48.5 1.5t58.5 9.5v64h105zM240 630h-70l108 140h79l108 -140h-70l-77 69z" />
    <glyph glyph-name="uniF674" unicode="&#xf674;" horiz-adv-x="556" 
d="M528 169v-146q-64 -18 -115.5 -25.5t-106.5 -7.5q-81 0 -134.5 24.5t-85 66t-44 97.5t-12.5 119q0 62 12.5 116.5t44 95t85 63.5t134.5 23q55 0 106.5 -7t115.5 -26v-146h-105v65q-35 6 -58.5 8t-48.5 2q-39 0 -67 -14.5t-45 -40.5t-25 -61.5t-8 -77.5q0 -46 8 -83.5
t25 -64t45 -41t67 -14.5q25 0 48.5 1.5t58.5 9.5v64h105zM372 780v-130h-115v130h115z" />
    <glyph glyph-name="uniF675" unicode="&#xf675;" horiz-adv-x="601" 
d="M297 585q80 0 132.5 -21.5t84 -60t44.5 -91.5t13 -115q0 -63 -13 -117.5t-44.5 -94t-84 -62.5t-132.5 -23h-281v104h50v377h-50v104h281zM297 104q41 0 67 14.5t40.5 40t20 61t5.5 77.5t-5.5 76t-20 58t-40.5 37t-67 13h-97v-377h97zM291 711l77 69h70l-108 -140h-79
l-108 140h70z" />
    <glyph glyph-name="uniF677" unicode="&#xf677;" horiz-adv-x="520" 
d="M490 585v-154h-104v50h-186v-128h245v-103h-245v-146h186v50h104v-154h-474v104h50v377h-50v104h474zM273 722q36 0 59.5 19t34.5 49h53q-8 -66 -43.5 -104.5t-103.5 -38.5t-103 38.5t-44 104.5h53q11 -30 35 -49t59 -19z" />
    <glyph glyph-name="uniF678" unicode="&#xf678;" horiz-adv-x="520" 
d="M490 585v-154h-104v50h-186v-128h245v-103h-245v-146h186v50h104v-154h-474v104h50v377h-50v104h474zM270 711l77 69h70l-108 -140h-79l-108 140h70z" />
    <glyph glyph-name="uniF679" unicode="&#xf679;" horiz-adv-x="520" 
d="M490 585v-154h-104v50h-186v-128h245v-103h-245v-146h186v50h104v-154h-474v104h50v377h-50v104h474zM317 780v-130h-115v130h115z" />
    <glyph glyph-name="uniF67A" unicode="&#xf67a;" horiz-adv-x="520" 
d="M490 585v-154h-104v50h-186v-128h245v-103h-245v-146h186v50h104v-154h-474v104h50v377h-50v104h474zM404 745v-93h-265v93h265z" />
    <glyph glyph-name="uniF67D" unicode="&#xf67d;" horiz-adv-x="565" 
d="M171 297q0 -90 34 -143t111 -53q38 0 78 16v82h-88v104h222v-275q-60 -19 -111.5 -28.5t-110.5 -9.5q-80 0 -133.5 24.5t-85 66t-44.5 97.5t-13 119q0 62 12.5 116.5t44 95t85 63.5t134.5 23q55 0 106.5 -7t115.5 -26v-146h-105v65q-35 6 -58.5 8t-48.5 2
q-39 0 -67 -14.5t-45 -40.5t-25 -61.5t-8 -77.5zM319 722q36 0 59.5 19t34.5 49h53q-8 -66 -43.5 -104.5t-103.5 -38.5t-103 38.5t-44 104.5h53q11 -30 35 -49t59 -19z" />
    <glyph glyph-name="uniF67E" unicode="&#xf67e;" horiz-adv-x="565" 
d="M171 297q0 -90 34 -143t111 -53q38 0 78 16v82h-88v104h222v-275q-60 -19 -111.5 -28.5t-110.5 -9.5q-80 0 -133.5 24.5t-85 66t-44.5 97.5t-13 119q0 62 12.5 116.5t44 95t85 63.5t134.5 23q55 0 106.5 -7t115.5 -26v-146h-105v65q-35 6 -58.5 8t-48.5 2
q-39 0 -67 -14.5t-45 -40.5t-25 -61.5t-8 -77.5zM241 630h-70l108 140h79l108 -140h-70l-77 69z" />
    <glyph glyph-name="uniF67F" unicode="&#xf67f;" horiz-adv-x="565" 
d="M171 297q0 -90 34 -143t111 -53q38 0 78 16v82h-88v104h222v-275q-60 -19 -111.5 -28.5t-110.5 -9.5q-80 0 -133.5 24.5t-85 66t-44.5 97.5t-13 119q0 62 12.5 116.5t44 95t85 63.5t134.5 23q55 0 106.5 -7t115.5 -26v-146h-105v65q-35 6 -58.5 8t-48.5 2
q-39 0 -67 -14.5t-45 -40.5t-25 -61.5t-8 -77.5zM276 -260l25 102h-53v118h130v-118l-62 -102h-40z" />
    <glyph glyph-name="uniF680" unicode="&#xf680;" horiz-adv-x="565" 
d="M171 297q0 -90 34 -143t111 -53q38 0 78 16v82h-88v104h222v-275q-60 -19 -111.5 -28.5t-110.5 -9.5q-80 0 -133.5 24.5t-85 66t-44.5 97.5t-13 119q0 62 12.5 116.5t44 95t85 63.5t134.5 23q55 0 106.5 -7t115.5 -26v-146h-105v65q-35 6 -58.5 8t-48.5 2
q-39 0 -67 -14.5t-45 -40.5t-25 -61.5t-8 -77.5zM371 780v-130h-115v130h115z" />
    <glyph glyph-name="uniF682" unicode="&#xf682;" horiz-adv-x="619" 
d="M419 104v146h-219v-146h50v-104h-234v104h50v377h-50v104h234v-104h-50v-128h219v128h-50v104h235v-104h-51v-377h51v-104h-235v104h50zM239 630h-70l108 140h79l108 -140h-70l-77 69z" />
    <glyph glyph-name="uniF683" unicode="&#xf683;" horiz-adv-x="266" 
d="M66 104v377h-50v104h234v-104h-50v-377h50v-104h-234v104h50zM132 722q36 0 59.5 19t34.5 49h53q-8 -66 -43.5 -104.5t-103.5 -38.5t-103 38.5t-44 104.5h53q11 -30 35 -49t59 -19z" />
    <glyph glyph-name="uniF685" unicode="&#xf685;" horiz-adv-x="266" 
d="M66 104v377h-50v104h234v-104h-50v-377h50v-104h-234v104h50zM264 745v-93h-265v93h265z" />
    <glyph glyph-name="uniF687" unicode="&#xf687;" horiz-adv-x="266" 
d="M66 104v377h-50v104h234v-104h-50v-377h50v-104h-234v104h50zM75 682q-17 0 -31 -7t-40 -34l-41 31q26 54 54 76.5t54 22.5q19 0 37 -7t35.5 -15t32.5 -15t28 -7q7 0 14 0.5t15 3.5t16.5 10t19.5 20l33 -39q-18 -38 -38.5 -56.5t-43.5 -22.5q-11 -2 -21 0q-14 1 -30 7.5
t-32.5 13.5t-32.5 12.5t-29 5.5z" />
    <glyph glyph-name="uniF688" unicode="&#xf688;" horiz-adv-x="347" 
d="M331 585v-104h-50v-323q0 -89 -45.5 -128.5t-121.5 -39.5q-60 0 -99 9l11 103q14 -2 25.5 -3t25.5 -1t26.5 2.5t22.5 9t15.5 18t5.5 30.5v323h-50v104h234zM133 630h-70l108 140h79l108 -140h-70l-77 69z" />
    <glyph glyph-name="uniF689" unicode="&#xf689;" horiz-adv-x="619" 
d="M250 585v-104h-50v-180l180 180h-41v104h256v-104h-54l-162 -151l179 -226h46v-104h-263v104h43l-106 139l-78 -76v-63h50v-104h-234v104h50v377h-50v104h234zM263 -260l25 102h-53v118h130v-118l-62 -102h-40z" />
    <glyph glyph-name="uniF68A" unicode="&#xf68a;" horiz-adv-x="502" 
d="M483 154v-154h-467v104h50v377h-50v104h234v-104h-50v-377h178v50h105zM165 640h-70l55 140h109z" />
    <glyph glyph-name="uniF68B" unicode="&#xf68b;" horiz-adv-x="502" 
d="M483 154v-154h-467v104h50v377h-50v104h234v-104h-50v-377h178v50h105zM332 365l25 102h-53v118h130v-118l-62 -102h-40z" />
    <glyph glyph-name="uniF68C" unicode="&#xf68c;" horiz-adv-x="502" 
d="M483 154v-154h-467v104h50v377h-50v104h234v-104h-50v-377h178v50h105zM230 -260l25 102h-53v118h130v-118l-62 -102h-40z" />
    <glyph glyph-name="uniF68D" unicode="&#xf68d;" horiz-adv-x="502" 
d="M483 154v-154h-467v104h50v377h-50v104h234v-104h-50v-377h178v50h105zM399 397v-130h-115v130h115z" />
    <glyph glyph-name="uniF68E" unicode="&#xf68e;" horiz-adv-x="628" 
d="M613 585v-104h-51v-481h-118l-253 356l-2 -7v-245h53v-104h-226v104h50v377h-50v104h162l259 -371l2 8v259h-53v104h227zM363 640h-70l55 140h109z" />
    <glyph glyph-name="uniF68F" unicode="&#xf68f;" horiz-adv-x="628" 
d="M613 585v-104h-51v-481h-118l-253 356l-2 -7v-245h53v-104h-226v104h50v377h-50v104h162l259 -371l2 8v259h-53v104h227zM316 711l77 69h70l-108 -140h-79l-108 140h70z" />
    <glyph glyph-name="uniF690" unicode="&#xf690;" horiz-adv-x="628" 
d="M613 585v-104h-51v-481h-118l-253 356l-2 -7v-245h53v-104h-226v104h50v377h-50v104h162l259 -371l2 8v259h-53v104h227zM276 -260l25 102h-53v118h130v-118l-62 -102h-40z" />
    <glyph glyph-name="uniF691" unicode="&#xf691;" horiz-adv-x="610" 
d="M306 491q-43 0 -69.5 -14.5t-41 -40.5t-19.5 -61.5t-5 -77.5t5 -79t19.5 -64.5t41 -43.5t69.5 -16q42 0 68 16t40.5 43.5t19.5 64.5t5 79t-5 77.5t-19.5 61.5t-40.5 40.5t-68 14.5zM306 -10q-81 0 -134.5 24.5t-85 66t-44 97.5t-12.5 119q0 62 12.5 116.5t44 95t85 63.5
t134.5 23t134 -23t84 -63.5t43.5 -95t12.5 -116.5q0 -63 -12.5 -119t-43.5 -97.5t-84 -66t-134 -24.5zM304 722q36 0 59.5 19t34.5 49h53q-8 -66 -43.5 -104.5t-103.5 -38.5t-103 38.5t-44 104.5h53q11 -30 35 -49t59 -19z" />
    <glyph glyph-name="uniF692" unicode="&#xf692;" horiz-adv-x="610" 
d="M306 491q-43 0 -69.5 -14.5t-41 -40.5t-19.5 -61.5t-5 -77.5t5 -79t19.5 -64.5t41 -43.5t69.5 -16q42 0 68 16t40.5 43.5t19.5 64.5t5 79t-5 77.5t-19.5 61.5t-40.5 40.5t-68 14.5zM306 -10q-81 0 -134.5 24.5t-85 66t-44 97.5t-12.5 119q0 62 12.5 116.5t44 95t85 63.5
t134.5 23t134 -23t84 -63.5t43.5 -95t12.5 -116.5q0 -63 -12.5 -119t-43.5 -97.5t-84 -66t-134 -24.5zM259 640h-70l55 140h109zM429 640h-70l55 140h109z" />
    <glyph glyph-name="uniF693" unicode="&#xf693;" horiz-adv-x="610" 
d="M306 491q-43 0 -69.5 -14.5t-41 -40.5t-19.5 -61.5t-5 -77.5t5 -79t19.5 -64.5t41 -43.5t69.5 -16q42 0 68 16t40.5 43.5t19.5 64.5t5 79t-5 77.5t-19.5 61.5t-40.5 40.5t-68 14.5zM306 -10q-81 0 -134.5 24.5t-85 66t-44 97.5t-12.5 119q0 62 12.5 116.5t44 95t85 63.5
t134.5 23t134 -23t84 -63.5t43.5 -95t12.5 -116.5q0 -63 -12.5 -119t-43.5 -97.5t-84 -66t-134 -24.5zM437 745v-93h-265v93h265z" />
    <glyph glyph-name="uniF695" unicode="&#xf695;" horiz-adv-x="592" 
d="M303 640h-70l55 140h109zM329 585q99 0 152.5 -48t53.5 -137q0 -59 -28.5 -102.5t-81.5 -60.5l112 -133h40v-104h-247v104h51l-89 112h-92v-112h48v-104h-232v104h50v377h-50v104h313zM200 319h113q35 0 59.5 19t24.5 62q0 42 -23.5 61.5t-58.5 19.5h-115v-162z" />
    <glyph glyph-name="uniF696" unicode="&#xf696;" horiz-adv-x="592" 
d="M290 711l77 69h70l-108 -140h-79l-108 140h70zM329 585q99 0 152.5 -48t53.5 -137q0 -59 -28.5 -102.5t-81.5 -60.5l112 -133h40v-104h-247v104h51l-89 112h-92v-112h48v-104h-232v104h50v377h-50v104h313zM200 319h113q35 0 59.5 19t24.5 62q0 42 -23.5 61.5t-58.5 19.5
h-115v-162z" />
    <glyph glyph-name="uniF697" unicode="&#xf697;" horiz-adv-x="592" 
d="M256 -260l25 102h-53v118h130v-118l-62 -102h-40zM329 585q99 0 152.5 -48t53.5 -137q0 -59 -28.5 -102.5t-81.5 -60.5l112 -133h40v-104h-247v104h51l-89 112h-92v-112h48v-104h-232v104h50v377h-50v104h313zM200 319h113q35 0 59.5 19t24.5 62q0 42 -23.5 61.5
t-58.5 19.5h-115v-162z" />
    <glyph glyph-name="uniF698" unicode="&#xf698;" horiz-adv-x="529" 
d="M134 176v-59q42 -8 73.5 -12t57.5 -4q47 0 70 17t23 43q0 18 -11.5 30t-31 20.5t-44.5 15t-52 14.5q-41 11 -75 27.5t-59.5 39t-39.5 52t-14 66.5q0 45 18 77.5t49 52.5t72 29.5t87 9.5q53 0 104 -7t114 -26v-153h-104v64q-38 7 -63.5 9t-50.5 2q-42 0 -63 -15t-21 -39
q0 -15 10.5 -27t28.5 -21t42.5 -16t53.5 -14q40 -9 75 -23.5t61 -35.5t40.5 -50t14.5 -68q0 -48 -18 -83t-49.5 -57.5t-74.5 -33.5t-92 -11q-54 0 -112.5 8t-122.5 26v152h104zM298 640h-70l55 140h109z" />
    <glyph glyph-name="uniF69A" unicode="&#xf69a;" horiz-adv-x="529" 
d="M134 176v-59q42 -8 73.5 -12t57.5 -4q47 0 70 17t23 43q0 18 -11.5 30t-31 20.5t-44.5 15t-52 14.5q-41 11 -75 27.5t-59.5 39t-39.5 52t-14 66.5q0 45 18 77.5t49 52.5t72 29.5t87 9.5q53 0 104 -7t114 -26v-153h-104v64q-38 7 -63.5 9t-50.5 2q-42 0 -63 -15t-21 -39
q0 -15 10.5 -27t28.5 -21t42.5 -16t53.5 -14q40 -9 75 -23.5t61 -35.5t40.5 -50t14.5 -68q0 -48 -18 -83t-49.5 -57.5t-74.5 -33.5t-92 -11q-54 0 -112.5 8t-122.5 26v152h104zM199 630h-70l108 140h79l108 -140h-70l-77 69z" />
    <glyph glyph-name="uniF69B" unicode="&#xf69b;" horiz-adv-x="529" 
d="M134 176v-59q42 -8 73.5 -12t57.5 -4q47 0 70 17t23 43q0 18 -11.5 30t-31 20.5t-44.5 15t-52 14.5q-41 11 -75 27.5t-59.5 39t-39.5 52t-14 66.5q0 45 18 77.5t49 52.5t72 29.5t87 9.5q53 0 104 -7t114 -26v-153h-104v64q-38 7 -63.5 9t-50.5 2q-42 0 -63 -15t-21 -39
q0 -15 10.5 -27t28.5 -21t42.5 -16t53.5 -14q40 -9 75 -23.5t61 -35.5t40.5 -50t14.5 -68q0 -48 -18 -83t-49.5 -57.5t-74.5 -33.5t-92 -11q-54 0 -112.5 8t-122.5 26v152h104zM235 -260l25 102h-53v118h130v-118l-62 -102h-40z" />
    <glyph glyph-name="uniF69D" unicode="&#xf69d;" horiz-adv-x="529" 
d="M507 585v-154h-105v50h-70v-377h49v-104h-233v104h49v377h-69v-50h-106v154h485zM265 711l77 69h70l-108 -140h-79l-108 140h70z" />
    <glyph glyph-name="uniF69E" unicode="&#xf69e;" horiz-adv-x="529" 
d="M507 585v-154h-105v50h-70v-377h49v-104h-233v104h49v377h-69v-50h-106v154h485zM227 -260l25 102h-53v118h130v-118l-62 -102h-40z" />
    <glyph glyph-name="uniF69F" unicode="&#xf69f;" horiz-adv-x="619" 
d="M604 585v-104h-51v-275q0 -58 -17.5 -99t-49.5 -67t-77 -38t-99 -12t-99 12t-77.5 38t-50 67t-17.5 99v275h-50v104h234v-104h-50v-275q0 -23 5 -43.5t17.5 -35.5t34 -24t54.5 -9q32 0 53 9t33 24t17 35.5t5 43.5v275h-50v104h235zM309 722q36 0 59.5 19t34.5 49h53
q-8 -66 -43.5 -104.5t-103.5 -38.5t-103 38.5t-44 104.5h53q11 -30 35 -49t59 -19z" />
    <glyph glyph-name="uniF6A0" unicode="&#xf6a0;" horiz-adv-x="619" 
d="M604 585v-104h-51v-275q0 -58 -17.5 -99t-49.5 -67t-77 -38t-99 -12t-99 12t-77.5 38t-50 67t-17.5 99v275h-50v104h234v-104h-50v-275q0 -23 5 -43.5t17.5 -35.5t34 -24t54.5 -9q32 0 53 9t33 24t17 35.5t5 43.5v275h-50v104h235zM274 640h-70l55 140h109zM444 640h-70
l55 140h109z" />
    <glyph glyph-name="uniF6A1" unicode="&#xf6a1;" horiz-adv-x="619" 
d="M604 585v-104h-51v-275q0 -58 -17.5 -99t-49.5 -67t-77 -38t-99 -12t-99 12t-77.5 38t-50 67t-17.5 99v275h-50v104h234v-104h-50v-275q0 -23 5 -43.5t17.5 -35.5t34 -24t54.5 -9q32 0 53 9t33 24t17 35.5t5 43.5v275h-50v104h235zM442 745v-93h-265v93h265z" />
    <glyph glyph-name="uniF6A3" unicode="&#xf6a3;" horiz-adv-x="619" 
d="M604 585v-104h-51v-275q0 -58 -17.5 -99t-49.5 -67t-77 -38t-99 -12t-99 12t-77.5 38t-50 67t-17.5 99v275h-50v104h234v-104h-50v-275q0 -23 5 -43.5t17.5 -35.5t34 -24t54.5 -9q32 0 53 9t33 24t17 35.5t5 43.5v275h-50v104h235zM215 730q0 19 7.5 36.5t20 30.5
t30 20.5t37.5 7.5q19 0 36.5 -7.5t30.5 -20.5t20.5 -30.5t7.5 -36.5q0 -20 -7.5 -37.5t-20.5 -30t-30.5 -20t-36.5 -7.5q-40 0 -67.5 27.5t-27.5 67.5zM263 730q0 -20 13.5 -33.5t33.5 -13.5t33.5 13.5t13.5 33.5t-13.5 33.5t-33.5 13.5t-33.5 -13.5t-13.5 -33.5z" />
    <glyph glyph-name="uniF6A4" unicode="&#xf6a4;" horiz-adv-x="619" 
d="M604 585v-104h-51v-275q0 -58 -17.5 -99t-49.5 -67t-77 -38t-99 -12t-99 12t-77.5 38t-50 67t-17.5 99v275h-50v104h234v-104h-50v-275q0 -23 5 -43.5t17.5 -35.5t34 -24t54.5 -9q32 0 53 9t33 24t17 35.5t5 43.5v275h-50v104h235zM252 682q-17 0 -31 -7t-40 -34l-41 31
q26 54 54 76.5t54 22.5q19 0 37 -7t35.5 -15t32.5 -15t28 -7q7 0 14 0.5t15 3.5t16.5 10t19.5 20l33 -39q-18 -38 -38.5 -56.5t-43.5 -22.5q-11 -2 -21 0q-14 1 -30 7.5t-32.5 13.5t-32.5 12.5t-29 5.5z" />
    <glyph glyph-name="uniF6A5" unicode="&#xf6a5;" horiz-adv-x="889" 
d="M268 585v-104h-64l82 -326h1l97 430h143l105 -430h1l75 326h-65v104h231v-104h-44l-119 -485h-176l-88 353h-2l-84 -353h-175l-126 485h-44v104h252zM486 640h-70l55 140h109z" />
    <glyph glyph-name="uniF6A6" unicode="&#xf6a6;" horiz-adv-x="889" 
d="M268 585v-104h-64l82 -326h1l97 430h143l105 -430h1l75 326h-65v104h231v-104h-44l-119 -485h-176l-88 353h-2l-84 -353h-175l-126 485h-44v104h252zM367 630h-70l108 140h79l108 -140h-70l-77 69z" />
    <glyph glyph-name="uniF6A7" unicode="&#xf6a7;" horiz-adv-x="889" 
d="M268 585v-104h-64l82 -326h1l97 430h143l105 -430h1l75 326h-65v104h231v-104h-44l-119 -485h-176l-88 353h-2l-84 -353h-175l-126 485h-44v104h252zM382 780v-130h-115v130h115zM622 780v-130h-115v130h115z" />
    <glyph glyph-name="uniF6A8" unicode="&#xf6a8;" horiz-adv-x="889" 
d="M268 585v-104h-64l82 -326h1l97 430h143l105 -430h1l75 326h-65v104h231v-104h-44l-119 -485h-176l-88 353h-2l-84 -353h-175l-126 485h-44v104h252zM318 780h109l55 -140h-70z" />
    <glyph glyph-name="uniF6A9" unicode="&#xf6a9;" horiz-adv-x="601" 
d="M417 104v-104h-233v104h49v77l-167 300h-50v104h260v-104h-60l95 -182h2l90 182h-56v104h239v-104h-48l-170 -300v-77h49zM223 630h-70l108 140h79l108 -140h-70l-77 69z" />
    <glyph glyph-name="uniF6AA" unicode="&#xf6aa;" horiz-adv-x="601" 
d="M417 104v-104h-233v104h49v77l-167 300h-50v104h260v-104h-60l95 -182h2l90 182h-56v104h239v-104h-48l-170 -300v-77h49zM177 780h109l55 -140h-70z" />
    <glyph glyph-name="uniF6AB" unicode="&#xf6ab;" horiz-adv-x="511" 
d="M474 585v-96l-281 -383v-2h187v48h104v-152h-456v96l286 383v2h-165v-49h-104v153h429zM284 640h-70l55 140h109z" />
    <glyph glyph-name="uniF6AC" unicode="&#xf6ac;" horiz-adv-x="511" 
d="M474 585v-96l-281 -383v-2h187v48h104v-152h-456v96l286 383v2h-165v-49h-104v153h429zM313 780v-130h-115v130h115z" />
    <glyph glyph-name="uniF6AD" unicode="&#xf6ad;" horiz-adv-x="266" 
d="M66 104v377h-50v104h234v-104h-50v-377h50v-104h-234v104h50zM189 780v-130h-115v130h115z" />
    <glyph glyph-name="uniF6C9" unicode="&#xf6c9;" horiz-adv-x="290" 
d="M129 730h-70l55 140h109z" />
    <glyph glyph-name="uniF6CA" unicode="&#xf6ca;" horiz-adv-x="420" 
d="M210 801l77 69h70l-108 -140h-79l-108 140h70z" />
    <glyph glyph-name="uniF6CB" unicode="&#xf6cb;" horiz-adv-x="480" 
d="M177 870v-130h-115v130h115zM417 870v-130h-115v130h115z" />
    <glyph glyph-name="uniF6CE" unicode="&#xf6ce;" horiz-adv-x="290" 
d="M66 870h109l55 -140h-70z" />
    <glyph glyph-name="uniF6CF" unicode="&#xf6cf;" horiz-adv-x="460" 
d="M129 730h-70l55 140h109zM299 730h-70l55 140h109z" />
    <glyph glyph-name="uniF6D0" unicode="&#xf6d0;" horiz-adv-x="380" 
d="M322 835v-93h-265v93h265z" />
    <glyph glyph-name="uniF6DD" unicode="&#xf6dd;" horiz-adv-x="1170" 
d="M630 500h187v-50h2q24 26 62 43t79 17q52 0 87 -20.5t56 -56t30 -83t9 -100.5q0 -54 -10 -101t-32.5 -82.5t-59 -56t-88.5 -20.5q-38 0 -73.5 15t-59.5 41h-2v-139h58v-107h-245v107h57v93h-314v107h43l-108 150h-98v-150h57v-107h-252v107h57v465h-57v108h347
q108 0 166.5 -55.5t58.5 -155.5q0 -70 -33.5 -121t-94.5 -68l131 -173h97v285h-57v108zM1005 250q0 32 -4.5 59.5t-15.5 48t-30 32.5t-48 12q-32 0 -55 -11t-35 -20v-242q12 -10 35 -21t55 -11q29 0 48 12t30 32.5t15.5 48.5t4.5 60zM210 365h135q43 0 72 25t29 79
q0 51 -27.5 77t-71.5 26h-137v-207z" />
    <glyph glyph-name="uniF6DE" unicode="&#xf6de;" horiz-adv-x="700" 
d="M657 319v-108h-615v108h615z" />
    <glyph glyph-name="uniF6E9" unicode="&#xf6e9;" horiz-adv-x="278" 
d="M30 603v70q27 5 54.5 8.5t50.5 3.5q48 0 74 -16.5t26 -67.5v-115h28v-56h-97v25h-1q-13 -14 -26 -20.5t-30 -8.5q-5 0 -11 -0.5t-12 -0.5q-29 2 -46 18t-22 40q-3 12 -3 24q1 22 11 36.5t25.5 22.5t33.5 11.5t35 3.5h46v16q0 19 -11.5 25t-35.5 6h-14t-18 -2v-23h-57z
M166 540h-35q-22 0 -35 -6t-13 -26q0 -16 11 -23.5t26 -7.5q14 0 26.5 5t19.5 10v48z" />
    <glyph glyph-name="uniF6EA" unicode="&#xf6ea;" horiz-adv-x="287" 
d="M15 780h96v-125h1q11 14 30 22t39 8q26 0 43.5 -10.5t28 -28t15 -41t4.5 -50.5t-5 -50.5t-16.5 -41t-29.5 -28t-44 -10.5q-18 0 -37 7t-32 21h-1l-13 -23h-79v56h28v237h-28v57zM200 555q0 31 -9.5 52t-36.5 21q-16 0 -27 -4.5t-16 -9.5v-118q5 -5 16 -10t27 -5
q27 0 36.5 21t9.5 53z" />
    <glyph glyph-name="uniF6EB" unicode="&#xf6eb;" horiz-adv-x="287" 
d="M148 780h96v-294h28v-56h-96v25h-1q-11 -13 -30 -21.5t-39 -8.5q-26 0 -43.5 10.5t-28 28t-15 41t-4.5 50.5t5 50.5t16 41t29.5 28t44.5 10.5q18 0 36 -7.5t29 -20.5h1v66h-28v57zM87 555q0 -32 9.5 -53t36.5 -21q16 0 27 5t16 10v118q-5 5 -16 9.5t-27 4.5
q-27 0 -36.5 -21t-9.5 -52z" />
    <glyph glyph-name="uniF6EC" unicode="&#xf6ec;" horiz-adv-x="267" 
d="M89 540q2 -26 18 -42.5t49 -16.5q16 0 34.5 1.5t42.5 8.5l9 -54q-26 -8 -49 -10t-47 -2q-73 0 -102 35.5t-29 94.5q0 60 29 95t101 35q40 0 62.5 -12.5t33 -33t11.5 -46.5t-3 -53h-160zM141 633q-26 0 -38 -14t-14 -37h93q3 20 -4.5 35.5t-36.5 15.5z" />
    <glyph glyph-name="uniF6ED" unicode="&#xf6ed;" horiz-adv-x="154" 
d="M15 680h96v-194h28v-56h-124v56h28v137h-28v57zM111 780v-70h-68v70h68z" />
    <glyph glyph-name="uniF6EE" unicode="&#xf6ee;" horiz-adv-x="154" 
d="M15 780h96v-294h28v-56h-124v56h28v237h-28v57z" />
    <glyph glyph-name="uniF6EF" unicode="&#xf6ef;" horiz-adv-x="460" 
d="M171 486h25v102q-2 40 -39 40q-14 0 -25.5 -6t-20.5 -11v-125h24v-56h-120v56h28v137h-28v57h96v-33h1q11 14 26.5 24t33.5 12q5 1 11 1.5t12 -0.5q23 -1 38 -11.5t23 -28.5q20 22 41 31.5t45 9.5q38 0 56.5 -23t18.5 -61v-115h28v-56h-120v56h24v99q0 43 -39 43
q-14 0 -26 -6t-20 -12v-22v-102h24v-56h-117v56z" />
    <glyph glyph-name="uniF6F0" unicode="&#xf6f0;" horiz-adv-x="274" 
d="M138 628q-30 0 -40.5 -19.5t-10.5 -53.5t10.5 -54t40.5 -20q29 0 39.5 20t10.5 54t-10.5 53.5t-39.5 19.5zM138 425q-68 0 -95.5 35.5t-27.5 94.5t27.5 94.5t95.5 35.5q66 0 93.5 -35t27.5 -95t-27.5 -95t-93.5 -35z" />
    <glyph glyph-name="uniF6F1" unicode="&#xf6f1;" horiz-adv-x="212" 
d="M15 680h96v-40h1q11 17 33 31t52 14v-64q-25 0 -48 -5.5t-38 -13.5v-116h30v-56h-126v56h28v137h-28v57z" />
    <glyph glyph-name="uniF6F2" unicode="&#xf6f2;" horiz-adv-x="245" 
d="M165 603v24q-14 2 -25.5 3t-19.5 1q-21 0 -28 -7t-7 -13q0 -8 7.5 -13t30.5 -11q18 -3 36.5 -8t34.5 -14t26 -23t10 -36q0 -42 -27 -61.5t-73 -19.5q-31 0 -61.5 3t-53.5 9v70h56v-24q16 -2 29.5 -3t21.5 -1q22 0 30.5 8t8.5 14q0 9 -10 13.5t-31 8.5t-40 10t-33.5 16
t-22.5 24.5t-8 35.5q0 42 27 59t73 17q31 0 57 -3.5t49 -8.5v-70h-57z" />
    <glyph glyph-name="uniF6F3" unicode="&#xf6f3;" horiz-adv-x="195" 
d="M48 632h-33v44l33 4l7 70h61v-70h61v-48h-61v-119q0 -34 35 -34q9 0 23 3l6 -53q-11 -2 -26.5 -3t-26.5 -1q-43 0 -61 18.5t-18 57.5v131z" />
    <glyph glyph-name="uniF6F4" unicode="&#xf6f4;" horiz-adv-x="408" 
d="M204 722q36 0 59.5 19t34.5 49h53q-8 -66 -43.5 -104.5t-103.5 -38.5t-103 38.5t-44 104.5h53q11 -30 35 -49t59 -19z" />
    <glyph glyph-name="uniF6F5" unicode="&#xf6f5;" horiz-adv-x="420" 
d="M210 711l77 69h70l-108 -140h-79l-108 140h70z" />
    <glyph glyph-name="uniF6F6" unicode="&#xf6f6;" horiz-adv-x="420" 
d="M132 630h-70l108 140h79l108 -140h-70l-77 69z" />
    <glyph glyph-name="uniF6F7" unicode="&#xf6f7;" horiz-adv-x="250" 
d="M177 780v-130h-115v130h115z" />
    <glyph glyph-name="uniF6F8" unicode="&#xf6f8;" horiz-adv-x="460" 
d="M129 640h-70l55 140h109zM299 640h-70l55 140h109z" />
    <glyph glyph-name="uniF6F9" unicode="&#xf6f9;" horiz-adv-x="502" 
d="M66 301v180h-50v104h234v-104h-50v-142l50 13v-60l-50 -13v-175h178v48h105v-152h-467v104h50v137l-50 -14v61z" />
    <glyph glyph-name="uniF6FA" unicode="&#xf6fa;" horiz-adv-x="901" 
d="M306 489q-43 0 -69.5 -14.5t-41 -40t-19.5 -60.5t-5 -77t5 -79t19.5 -64.5t41 -43t69.5 -15.5q42 0 68 15.5t40.5 43t19.5 64.5t5 80q0 42 -5 77t-19.5 60.5t-40.5 39.5t-68 14zM462 0v57q-32 -32 -74.5 -49.5t-81.5 -17.5q-82 0 -135 24t-84.5 66t-44 98t-12.5 119
q0 62 12.5 116.5t44 95t85 63.5t134.5 23q40 0 83.5 -17t72.5 -49v56h409v-153h-105v49h-186v-128h246v-103h-246v-146h186v48h105v-152h-409z" />
    <glyph glyph-name="uniF6FB" unicode="&#xf6fb;" horiz-adv-x="314" 
d="M258 -174q-17 -14 -44 -21.5t-51 -7.5q-45 0 -73.5 21.5t-28.5 56.5t22 67t64 58h63q-29 -23 -45.5 -50t-16.5 -51q0 -26 15.5 -39.5t43.5 -13.5q14 0 25 3.5t21 8.5z" />
    <glyph glyph-name="uniF6FC" unicode="&#xf6fc;" horiz-adv-x="300" 
d="M55 730q0 19 7.5 36.5t20 30.5t30 20.5t37.5 7.5q19 0 36.5 -7.5t30.5 -20.5t20.5 -30.5t7.5 -36.5q0 -20 -7.5 -37.5t-20.5 -30t-30.5 -20t-36.5 -7.5q-40 0 -67.5 27.5t-27.5 67.5zM103 730q0 -20 13.5 -33.5t33.5 -13.5t33.5 13.5t13.5 33.5t-13.5 33.5t-33.5 13.5
t-33.5 -13.5t-13.5 -33.5z" />
    <glyph glyph-name="uniF6FD" unicode="&#xf6fd;" horiz-adv-x="529" 
d="M134 176v-59q42 -8 73.5 -12t57.5 -4q47 0 70 17t23 43q0 18 -11.5 30t-31 20.5t-44.5 15t-52 14.5q-41 11 -75 27.5t-59.5 39t-39.5 52t-14 66.5q0 45 18 77.5t49 52.5t72 29.5t87 9.5q53 0 104 -7t114 -26v-153h-104v64q-38 7 -63.5 9t-50.5 2q-42 0 -63 -15t-21 -39
q0 -15 10.5 -27t28.5 -21t42.5 -16t53.5 -14q40 -9 75 -23.5t61 -35.5t40.5 -50t14.5 -68q0 -48 -18 -83t-49.5 -57.5t-74.5 -33.5t-92 -11q-54 0 -112.5 8t-122.5 26v152h104zM270 711l77 69h70l-108 -140h-79l-108 140h70z" />
    <glyph glyph-name="uniF6FE" unicode="&#xf6fe;" horiz-adv-x="450" 
d="M168 682q-17 0 -31 -7t-40 -34l-41 31q26 54 54 76.5t54 22.5q19 0 37 -7t35.5 -15t32.5 -15t28 -7q7 0 14 0.5t15 3.5t16.5 10t19.5 20l33 -39q-18 -38 -38.5 -56.5t-43.5 -22.5q-11 -2 -21 0q-14 1 -30 7.5t-32.5 13.5t-32.5 12.5t-29 5.5z" />
    <glyph glyph-name="uniF6FF" unicode="&#xf6ff;" horiz-adv-x="511" 
d="M474 585v-96l-281 -383v-2h187v48h104v-152h-456v96l286 383v2h-165v-49h-104v153h429zM256 711l77 69h70l-108 -140h-79l-108 140h70z" />
    <glyph glyph-name="uniF721" unicode="&#xf721;" horiz-adv-x="215" 
d="M172 145v-145h-130v145h130zM172 600l-7 -380h-115l-8 380h130z" />
    <glyph glyph-name="uniF724" unicode="&#xf724;" horiz-adv-x="510" 
d="M220 -130v100h70v-100h-70zM220 530v100h70v-100h-70zM334 347v51q-30 5 -54.5 6.5t-40.5 1.5q-23 0 -37.5 -4t-22.5 -10.5t-11.5 -14t-3.5 -13.5q0 -18 16 -29.5t65 -21.5q35 -8 72.5 -18t68 -27.5t50.5 -45.5t20 -71q0 -83 -53 -122t-144 -39q-62 0 -122.5 6.5
t-105.5 17.5v138h108v-50q32 -6 60 -7t45 -1q24 0 39.5 5t25 12.5t13.5 15.5t4 15q0 19 -20.5 29.5t-65.5 19.5q-42 7 -79.5 18.5t-65.5 31t-44.5 48.5t-16.5 71q0 80 53 115t144 35q61 0 113 -6.5t97 -17.5v-139h-107z" />
    <glyph glyph-name="uniF726" unicode="&#xf726;" horiz-adv-x="905" 
d="M602 222h-418q7 -57 40.5 -91t96.5 -34q34 0 69.5 8.5t78.5 23.5l16 -100q-48 -21 -90.5 -30t-92.5 -9q-59 0 -107 18.5t-82 52.5t-52.5 82t-18.5 107t18 107t51.5 82t81.5 52.5t107 18.5q58 0 97.5 -18t64 -47t35.5 -66t13 -75h92l16 196h114v-196h125v-82h-125v-56
q0 -35 16.5 -53.5t56.5 -18.5q9 0 20.5 1t25.5 4l11 -100q-21 -5 -51.5 -7t-50.5 -2q-86 0 -122 36.5t-36 116.5v79zM292 410q-45 0 -74.5 -29t-33.5 -77h194q3 21 0.5 40t-13 33.5t-28.5 23.5t-45 9z" />
    <glyph glyph-name="uniF73F" unicode="&#xf73f;" horiz-adv-x="480" 
d="M140 436h-108v120q19 10 44.5 19.5t53.5 17t57.5 12.5t56.5 5q60 0 99 -14t62.5 -35.5t32.5 -49t9 -54.5q0 -42 -12.5 -68.5t-32 -43.5t-41.5 -28t-41.5 -22t-32 -25.5t-12.5 -37.5v-22h-115v30q0 40 11.5 64t28.5 38.5t37 23.5t37 17.5t28.5 21t11.5 34.5
q0 29 -28.5 42.5t-69.5 13.5q-26 0 -48 -6t-28 -8v-45zM152 145h130v-145h-130v145z" />
    <glyph glyph-name="uniF760" unicode="&#xf760;" horiz-adv-x="290" 
d="M66 780h109l55 -140h-70z" />
    <glyph glyph-name="uniF761" unicode="&#xf761;" horiz-adv-x="637" 
d="M413 585l159 -481h50v-104h-250v104h55l-23 73h-175l-26 -73h54v-104h-241v104h56l130 377h-60v104h271zM319 459l-63 -186h124l-59 186h-2z" />
    <glyph glyph-name="uniF762" unicode="&#xf762;" horiz-adv-x="574" 
d="M436 303q48 -15 78 -50t30 -92q0 -76 -50.5 -118.5t-147.5 -42.5h-330v104h50v377h-50v104h312q97 0 147.5 -39t50.5 -111q0 -47 -24.5 -81t-65.5 -50v-1zM200 248v-144h124q35 0 57 17t22 55q0 36 -22.5 54t-60.5 18h-120zM385 416q0 29 -18.5 47t-53.5 18h-113v-129
h113q35 0 53.5 17.5t18.5 46.5z" />
    <glyph glyph-name="uniF763" unicode="&#xf763;" horiz-adv-x="556" 
d="M528 169v-146q-64 -18 -115.5 -25.5t-106.5 -7.5q-81 0 -134.5 24.5t-85 66t-44 97.5t-12.5 119q0 62 12.5 116.5t44 95t85 63.5t134.5 23q55 0 106.5 -7t115.5 -26v-146h-105v65q-35 6 -58.5 8t-48.5 2q-39 0 -67 -14.5t-45 -40.5t-25 -61.5t-8 -77.5q0 -46 8 -83.5
t25 -64t45 -41t67 -14.5q25 0 48.5 1.5t58.5 9.5v64h105z" />
    <glyph glyph-name="uniF764" unicode="&#xf764;" horiz-adv-x="601" 
d="M297 585q80 0 132.5 -21.5t84 -60t44.5 -91.5t13 -115q0 -63 -13 -117.5t-44.5 -94t-84 -62.5t-132.5 -23h-281v104h50v377h-50v104h281zM297 104q41 0 67 14.5t40.5 40t20 61t5.5 77.5t-5.5 76t-20 58t-40.5 37t-67 13h-97v-377h97z" />
    <glyph glyph-name="uniF765" unicode="&#xf765;" horiz-adv-x="520" 
d="M490 585v-154h-104v50h-186v-128h245v-103h-245v-146h186v50h104v-154h-474v104h50v377h-50v104h474z" />
    <glyph glyph-name="uniF766" unicode="&#xf766;" horiz-adv-x="506" 
d="M481 585v-154h-104v50h-177v-145h236v-103h-236v-129h50v-104h-234v104h50v377h-50v104h465z" />
    <glyph glyph-name="uniF767" unicode="&#xf767;" horiz-adv-x="565" 
d="M171 297q0 -90 34 -143t111 -53q38 0 78 16v82h-88v104h222v-275q-60 -19 -111.5 -28.5t-110.5 -9.5q-80 0 -133.5 24.5t-85 66t-44.5 97.5t-13 119q0 62 12.5 116.5t44 95t85 63.5t134.5 23q55 0 106.5 -7t115.5 -26v-146h-105v65q-35 6 -58.5 8t-48.5 2
q-39 0 -67 -14.5t-45 -40.5t-25 -61.5t-8 -77.5z" />
    <glyph glyph-name="uniF768" unicode="&#xf768;" horiz-adv-x="619" 
d="M419 104v146h-219v-146h50v-104h-234v104h50v377h-50v104h234v-104h-50v-128h219v128h-50v104h235v-104h-51v-377h51v-104h-235v104h50z" />
    <glyph glyph-name="uniF769" unicode="&#xf769;" horiz-adv-x="266" 
d="M66 104v377h-50v104h234v-104h-50v-377h50v-104h-234v104h50z" />
    <glyph glyph-name="uniF76A" unicode="&#xf76a;" horiz-adv-x="347" 
d="M331 585v-104h-50v-323q0 -89 -45.5 -128.5t-121.5 -39.5q-60 0 -99 9l11 103q14 -2 25.5 -3t25.5 -1t26.5 2.5t22.5 9t15.5 18t5.5 30.5v323h-50v104h234z" />
    <glyph glyph-name="uniF76B" unicode="&#xf76b;" horiz-adv-x="619" 
d="M250 585v-104h-50v-180l180 180h-41v104h256v-104h-54l-162 -151l179 -226h46v-104h-263v104h43l-106 139l-78 -76v-63h50v-104h-234v104h50v377h-50v104h234z" />
    <glyph glyph-name="uniF76C" unicode="&#xf76c;" horiz-adv-x="502" 
d="M483 154v-154h-467v104h50v377h-50v104h234v-104h-50v-377h178v50h105z" />
    <glyph glyph-name="uniF76D" unicode="&#xf76d;" horiz-adv-x="763" 
d="M748 585v-104h-51v-377h51v-104h-229v104h44v259h-1l-145 -363h-70l-156 363h-2v-259h47v-104h-220v104h50v377h-50v104h209l164 -380h2l150 380h207z" />
    <glyph glyph-name="uniF76E" unicode="&#xf76e;" horiz-adv-x="628" 
d="M613 585v-104h-51v-481h-118l-253 356l-2 -7v-245h53v-104h-226v104h50v377h-50v104h162l259 -371l2 8v259h-53v104h227z" />
    <glyph glyph-name="uniF76F" unicode="&#xf76f;" horiz-adv-x="610" 
d="M306 491q-43 0 -69.5 -14.5t-41 -40.5t-19.5 -61.5t-5 -77.5t5 -79t19.5 -64.5t41 -43.5t69.5 -16q42 0 68 16t40.5 43.5t19.5 64.5t5 79t-5 77.5t-19.5 61.5t-40.5 40.5t-68 14.5zM306 -10q-81 0 -134.5 24.5t-85 66t-44 97.5t-12.5 119q0 62 12.5 116.5t44 95t85 63.5
t134.5 23t134 -23t84 -63.5t43.5 -95t12.5 -116.5q0 -63 -12.5 -119t-43.5 -97.5t-84 -66t-134 -24.5z" />
    <glyph glyph-name="uniF770" unicode="&#xf770;" horiz-adv-x="565" 
d="M329 585q99 0 152.5 -49t53.5 -138q0 -91 -53.5 -139t-152.5 -48h-129v-107h50v-104h-234v104h50v377h-50v104h313zM200 315h115q35 0 58.5 19.5t23.5 63.5q0 42 -23.5 62.5t-58.5 20.5h-115v-166z" />
    <glyph glyph-name="uniF771" unicode="&#xf771;" horiz-adv-x="610" 
d="M30 297q0 62 12.5 116.5t44 95t85 63.5t134.5 23t134 -23t84 -63.5t43.5 -95t12.5 -116.5q0 -116 -47.5 -183t-137.5 -75q2 -8 21.5 -11.5t46 -4.5t54.5 0t47 3v-118q-98 -11 -174.5 9.5t-111.5 73.5q-71 4 -119 30t-76.5 67.5t-40.5 95t-12 113.5zM306 491
q-43 0 -69.5 -14.5t-41 -40.5t-19.5 -61.5t-5 -77.5t5 -79t19.5 -64.5t41 -43t69.5 -15.5q42 0 68 15.5t40.5 43t19.5 64.5t5 79t-5 77.5t-19.5 61.5t-40.5 40.5t-68 14.5z" />
    <glyph glyph-name="uniF772" unicode="&#xf772;" horiz-adv-x="592" 
d="M329 585q99 0 152.5 -48t53.5 -137q0 -59 -28.5 -102.5t-81.5 -60.5l112 -133h40v-104h-247v104h51l-89 112h-92v-112h48v-104h-232v104h50v377h-50v104h313zM200 319h113q35 0 59.5 19t24.5 62q0 42 -23.5 61.5t-58.5 19.5h-115v-162z" />
    <glyph glyph-name="uniF773" unicode="&#xf773;" horiz-adv-x="529" 
d="M134 176v-59q42 -8 73.5 -12t57.5 -4q47 0 70 17t23 43q0 18 -11.5 30t-31 20.5t-44.5 15t-52 14.5q-41 11 -75 27.5t-59.5 39t-39.5 52t-14 66.5q0 45 18 77.5t49 52.5t72 29.5t87 9.5q53 0 104 -7t114 -26v-153h-104v64q-38 7 -63.5 9t-50.5 2q-42 0 -63 -15t-21 -39
q0 -15 10.5 -27t28.5 -21t42.5 -16t53.5 -14q40 -9 75 -23.5t61 -35.5t40.5 -50t14.5 -68q0 -48 -18 -83t-49.5 -57.5t-74.5 -33.5t-92 -11q-54 0 -112.5 8t-122.5 26v152h104z" />
    <glyph glyph-name="uniF774" unicode="&#xf774;" horiz-adv-x="529" 
d="M507 585v-154h-105v50h-70v-377h49v-104h-233v104h49v377h-69v-50h-106v154h485z" />
    <glyph glyph-name="uniF775" unicode="&#xf775;" horiz-adv-x="619" 
d="M604 585v-104h-51v-275q0 -58 -17.5 -99t-49.5 -67t-77 -38t-99 -12t-99 12t-77.5 38t-50 67t-17.5 99v275h-50v104h234v-104h-50v-275q0 -23 5 -43.5t17.5 -35.5t34 -24t54.5 -9q32 0 53 9t33 24t17 35.5t5 43.5v275h-50v104h235z" />
    <glyph glyph-name="uniF776" unicode="&#xf776;" horiz-adv-x="628" 
d="M613 585v-104h-48l-164 -485h-168l-170 485h-47v104h252v-104h-62l116 -349h1l107 349h-62v104h245z" />
    <glyph glyph-name="uniF777" unicode="&#xf777;" horiz-adv-x="889" 
d="M268 585v-104h-64l82 -326h1l97 430h143l105 -430h1l75 326h-65v104h231v-104h-44l-119 -485h-176l-88 353h-2l-84 -353h-175l-126 485h-44v104h252z" />
    <glyph glyph-name="uniF778" unicode="&#xf778;" horiz-adv-x="637" 
d="M613 585v-104h-47l-150 -186l151 -191h55v-104h-279v104h50l-91 125l-94 -125h46v-104h-238v104h52l155 191l-146 186h-52v104h271v-104h-45l88 -118l87 118h-44v104h231z" />
    <glyph glyph-name="uniF779" unicode="&#xf779;" horiz-adv-x="601" 
d="M417 104v-104h-233v104h49v77l-167 300h-50v104h260v-104h-60l95 -182h2l90 182h-56v104h239v-104h-48l-170 -300v-77h49z" />
    <glyph glyph-name="uniF77A" unicode="&#xf77a;" horiz-adv-x="511" 
d="M474 585v-96l-281 -383v-2h187v48h104v-152h-456v96l286 383v2h-165v-49h-104v153h429z" />
    <glyph glyph-name="uniF7A1" unicode="&#xf7a1;" horiz-adv-x="215" 
d="M42 455v145h130v-145h-130zM42 0l8 380h115l7 -380h-130z" />
    <glyph glyph-name="uniF7A2" unicode="&#xf7a2;" horiz-adv-x="510" 
d="M260 -130v100h70v-100h-70zM260 530v100h70v-100h-70zM367 397q-16 2 -31.5 3.5t-35.5 1.5q-58 0 -89 -41t-31 -111q0 -75 32.5 -114t87.5 -39q15 0 29 0.5t30.5 3t38.5 7t54 13.5l23 -104q-45 -13 -85.5 -20t-89.5 -7q-71 0 -120 18.5t-80 52.5t-44.5 82t-13.5 107
q0 58 13.5 106t44 82t79.5 53t121 19q49 0 91 -6.5t84 -17.5v-139h-108v50z" />
    <glyph glyph-name="uniF7A8" unicode="&#xf7a8;" horiz-adv-x="480" 
d="M177 780v-130h-115v130h115zM417 780v-130h-115v130h115z" />
    <glyph glyph-name="uniF7AF" unicode="&#xf7af;" horiz-adv-x="380" 
d="M322 745v-93h-265v93h265z" />
    <glyph glyph-name="uniF7B4" unicode="&#xf7b4;" horiz-adv-x="290" 
d="M129 640h-70l55 140h109z" />
    <glyph glyph-name="uniF7B8" unicode="&#xf7b8;" horiz-adv-x="294" 
d="M107 0h48v-53q12 -2 26.5 -5.5t27 -12t21 -21.5t8.5 -34q0 -36 -27 -57.5t-75 -21.5q-18 0 -39.5 3t-41.5 9l7 41q12 -2 23.5 -4t24.5 -2q26 0 37 12t11 27t-12.5 26.5t-38.5 14.5v78z" />
    <glyph glyph-name="uniF7BF" unicode="&#xf7bf;" horiz-adv-x="480" 
d="M340 164h107v-120q-20 -10 -45 -20t-53 -17.5t-57 -12t-56 -4.5q-60 0 -99.5 13.5t-63 35.5t-32.5 49t-9 54q0 42 13 68.5t32 43.5t41.5 28t41.5 22t32 25t13 38v23h115v-30q0 -40 -11.5 -64t-28.5 -38.5t-37 -23.5t-37 -17.5t-28.5 -21t-11.5 -34.5q0 -30 28 -43t70 -13
q26 0 48 6t28 8v45zM327 455h-130v145h130v-145z" />
    <glyph glyph-name="uniF7E0" unicode="&#xf7e0;" horiz-adv-x="637" 
d="M170 780h109l55 -140h-70zM413 585l159 -481h50v-104h-250v104h55l-23 73h-175l-26 -73h54v-104h-241v104h56l130 377h-60v104h271zM319 459l-63 -186h124l-59 186h-2z" />
    <glyph glyph-name="uniF7E1" unicode="&#xf7e1;" horiz-adv-x="637" 
d="M338 640h-70l55 140h109zM413 585l159 -481h50v-104h-250v104h55l-23 73h-175l-26 -73h54v-104h-241v104h56l130 377h-60v104h271zM319 459l-63 -186h124l-59 186h-2z" />
    <glyph glyph-name="uniF7E2" unicode="&#xf7e2;" horiz-adv-x="637" 
d="M237 630h-70l108 140h79l108 -140h-70l-77 69zM413 585l159 -481h50v-104h-250v104h55l-23 73h-175l-26 -73h54v-104h-241v104h56l130 377h-60v104h271zM319 459l-63 -186h124l-59 186h-2z" />
    <glyph glyph-name="uniF7E3" unicode="&#xf7e3;" horiz-adv-x="637" 
d="M262 682q-17 0 -31 -7t-40 -34l-41 31q26 54 54 76.5t54 22.5q19 0 37 -7t35.5 -15t32.5 -15t28 -7q7 0 14 0.5t15 3.5t16.5 10t19.5 20l33 -39q-18 -38 -38.5 -56.5t-43.5 -22.5q-11 -2 -21 0q-14 1 -30 7.5t-32.5 13.5t-32.5 12.5t-29 5.5zM413 585l159 -481h50v-104
h-250v104h55l-23 73h-175l-26 -73h54v-104h-241v104h56l130 377h-60v104h271zM319 459l-63 -186h124l-59 186h-2z" />
    <glyph glyph-name="uniF7E4" unicode="&#xf7e4;" horiz-adv-x="637" 
d="M258 780v-130h-115v130h115zM498 780v-130h-115v130h115zM413 585l159 -481h50v-104h-250v104h55l-23 73h-175l-26 -73h54v-104h-241v104h56l130 377h-60v104h271zM319 459l-63 -186h124l-59 186h-2z" />
    <glyph glyph-name="uniF7E5" unicode="&#xf7e5;" horiz-adv-x="637" 
d="M226 730q0 19 7.5 36.5t20 30.5t30 20.5t37.5 7.5q19 0 36.5 -7.5t30.5 -20.5t20.5 -30.5t7.5 -36.5q0 -20 -7.5 -37.5t-20.5 -30t-30.5 -20t-36.5 -7.5q-40 0 -67.5 27.5t-27.5 67.5zM274 730q0 -20 13.5 -33.5t33.5 -13.5t33.5 13.5t13.5 33.5t-13.5 33.5t-33.5 13.5
t-33.5 -13.5t-13.5 -33.5zM413 585l159 -481h50v-104h-250v104h55l-23 73h-175l-26 -73h54v-104h-241v104h56l130 377h-60v104h271zM319 459l-63 -186h124l-59 186h-2z" />
    <glyph glyph-name="uniF7E6" unicode="&#xf7e6;" horiz-adv-x="832" 
d="M202 481v104h600v-153h-105v49h-185v-128h245v-103h-245v-146h185v48h105v-152h-425v144h-156l-72 -144h-136v104h55l194 377h-60zM271 248h106v218h-1z" />
    <glyph glyph-name="uniF7E7" unicode="&#xf7e7;" horiz-adv-x="556" 
d="M283 -8q-75 3 -123.5 28.5t-77.5 66.5t-40.5 95t-11.5 115q0 62 12.5 116.5t44 95t85 63.5t134.5 23q55 0 106.5 -7t115.5 -26v-146h-105v65q-35 6 -58.5 8t-48.5 2q-39 0 -67 -14.5t-45 -40.5t-25 -61.5t-8 -77.5q0 -46 8 -83t25 -63.5t45 -41t67 -14.5q25 0 48.5 1.5
t58.5 8.5v64h105v-145q-57 -17 -104 -24t-95 -8v-36q11 -2 24 -5t24 -10.5t18.5 -19t7.5 -29.5q0 -32 -24 -50t-69 -18q-16 0 -36 2.5t-38 7.5l7 39q20 -4 42 -4q20 0 30.5 8.5t10.5 21.5q0 27 -43 33v60z" />
    <glyph glyph-name="uniF7E8" unicode="&#xf7e8;" horiz-adv-x="520" 
d="M490 585v-154h-104v50h-186v-128h245v-103h-245v-146h186v50h104v-154h-474v104h50v377h-50v104h474zM132 780h109l55 -140h-70z" />
    <glyph glyph-name="uniF7E9" unicode="&#xf7e9;" horiz-adv-x="520" 
d="M490 585v-154h-104v50h-186v-128h245v-103h-245v-146h186v50h104v-154h-474v104h50v377h-50v104h474zM286 640h-70l55 140h109z" />
    <glyph glyph-name="uniF7EA" unicode="&#xf7ea;" horiz-adv-x="520" 
d="M490 585v-154h-104v50h-186v-128h245v-103h-245v-146h186v50h104v-154h-474v104h50v377h-50v104h474zM189 630h-70l108 140h79l108 -140h-70l-77 69z" />
    <glyph glyph-name="uniF7EB" unicode="&#xf7eb;" horiz-adv-x="520" 
d="M490 585v-154h-104v50h-186v-128h245v-103h-245v-146h186v50h104v-154h-474v104h50v377h-50v104h474zM205 780v-130h-115v130h115zM445 780v-130h-115v130h115z" />
    <glyph glyph-name="uniF7EC" unicode="&#xf7ec;" horiz-adv-x="266" 
d="M66 104v377h-50v104h234v-104h-50v-377h50v-104h-234v104h50zM13 780h109l55 -140h-70z" />
    <glyph glyph-name="uniF7ED" unicode="&#xf7ed;" horiz-adv-x="266" 
d="M66 104v377h-50v104h234v-104h-50v-377h50v-104h-234v104h50zM161 640h-70l55 140h109z" />
    <glyph glyph-name="uniF7EE" unicode="&#xf7ee;" horiz-adv-x="266" 
d="M66 104v377h-50v104h234v-104h-50v-377h50v-104h-234v104h50zM54 630h-70l108 140h79l108 -140h-70l-77 69z" />
    <glyph glyph-name="uniF7EF" unicode="&#xf7ef;" horiz-adv-x="266" 
d="M66 104v377h-50v104h234v-104h-50v-377h50v-104h-234v104h50zM69 780v-130h-115v130h115zM309 780v-130h-115v130h115z" />
    <glyph glyph-name="uniF7F1" unicode="&#xf7f1;" horiz-adv-x="628" 
d="M613 585v-104h-51v-481h-118l-253 356l-2 -7v-245h53v-104h-226v104h50v377h-50v104h162l259 -371l2 8v259h-53v104h227zM268 682q-17 0 -31 -7t-40 -34l-41 31q26 54 54 76.5t54 22.5q19 0 37 -7t35.5 -15t32.5 -15t28 -7q7 0 14 0.5t15 3.5t16.5 10t19.5 20l33 -39
q-18 -38 -38.5 -56.5t-43.5 -22.5q-11 -2 -21 0q-14 1 -30 7.5t-32.5 13.5t-32.5 12.5t-29 5.5z" />
    <glyph glyph-name="uniF7F2" unicode="&#xf7f2;" horiz-adv-x="610" 
d="M306 491q-43 0 -69.5 -14.5t-41 -40.5t-19.5 -61.5t-5 -77.5t5 -79t19.5 -64.5t41 -43.5t69.5 -16q42 0 68 16t40.5 43.5t19.5 64.5t5 79t-5 77.5t-19.5 61.5t-40.5 40.5t-68 14.5zM306 -10q-81 0 -134.5 24.5t-85 66t-44 97.5t-12.5 119q0 62 12.5 116.5t44 95t85 63.5
t134.5 23t134 -23t84 -63.5t43.5 -95t12.5 -116.5q0 -63 -12.5 -119t-43.5 -97.5t-84 -66t-134 -24.5zM170 780h109l55 -140h-70z" />
    <glyph glyph-name="uniF7F3" unicode="&#xf7f3;" horiz-adv-x="610" 
d="M306 491q-43 0 -69.5 -14.5t-41 -40.5t-19.5 -61.5t-5 -77.5t5 -79t19.5 -64.5t41 -43.5t69.5 -16q42 0 68 16t40.5 43.5t19.5 64.5t5 79t-5 77.5t-19.5 61.5t-40.5 40.5t-68 14.5zM306 -10q-81 0 -134.5 24.5t-85 66t-44 97.5t-12.5 119q0 62 12.5 116.5t44 95t85 63.5
t134.5 23t134 -23t84 -63.5t43.5 -95t12.5 -116.5q0 -63 -12.5 -119t-43.5 -97.5t-84 -66t-134 -24.5zM343 640h-70l55 140h109z" />
    <glyph glyph-name="uniF7F4" unicode="&#xf7f4;" horiz-adv-x="610" 
d="M306 491q-43 0 -69.5 -14.5t-41 -40.5t-19.5 -61.5t-5 -77.5t5 -79t19.5 -64.5t41 -43.5t69.5 -16q42 0 68 16t40.5 43.5t19.5 64.5t5 79t-5 77.5t-19.5 61.5t-40.5 40.5t-68 14.5zM306 -10q-81 0 -134.5 24.5t-85 66t-44 97.5t-12.5 119q0 62 12.5 116.5t44 95t85 63.5
t134.5 23t134 -23t84 -63.5t43.5 -95t12.5 -116.5q0 -63 -12.5 -119t-43.5 -97.5t-84 -66t-134 -24.5zM227 630h-70l108 140h79l108 -140h-70l-77 69z" />
    <glyph glyph-name="uniF7F5" unicode="&#xf7f5;" horiz-adv-x="610" 
d="M306 491q-43 0 -69.5 -14.5t-41 -40.5t-19.5 -61.5t-5 -77.5t5 -79t19.5 -64.5t41 -43.5t69.5 -16q42 0 68 16t40.5 43.5t19.5 64.5t5 79t-5 77.5t-19.5 61.5t-40.5 40.5t-68 14.5zM306 -10q-81 0 -134.5 24.5t-85 66t-44 97.5t-12.5 119q0 62 12.5 116.5t44 95t85 63.5
t134.5 23t134 -23t84 -63.5t43.5 -95t12.5 -116.5q0 -63 -12.5 -119t-43.5 -97.5t-84 -66t-134 -24.5zM247 682q-17 0 -31 -7t-40 -34l-41 31q26 54 54 76.5t54 22.5q19 0 37 -7t35.5 -15t32.5 -15t28 -7q7 0 14 0.5t15 3.5t16.5 10t19.5 20l33 -39q-18 -38 -38.5 -56.5
t-43.5 -22.5q-11 -2 -21 0q-14 1 -30 7.5t-32.5 13.5t-32.5 12.5t-29 5.5z" />
    <glyph glyph-name="uniF7F6" unicode="&#xf7f6;" horiz-adv-x="610" 
d="M306 491q-43 0 -69.5 -14.5t-41 -40.5t-19.5 -61.5t-5 -77.5t5 -79t19.5 -64.5t41 -43.5t69.5 -16q42 0 68 16t40.5 43.5t19.5 64.5t5 79t-5 77.5t-19.5 61.5t-40.5 40.5t-68 14.5zM306 -10q-81 0 -134.5 24.5t-85 66t-44 97.5t-12.5 119q0 62 12.5 116.5t44 95t85 63.5
t134.5 23t134 -23t84 -63.5t43.5 -95t12.5 -116.5q0 -63 -12.5 -119t-43.5 -97.5t-84 -66t-134 -24.5zM242 780v-130h-115v130h115zM482 780v-130h-115v130h115z" />
    <glyph glyph-name="uniF7F8" unicode="&#xf7f8;" horiz-adv-x="610" 
d="M306 -10q-62 0 -105.5 14t-75.5 38l-62 -74l-38 30l65 77q-34 42 -47 99t-13 123q0 62 12.5 116.5t44 95t85 63.5t134.5 23q57 0 100 -13t74 -35l66 80l39 -30l-69 -82q36 -40 50 -96t14 -122q0 -63 -12.5 -119t-43.5 -97.5t-84 -66t-134 -24.5zM306 101q42 0 68 14.5
t40.5 41t19.5 62.5t5 78q0 29 -3.5 55.5t-11.5 48.5l-219 -259q16 -19 40 -30t61 -11zM306 484q-43 0 -69.5 -13.5t-41 -38t-19.5 -59t-5 -76.5q0 -29 2.5 -55t10.5 -48l217 255q-14 16 -37.5 25.5t-57.5 9.5z" />
    <glyph glyph-name="uniF7F9" unicode="&#xf7f9;" horiz-adv-x="619" 
d="M604 585v-104h-51v-275q0 -58 -17.5 -99t-49.5 -67t-77 -38t-99 -12t-99 12t-77.5 38t-50 67t-17.5 99v275h-50v104h234v-104h-50v-275q0 -23 5 -43.5t17.5 -35.5t34 -24t54.5 -9q32 0 53 9t33 24t17 35.5t5 43.5v275h-50v104h235zM187 780h109l55 -140h-70z" />
    <glyph glyph-name="uniF7FA" unicode="&#xf7fa;" horiz-adv-x="619" 
d="M604 585v-104h-51v-275q0 -58 -17.5 -99t-49.5 -67t-77 -38t-99 -12t-99 12t-77.5 38t-50 67t-17.5 99v275h-50v104h234v-104h-50v-275q0 -23 5 -43.5t17.5 -35.5t34 -24t54.5 -9q32 0 53 9t33 24t17 35.5t5 43.5v275h-50v104h235zM358 640h-70l55 140h109z" />
    <glyph glyph-name="uniF7FB" unicode="&#xf7fb;" horiz-adv-x="619" 
d="M604 585v-104h-51v-275q0 -58 -17.5 -99t-49.5 -67t-77 -38t-99 -12t-99 12t-77.5 38t-50 67t-17.5 99v275h-50v104h234v-104h-50v-275q0 -23 5 -43.5t17.5 -35.5t34 -24t54.5 -9q32 0 53 9t33 24t17 35.5t5 43.5v275h-50v104h235zM232 630h-70l108 140h79l108 -140h-70
l-77 69z" />
    <glyph glyph-name="uniF7FC" unicode="&#xf7fc;" horiz-adv-x="619" 
d="M604 585v-104h-51v-275q0 -58 -17.5 -99t-49.5 -67t-77 -38t-99 -12t-99 12t-77.5 38t-50 67t-17.5 99v275h-50v104h234v-104h-50v-275q0 -23 5 -43.5t17.5 -35.5t34 -24t54.5 -9q32 0 53 9t33 24t17 35.5t5 43.5v275h-50v104h235zM247 780v-130h-115v130h115zM487 780
v-130h-115v130h115z" />
    <glyph glyph-name="uniF7FD" unicode="&#xf7fd;" horiz-adv-x="601" 
d="M417 104v-104h-233v104h49v77l-167 300h-50v104h260v-104h-60l95 -182h2l90 182h-56v104h239v-104h-48l-170 -300v-77h49zM346 640h-70l55 140h109z" />
    <glyph glyph-name="uniF7FF" unicode="&#xf7ff;" horiz-adv-x="601" 
d="M417 104v-104h-233v104h49v77l-167 300h-50v104h260v-104h-60l95 -182h2l90 182h-56v104h239v-104h-48l-170 -300v-77h49zM238 780v-130h-115v130h115zM478 780v-130h-115v130h115z" />
    <glyph glyph-name="breve.case" horiz-adv-x="408" 
d="M204 812q36 0 59.5 19t34.5 49h53q-8 -66 -43.5 -104.5t-103.5 -38.5t-103 38.5t-44 104.5h53q11 -30 35 -49t59 -19z" />
    <glyph glyph-name="cedilla.case" horiz-adv-x="294" 
d="M107 0h48v-53q12 -2 26.5 -5.5t27 -12t21 -21.5t8.5 -34q0 -36 -27 -57.5t-75 -21.5q-18 0 -39.5 3t-41.5 9l7 41q12 -2 23.5 -4t24.5 -2q26 0 37 12t11 27t-12.5 26.5t-38.5 14.5v78z" />
    <glyph glyph-name="circumflex.case" horiz-adv-x="420" 
d="M132 730h-70l108 140h79l108 -140h-70l-77 69z" />
    <glyph glyph-name="dotaccent.case" horiz-adv-x="250" 
d="M177 870v-130h-115v130h115z" />
    <glyph glyph-name="ogonek.case" horiz-adv-x="314" 
d="M258 -174q-17 -14 -44 -21.5t-51 -7.5q-45 0 -73.5 21.5t-28.5 56.5t22 67t64 58h63q-29 -23 -45.5 -50t-16.5 -51q0 -26 15.5 -39.5t43.5 -13.5q14 0 25 3.5t21 8.5z" />
    <glyph glyph-name="ring.case" horiz-adv-x="300" 
d="M55 820q0 19 7.5 36.5t20 30.5t30 20.5t37.5 7.5q19 0 36.5 -7.5t30.5 -20.5t20.5 -30.5t7.5 -36.5q0 -20 -7.5 -37.5t-20.5 -30t-30.5 -20t-36.5 -7.5q-40 0 -67.5 27.5t-27.5 67.5zM103 820q0 -20 13.5 -33.5t33.5 -13.5t33.5 13.5t13.5 33.5t-13.5 33.5t-33.5 13.5
t-33.5 -13.5t-13.5 -33.5z" />
    <glyph glyph-name="tilde.case" horiz-adv-x="450" 
d="M168 772q-17 0 -31 -7t-40 -34l-41 31q26 54 54 76.5t54 22.5q19 0 37 -7t35.5 -15t32.5 -15t28 -7q7 0 14 0.5t15 3.5t16.5 10t19.5 20l33 -39q-18 -38 -38.5 -56.5t-43.5 -22.5q-11 -2 -21 0q-14 1 -30 7.5t-32.5 13.5t-32.5 12.5t-29 5.5z" />
    <glyph glyph-name="Aogonek.aalt" horiz-adv-x="637" 
d="M576 -150q-16 -12 -40.5 -18.5t-46.5 -6.5q-42 0 -68 19.5t-26 49.5q0 29 19 56t57 50h-99v104h55l-23 73h-175l-26 -73h54v-104h-241v104h56l130 377h-60v104h271l159 -481h50v-104h-89q-26 -20 -39.5 -41.5t-13.5 -41.5q0 -23 14 -34.5t39 -11.5q11 0 20.5 2.5
t18.5 6.5zM320 459l-64 -186h124l-59 186h-1z" />
    <glyph glyph-name="Dcroat.aalt" horiz-adv-x="601" 
d="M297 585q80 0 132.5 -21.5t84 -60t44.5 -91.5t13 -115q0 -63 -13 -117.5t-44.5 -94t-84 -62.5t-132.5 -23h-281v104h50v156h-50v74h50v147h-50v104h281zM297 104q41 0 67 14.5t40.5 40t20 61t5.5 77.5t-5.5 76t-20 58t-40.5 37t-67 13h-97v-147h92v-74h-92v-156h97z" />
    <glyph glyph-name="Eogonek.aalt" horiz-adv-x="520" 
d="M490 585v-153h-104v49h-186v-128h245v-103h-245v-146h186v48h104v-152q-25 -20 -39 -41.5t-14 -41.5q0 -23 14 -34.5t39 -11.5q11 0 20.5 2.5t19.5 6.5l4 -30q-16 -12 -41 -18.5t-46 -6.5q-42 0 -68.5 19.5t-26.5 49.5q0 29 20 56t58 50h-414v104h50v377h-50v104h474z
" />
    <glyph glyph-name="Hbar.aalt" horiz-adv-x="619" 
d="M419 104v146h-219v-146h50v-104h-234v104h50v298h-48v31h48v48h-50v104h234v-104h-50v-48h219v48h-50v104h235v-104h-51v-48h48v-31h-48v-298h51v-104h-235v104h50zM419 338v64h-219v-64h219z" />
    <glyph glyph-name="Iogonek.aalt" horiz-adv-x="266" 
d="M213 -150q-16 -12 -40.5 -18.5t-46.5 -6.5q-42 0 -68 19.5t-26 49.5q0 29 19 56t57 50h-92v104h50v377h-50v104h234v-104h-50v-377h50v-104h-80q-26 -20 -39.5 -41.5t-13.5 -41.5q0 -23 14 -34.5t39 -11.5q11 0 20.5 2.5t17.5 6.5z" />
    <glyph glyph-name="IJ.aalt" horiz-adv-x="602" 
d="M66 104v377h-50v104h234v-104h-50v-377h50v-104h-234v104h50zM586 585v-104h-49v-322q0 -45 -12 -77t-34 -52.5t-53 -30t-69 -9.5q-59 0 -99 9l12 103q14 -2 25.5 -3t24.5 -1q14 0 27 2.5t22.5 9t15 18.5t5.5 31v322h-49v104h233z" />
    <glyph glyph-name="Scedilla.aalt" horiz-adv-x="529" 
d="M231 -9q-95 3 -201 33v152h104v-59q42 -8 73.5 -12t57.5 -4q47 0 70 17t23 43q0 18 -11.5 30t-31 20.5t-44.5 15t-52 14.5q-41 11 -75 27.5t-59.5 39t-39.5 52t-14 66.5q0 45 18 77.5t49 52.5t72 29.5t87 9.5q53 0 104 -7t114 -26v-154h-104v65q-38 7 -63.5 9t-50.5 2
q-42 0 -63 -15t-21 -39q0 -15 10.5 -27t28.5 -21t42.5 -16t53.5 -14q40 -9 75 -23.5t61 -35.5t40.5 -50t14.5 -68q0 -47 -17 -81t-47 -56.5t-70.5 -34.5t-87.5 -13v-34q11 -2 24 -5t24.5 -10.5t19 -19t7.5 -29.5q0 -32 -24.5 -50t-69.5 -18q-16 0 -36 2.5t-38 7.5l8 39
q19 -4 41 -4q21 0 31 8.5t10 21.5q0 27 -43 33v59z" />
    <glyph glyph-name="Tbar.aalt" horiz-adv-x="529" 
d="M507 585v-153h-105v49h-70v-177h67v-74h-67v-126h49v-104h-233v104h49v126h-67v74h67v177h-69v-49h-106v153h485z" />
    <glyph glyph-name="Uogonek.aalt" horiz-adv-x="619" 
d="M604 585v-104h-51v-275q0 -54 -15.5 -93.5t-44.5 -65.5t-69.5 -39.5t-89.5 -16.5q-43 -37 -43 -74q0 -23 14 -34.5t39 -11.5q11 0 20.5 2.5t18.5 6.5l4 -30q-15 -12 -40 -18.5t-47 -6.5q-42 0 -68 19.5t-26 49.5q0 53 66 98q-95 7 -150.5 58.5t-55.5 155.5v275h-50v104
h234v-104h-50v-275q0 -23 5 -43.5t17.5 -35.5t34 -24t54.5 -9q32 0 53 9t33 24t17 35.5t5 43.5v275h-50v104h235z" />
    <glyph glyph-name="c_t.dlig" horiz-adv-x="865" 
d="M357 347v50q-21 4 -37 4.5t-30 0.5q-59 0 -89.5 -38.5t-30.5 -113.5t30.5 -114t89.5 -39q14 0 27.5 0.5t31 2t40 5.5t53.5 12l23 -103q-45 -11 -86 -17.5t-89 -6.5q-73 0 -122.5 18.5t-79.5 52.5t-43 82t-13 107t13 107t43 82t79.5 52.5t122.5 18.5q48 0 89 -6.5
t86 -17.5v-139h-108zM572 407h-67v85l67 8l16 140h114v-140h125v-93h-125v-241q0 -35 16.5 -53.5t56.5 -18.5q9 0 20.5 1t25.5 4l11 -100q-21 -5 -51.5 -7t-50.5 -2q-86 0 -122 36.5t-36 116.5v264z" />
    <glyph glyph-name="s_p.dlig" horiz-adv-x="1025" 
d="M330 347v51q-29 5 -54 6.5t-41 1.5q-23 0 -37.5 -4t-22.5 -10.5t-11.5 -14t-3.5 -13.5q0 -18 16 -29.5t65 -21.5q36 -8 73 -18t68 -27.5t50.5 -45.5t19.5 -71q0 -83 -53 -122t-144 -39q-61 0 -122 6.5t-106 17.5v138h108v-50q32 -6 60 -7t45 -1q24 0 40 5t25 12.5
t13 15.5t4 15q0 19 -20.5 29.5t-65.5 19.5q-42 7 -79.5 18.5t-65.5 31t-44.5 48.5t-16.5 71q0 80 53 115t144 35q62 0 113.5 -6.5t96.5 -17.5v-139h-107zM480 500h187v-50h2q24 26 62 43t79 17q52 0 87 -20.5t56 -56t30 -83t9 -100.5q0 -54 -10 -101t-32.5 -82.5t-59 -56
t-88.5 -20.5q-38 0 -73.5 15t-59.5 41h-2v-139h58v-107h-245v107h57v485h-57v108zM855 250q0 32 -4.5 59.5t-15.5 48t-30 32.5t-48 12q-32 0 -55 -11t-35 -20v-242q12 -10 35 -21t55 -11q29 0 48 12t30 32.5t15.5 48.5t4.5 60z" />
    <glyph glyph-name="s_t.dlig" horiz-adv-x="860" 
d="M330 347v51q-29 5 -54 6.5t-41 1.5q-23 0 -37.5 -4t-22.5 -10.5t-11.5 -14t-3.5 -13.5q0 -18 16 -29.5t65 -21.5q36 -8 73 -18t68 -27.5t50.5 -45.5t19.5 -71q0 -83 -53 -122t-144 -39q-61 0 -122 6.5t-106 17.5v138h108v-50q32 -6 60 -7t45 -1q24 0 40 5t25 12.5
t13 15.5t4 15q0 19 -20.5 29.5t-65.5 19.5q-42 7 -79.5 18.5t-65.5 31t-44.5 48.5t-16.5 71q0 80 53 115t144 35q62 0 113.5 -6.5t96.5 -17.5v-139h-107zM567 407h-67v85l67 8l16 140h114v-140h125v-93h-125v-241q0 -35 16.5 -53.5t56.5 -18.5q9 0 20.5 1t25.5 4l11 -100
q-21 -5 -51.5 -7t-50.5 -2q-86 0 -122 36.5t-36 116.5v264z" />
    <glyph glyph-name="h.superior" horiz-adv-x="310" 
d="M175 486h24v99q0 21 -9 32t-30 11q-14 0 -27 -6t-22 -11v-125h24v-56h-120v56h28v237h-28v57h96v-133h1q33 38 80 38q38 0 56.5 -23t18.5 -61v-115h28v-56h-120v56z" />
    <glyph glyph-name="Eth.aalt" horiz-adv-x="601" 
d="M297 585q80 0 132.5 -21.5t84 -60t44.5 -91.5t13 -115q0 -63 -13 -117.5t-44.5 -94t-84 -62.5t-132.5 -23h-281v104h50v156h-50v74h50v147h-50v104h281zM297 104q41 0 67 14.5t40.5 40t20 61t5.5 77.5t-5.5 76t-20 58t-40.5 37t-67 13h-97v-147h92v-74h-92v-156h97z" />
    <glyph glyph-name="Thorn.aalt" horiz-adv-x="562" 
d="M305 509q107 0 166 -56.5t59 -156.5q0 -102 -59 -157t-166 -55h-95v-84h-195v107h57v370h-57v108h195v-76h95zM210 191h80q43 0 71 25.5t28 79.5q0 52 -28 78.5t-71 26.5h-80v-210z" />
    <glyph glyph-name="Eng.aalt" horiz-adv-x="628" 
d="M562 -42q0 -45 -12 -76.5t-34 -52t-53 -30t-69 -9.5q-59 0 -98 9l11 103q14 -2 26 -3.5t26 -1.5q27 0 48.5 12t21.5 49v42l-238 349h-2v-245h53v-104h-226v104h50v377h-50v104h177l244 -363h2v259h-53v104h227v-104h-51v-505v-18z" />
    <glyph glyph-name="zero.zero" horiz-adv-x="590" 
d="M295 -10q-71 0 -119.5 28t-78 76.5t-42.5 113t-13 137.5q0 72 13 135t42.5 109.5t78 73.5t119.5 27t119 -27t77.5 -73.5t42.5 -109.5t13 -135q0 -73 -13 -137.5t-42.5 -113t-77.5 -76.5t-119 -28zM295 97q34 0 56.5 20t35.5 53.5t18 78.5t5 96t-9 95l-203 -256
q13 -40 36 -63.5t61 -23.5zM295 582q-34 0 -56.5 -18t-35.5 -50t-18 -75t-5 -94q0 -24 1.5 -48t6.5 -44l201 254q-13 35 -36 55t-58 20z" />
    <glyph glyph-name="zero.tnum" 
d="M294 582q-37 0 -60.5 -18t-37 -50t-19 -75t-5.5 -94t5.5 -96t19 -78.5t37 -53.5t60.5 -20q36 0 59.5 20t37 53.5t19 78.5t5.5 96t-5.5 94t-19 75t-37 50t-59.5 18zM294 -10q-79 0 -129.5 28t-79.5 76.5t-40 113t-11 137.5q0 72 11 135t40 109.5t79.5 73.5t129.5 27
q78 0 128.5 -27t80 -73.5t40.5 -109.5t11 -135q0 -73 -11 -137.5t-40.5 -113t-80 -76.5t-128.5 -28z" />
    <glyph glyph-name="one.tnum" 
d="M529 107v-107h-471v107h171v452l-160 -5v92l228 39h62v-578h170z" />
    <glyph glyph-name="two.tnum" 
d="M540 167v-167h-496v124q103 63 167.5 112.5t100.5 89.5t49 71.5t13 58.5q0 39 -13.5 61.5t-33 34.5t-41 15.5t-38.5 3.5q-23 0 -46 -3t-50 -12v-51h-108v135q31 12 59 21.5t55.5 16t57 9.5t62.5 3q60 0 104 -16t73 -44t43 -65.5t14 -80.5q0 -53 -19 -100t-55.5 -91.5
t-89 -87.5t-119.5 -88v-2h204v52h107z" />
    <glyph glyph-name="three.tnum" 
d="M46 175h108v-61q28 -9 58 -13t62 -4q39 0 64.5 9.5t40 23.5t20 31t5.5 31q0 94 -141 94h-93v108h87q38 0 63 9t40 24t21 33t6 36q0 15 -5.5 30.5t-19 27.5t-35 20t-53.5 8t-58 -4.5t-52 -12.5v-60h-108v136q62 28 122 38.5t119 10.5q46 0 86.5 -11.5t70.5 -34t47 -56
t17 -78.5q0 -57 -33.5 -96t-90.5 -59v-2q36 -9 63.5 -25.5t45.5 -38.5t27 -49t9 -55q0 -95 -67.5 -145t-189.5 -50q-33 0 -62.5 2.5t-58 8t-57 15t-58.5 23.5v136z" />
    <glyph glyph-name="four.tnum" 
d="M342 295v251h-2q-21 -38 -42.5 -70.5t-43.5 -62.5t-46 -59t-51 -59h185zM342 187h-319v108q43 45 83 89t76 91t68.5 98.5t59.5 111.5h163v-390h91v-108h-91v-80h60v-107h-251v107h60v80z" />
    <glyph glyph-name="five.tnum" 
d="M515 512h-109v53h-218l-10 -166l2 -1q26 20 60 33.5t83 13.5t89 -14t68 -42t43.5 -69t15.5 -95q0 -116 -71.5 -175.5t-194.5 -59.5q-59 0 -111.5 11t-115.5 39v127h108v-53q30 -10 56.5 -13.5t54.5 -3.5q69 0 102 34.5t33 85.5q0 20 -5.5 40.5t-20 37.5t-38.5 28t-60 11
q-41 0 -68 -12.5t-53 -35.5l-94 8l14 386h440v-168z" />
    <glyph glyph-name="six.tnum" 
d="M176 384q28 32 67 51.5t84 19.5q101 0 159 -61t58 -174q0 -54 -18 -96.5t-50 -72.5t-76.5 -45.5t-97.5 -15.5q-71 0 -120 26t-79.5 69t-44.5 99t-14 116q0 114 24.5 189.5t66.5 120t97.5 62.5t117.5 18q51 0 91 -7t82 -21v-150h-109v66q-14 2 -25.5 3t-27.5 1
q-40 0 -74.5 -14.5t-59.5 -40.5t-39 -62t-14 -80zM186 288q-3 -35 -0.5 -69t14.5 -61t34.5 -44t60.5 -17q45 0 77.5 31t32.5 92q0 20 -4.5 41.5t-17 39.5t-34.5 29.5t-56 11.5t-60.5 -15.5t-46.5 -38.5z" />
    <glyph glyph-name="seven.tnum" 
d="M543 680v-93q-37 -62 -73.5 -126.5t-68.5 -136.5t-58 -152t-41 -172h-145q12 67 36 141t56.5 148t71 144.5t79.5 129.5v2h-245v-53h-107v168h495z" />
    <glyph glyph-name="eight.tnum" 
d="M408 357q69 -32 107.5 -72.5t38.5 -100.5q0 -50 -21 -86.5t-57 -60.5t-84 -35.5t-102 -11.5q-52 0 -98.5 10.5t-81.5 32t-55.5 55.5t-20.5 82q0 62 38.5 102.5t104.5 66.5v2q-57 26 -90 66.5t-33 100.5q0 46 20 80t54 56.5t77.5 34t91.5 11.5q45 0 87.5 -11t75.5 -33
t53 -55t20 -76q0 -57 -33 -92.5t-92 -63.5v-2zM168 184q0 -18 7 -36t22.5 -31.5t40 -22t60.5 -8.5q67 0 94 26t27 60q0 27 -14 45.5t-35 32t-46.5 23t-49.5 18.5q-21 -8 -40 -18t-33.5 -23t-23.5 -29.5t-9 -36.5zM290 594q-20 0 -39 -5.5t-33.5 -16t-23.5 -26t-9 -35.5
q0 -22 10.5 -39t28 -30t39.5 -22t46 -15q38 13 65.5 37.5t27.5 61.5q0 22 -9 38.5t-24.5 28t-36 17.5t-42.5 6z" />
    <glyph glyph-name="nine.tnum" 
d="M411 295q-27 -32 -66.5 -51t-84.5 -19q-101 0 -158.5 61t-57.5 174q0 54 18 96.5t50 72.5t76.5 45.5t97.5 15.5q70 0 119.5 -26t80 -69t44.5 -99t14 -116q0 -114 -25 -189.5t-67 -120t-97.5 -62.5t-117.5 -18q-51 0 -91 7t-81 21v149h108v-65q14 -2 25.5 -3.5t27.5 -1.5
q40 0 74.5 14.5t59.5 40.5t39 62t14 80zM402 392q3 35 0.5 69t-14.5 61t-35 43.5t-61 16.5q-45 0 -77.5 -30.5t-32.5 -91.5q0 -20 4.5 -41.5t17.5 -39.5t34.5 -29.5t56.5 -11.5q33 0 59.5 15.5t47.5 38.5z" />
    <glyph glyph-name="zero.c2sc" horiz-adv-x="570" 
d="M285 402q-49 0 -82 -37t-33 -115t33 -115.5t82 -37.5t82 37.5t33 115.5t-33 115t-82 37zM285 -10q-58 0 -105 17.5t-80 50.5t-50.5 81.5t-17.5 110.5t17.5 110.5t50.5 81.5t80 50.5t105 17.5t104.5 -17.5t79.5 -50.5t50.5 -81.5t17.5 -110.5t-17.5 -110.5t-50.5 -81.5
t-79.5 -50.5t-104.5 -17.5z" />
    <glyph glyph-name="one.c2sc" horiz-adv-x="390" 
d="M365 107v-107h-350v107h110v272l-108 -5v92l177 39h61v-398h110z" />
    <glyph glyph-name="two.c2sc" horiz-adv-x="530" 
d="M505 152v-152h-483v124q79 29 140 53.5t103 47t63.5 45t21.5 47.5q0 22 -9 36.5t-23.5 23t-32 11.5t-33.5 3q-23 0 -54 -4.5t-58 -13.5v-48h-108v142q37 15 99 29t136 14q59 0 100.5 -12.5t68 -34.5t39 -50.5t12.5 -60.5q0 -53 -24 -89.5t-63 -64t-89.5 -48.5t-104.5 -41
v-2h191v45h108z" />
    <glyph glyph-name="three.c2sc" horiz-adv-x="520" 
d="M20 -5h107v-61q27 -9 55.5 -13t58.5 -4q37 0 60.5 9.5t37.5 23.5t19.5 31t5.5 31q0 94 -134 94h-90v108h84q37 0 61 9t38 24t19.5 33t5.5 36q0 15 -5.5 30.5t-18.5 27.5t-33 20t-50 8t-54.5 -4.5t-50.5 -12.5v-60h-107v136q60 28 119 38.5t116 10.5q44 0 83 -11.5t68 -34
t45.5 -56t16.5 -78.5q0 -57 -31.5 -96t-86.5 -59v-2q35 -9 61 -25.5t43 -38.5t25.5 -49t8.5 -55q0 -95 -65 -145t-183 -50q-64 0 -117 10t-112 39v136z" />
    <glyph glyph-name="four.c2sc" horiz-adv-x="570" 
d="M330 107v259h-2q-41 -75 -81 -136.5t-92 -122.5h175zM330 0h-308v107q41 45 79.5 90.5t73.5 93.5t66 101t58 113h161v-398h87v-107h-87v-73h57v-107h-245v107h58v73z" />
    <glyph glyph-name="five.c2sc" horiz-adv-x="540" 
d="M485 332h-108v53h-207l-9 -166l2 -1q24 20 56 33.5t80 13.5q96 0 152 -55.5t56 -164.5q0 -117 -68 -176t-189 -59q-57 0 -108 11t-112 39v127h107v-53q28 -10 53.5 -13.5t51.5 -3.5q66 0 97 34.5t31 85.5q0 20 -5.5 40.5t-19 37.5t-36.5 28t-57 11q-39 0 -64 -12.5
t-51 -35.5l-93 8l13 386h428v-168z" />
    <glyph glyph-name="six.c2sc" horiz-adv-x="550" 
d="M164 384q26 32 63.5 51.5t81.5 19.5q97 0 152.5 -61t55.5 -174q0 -54 -17.5 -96.5t-48.5 -72.5t-74 -45.5t-94 -15.5q-68 0 -116 26t-78 69t-43.5 99t-13.5 116q0 114 24 189.5t64.5 120t94.5 62.5t114 18q49 0 88.5 -7t79.5 -21v-150h-107v66q-23 4 -50 4
q-37 0 -69.5 -14.5t-56.5 -40.5t-38 -62t-14 -80zM174 288q-3 -35 -1 -69t13 -61t32.5 -44t57.5 -17q43 0 73.5 31t30.5 92q0 20 -4.5 41.5t-16.5 39.5t-32.5 29.5t-52.5 11.5t-56 -15.5t-44 -38.5z" />
    <glyph glyph-name="seven.c2sc" horiz-adv-x="490" 
d="M467 500v-93q-35 -62 -70 -126.5t-65.5 -136.5t-55 -152t-39.5 -172h-145q11 67 34.5 141t54.5 148t68.5 144.5t76.5 129.5v2h-194v-53h-107v168h442z" />
    <glyph glyph-name="eight.c2sc" horiz-adv-x="550" 
d="M389 357q66 -32 102 -72.5t36 -100.5q0 -50 -20.5 -86.5t-55 -60.5t-81.5 -35.5t-99 -11.5q-50 0 -95 10.5t-79.5 32t-54.5 55.5t-20 82q0 62 37 102.5t100 66.5v2q-54 26 -85.5 66.5t-31.5 100.5q0 46 19.5 80t52.5 56.5t76 34t89 11.5q43 0 84.5 -11t73 -33t51 -55
t19.5 -76q0 -57 -31 -92.5t-87 -63.5v-2zM156 184q0 -18 6.5 -36t21.5 -31.5t38.5 -22t56.5 -8.5q32 0 54 7t35.5 19t19.5 27.5t6 32.5q0 27 -13.5 45.5t-34 32t-45 23t-46.5 18.5q-19 -8 -37 -18t-31.5 -23t-22 -29.5t-8.5 -36.5zM271 594q-19 0 -36.5 -5.5t-31.5 -16
t-22.5 -26t-8.5 -35.5q0 -22 10 -39t27 -30t38 -22t44 -15q35 13 60.5 37.5t25.5 61.5q0 44 -31.5 67t-74.5 23z" />
    <glyph glyph-name="nine.c2sc" horiz-adv-x="550" 
d="M385 115q-26 -32 -63.5 -51t-80.5 -19q-97 0 -153 61t-56 174q0 54 17.5 96.5t48.5 72.5t74.5 45.5t94.5 15.5q68 0 115.5 -26t77.5 -69t43.5 -99t13.5 -116q0 -114 -24 -189.5t-64.5 -120t-94 -62.5t-113.5 -18q-49 0 -89 7t-79 21v149h107v-65q13 -2 24 -3.5t26 -1.5
q37 0 69.5 14.5t56.5 40.5t37.5 62t13.5 80zM376 212q3 35 1 69t-13 61t-32.5 43.5t-57.5 16.5q-43 0 -73.5 -30.5t-30.5 -91.5q0 -20 4.5 -41.5t16.5 -39.5t32.5 -29.5t52.5 -11.5q31 0 55.5 15.5t44.5 38.5z" />
    <glyph glyph-name="zero.c2sc.tnum" 
d="M294 402q-49 0 -82 -37t-33 -115t33 -115.5t82 -37.5t82 37.5t33 115.5t-33 115t-82 37zM294 -10q-58 0 -105 17.5t-80 50.5t-50.5 81.5t-17.5 110.5t17.5 110.5t50.5 81.5t80 50.5t105 17.5t104.5 -17.5t79.5 -50.5t50.5 -81.5t17.5 -110.5t-17.5 -110.5t-50.5 -81.5
t-79.5 -50.5t-104.5 -17.5z" />
    <glyph glyph-name="one.c2sc.tnum" 
d="M529 107v-107h-471v107h171v272l-160 -5v92l228 39h62v-398h170z" />
    <glyph glyph-name="two.c2sc.tnum" 
d="M534 152v-152h-480v124q78 29 139 53.5t102 47t62.5 45t21.5 47.5q0 22 -9 36.5t-23.5 23t-32 11.5t-34.5 3q-23 0 -53.5 -4.5t-57.5 -13.5v-48h-108v142q37 15 99 29t135 14q59 0 101 -12.5t68.5 -34.5t39 -50.5t12.5 -60.5q0 -53 -23.5 -89.5t-62.5 -64t-89 -48.5
t-104 -41v-2h189v45h108z" />
    <glyph glyph-name="three.c2sc.tnum" 
d="M46 -5h108v-61q28 -9 58 -13t62 -4q39 0 64.5 9.5t40 23.5t20 31t5.5 31q0 94 -141 94h-93v108h87q38 0 63 9t40 24t21 33t6 36q0 15 -5.5 30.5t-19 27.5t-35 20t-53.5 8t-58 -4.5t-52 -12.5v-60h-108v136q62 28 122 38.5t119 10.5q46 0 86.5 -11.5t70.5 -34t47 -56
t17 -78.5q0 -57 -33.5 -96t-90.5 -59v-2q36 -9 63.5 -25.5t45.5 -38.5t27 -49t9 -55q0 -95 -67.5 -145t-189.5 -50q-33 0 -62.5 2.5t-58 8t-57 15t-58.5 23.5v136z" />
    <glyph glyph-name="four.c2sc.tnum" 
d="M342 107v259h-2q-43 -75 -86 -136t-97 -123h185zM342 0h-319v107q43 45 83 90.5t76 93.5t68.5 101t59.5 113h163v-398h91v-107h-91v-73h60v-107h-251v107h60v73z" />
    <glyph glyph-name="five.c2sc.tnum" 
d="M515 332h-109v53h-218l-10 -166l2 -1q26 20 60 33.5t83 13.5t89 -14t68 -42t43.5 -69t15.5 -95q0 -116 -71.5 -175.5t-194.5 -59.5q-59 0 -111.5 11t-115.5 39v127h108v-53q30 -10 56.5 -13.5t54.5 -3.5q69 0 102 34.5t33 85.5q0 20 -5.5 40.5t-20 37.5t-38.5 28t-60 11
q-41 0 -68 -12.5t-53 -35.5l-94 8l14 386h440v-168z" />
    <glyph glyph-name="six.c2sc.tnum" 
d="M176 384q28 32 67 51.5t84 19.5q101 0 159 -61t58 -174q0 -54 -18 -96.5t-50 -72.5t-76.5 -45.5t-97.5 -15.5q-71 0 -120 26t-79.5 69t-44.5 99t-14 116q0 114 24.5 189.5t66.5 120t97.5 62.5t117.5 18q51 0 91 -7t82 -21v-150h-109v66q-14 2 -25.5 3t-27.5 1
q-40 0 -74.5 -14.5t-59.5 -40.5t-39 -62t-14 -80zM186 288q-3 -35 -0.5 -69t14.5 -61t34.5 -44t60.5 -17q45 0 77.5 31t32.5 92q0 20 -4.5 41.5t-17 39.5t-34.5 29.5t-56 11.5t-60.5 -15.5t-46.5 -38.5z" />
    <glyph glyph-name="seven.c2sc.tnum" 
d="M543 500v-93q-37 -62 -73.5 -126.5t-68.5 -136.5t-58 -152t-41 -172h-145q12 67 36 141t56.5 148t71 144.5t79.5 129.5v2h-245v-53h-107v168h495z" />
    <glyph glyph-name="eight.c2sc.tnum" 
d="M408 357q69 -32 107.5 -72.5t38.5 -100.5q0 -50 -21 -86.5t-57 -60.5t-84 -35.5t-102 -11.5q-52 0 -98.5 10.5t-81.5 32t-55.5 55.5t-20.5 82q0 62 38.5 102.5t104.5 66.5v2q-57 26 -90 66.5t-33 100.5q0 46 20 80t54 56.5t77.5 34t91.5 11.5q45 0 87.5 -11t75.5 -33
t53 -55t20 -76q0 -57 -33 -92.5t-92 -63.5v-2zM168 184q0 -18 7 -36t22.5 -31.5t40 -22t60.5 -8.5q67 0 94 26t27 60q0 27 -14 45.5t-35 32t-46.5 23t-49.5 18.5q-21 -8 -40 -18t-33.5 -23t-23.5 -29.5t-9 -36.5zM290 594q-20 0 -39 -5.5t-33.5 -16t-23.5 -26t-9 -35.5
q0 -22 10.5 -39t28 -30t39.5 -22t46 -15q38 13 65.5 37.5t27.5 61.5q0 22 -9 38.5t-24.5 28t-36 17.5t-42.5 6z" />
    <glyph glyph-name="nine.c2sc.tnum" 
d="M411 115q-27 -32 -66.5 -51t-84.5 -19q-101 0 -158.5 61t-57.5 174q0 54 18 96.5t50 72.5t76.5 45.5t97.5 15.5q70 0 119.5 -26t80 -69t44.5 -99t14 -116q0 -114 -25 -189.5t-67 -120t-97.5 -62.5t-117.5 -18q-51 0 -91 7t-81 21v149h108v-65q14 -2 25.5 -3.5t27.5 -1.5
q40 0 74.5 14.5t59.5 40.5t39 62t14 80zM402 212q3 35 0.5 69t-14.5 61t-35 43.5t-61 16.5q-45 0 -77.5 -30.5t-32.5 -91.5q0 -20 4.5 -41.5t17.5 -39.5t34.5 -29.5t56.5 -11.5q33 0 59.5 15.5t47.5 38.5z" />
    <glyph glyph-name="currency.oldstyle" horiz-adv-x="513" 
d="M100 249q0 34 12.5 63t35.5 51l-78 90l8 8l79 -90q20 17 45.5 26.5t54.5 9.5q28 0 53.5 -9.5t45.5 -26.5l78 90l9 -8l-78 -89q23 -22 36.5 -51.5t13.5 -63.5t-13 -63.5t-36 -50.5l76 -86l-9 -9l-77 87q-20 -17 -45.5 -26t-53.5 -9q-29 0 -54.5 9t-45.5 26l-76 -87l-9 9
l76 86q-23 22 -35.5 51t-12.5 63zM112 249q0 -30 11.5 -56t31.5 -46t46 -31.5t56 -11.5t56.5 11.5t46.5 31.5t31.5 46t11.5 56t-11.5 56.5t-31.5 46.5t-46.5 31.5t-56.5 11.5t-56 -11.5t-46 -31.5t-31.5 -46.5t-11.5 -56.5z" />
    <glyph glyph-name="cent.c2sc" 
d="M295 -130v100h70v-100h-70zM295 530v100h70v-100h-70zM402 397q-16 2 -31.5 3.5t-35.5 1.5q-58 0 -89 -41t-31 -111q0 -75 32.5 -114t87.5 -39q15 0 29 0.5t30.5 3t38.5 7t54 13.5l23 -104q-45 -13 -85.5 -20t-89.5 -7q-71 0 -120 18.5t-80 52.5t-44.5 82t-13.5 107
q0 58 13.5 106t44 82t79.5 53t121 19q49 0 91 -6.5t84 -17.5v-139h-108v50z" />
    <glyph glyph-name="dollar.c2sc" 
d="M270 -130v100h70v-100h-70zM270 530v100h70v-100h-70zM384 347v51q-30 5 -54.5 6.5t-40.5 1.5q-23 0 -37.5 -4t-22.5 -10.5t-11.5 -14t-3.5 -13.5q0 -18 16 -29.5t65 -21.5q35 -8 72.5 -18t68 -27.5t50.5 -45.5t20 -71q0 -83 -53 -122t-144 -39q-62 0 -122.5 6.5
t-105.5 17.5v138h108v-50q32 -6 60 -7t45 -1q24 0 39.5 5t25 12.5t13.5 15.5t4 15q0 19 -20.5 29.5t-65.5 19.5q-42 7 -79.5 18.5t-65.5 31t-44.5 48.5t-16.5 71q0 80 53 115t144 35q61 0 113 -6.5t97 -17.5v-139h-107z" />
    <glyph glyph-name="Euro.c2sc" 
d="M357 225v-40h-108q11 -35 38 -61.5t73 -26.5q15 0 29 0.5t30.5 3t38.5 7t54 13.5l23 -104q-45 -13 -85.5 -20t-89.5 -7q-61 0 -106 13.5t-75.5 39t-48 61.5t-23.5 81h-55v40h51q-1 8 -1.5 23.5t1.5 26.5h-51v40h55q6 38 21.5 73.5t45.5 62.5t75.5 43t110.5 16
q49 0 90 -7.5t85 -20.5v-135h-108v47q-14 3 -29.5 5.5t-37.5 2.5q-25 0 -43.5 -8t-32 -21t-22 -28t-13.5 -30h108v-40h-117q-1 -11 -1 -26.5t1 -23.5h117z" />
    <glyph glyph-name="franc.oldstyle" 
d="M357 225v-40h-108q11 -35 38 -61.5t73 -26.5q15 0 29 0.5t30.5 3t38.5 7t54 13.5l23 -104q-45 -13 -85.5 -20t-89.5 -7q-61 0 -106 13.5t-75.5 39t-48 61.5t-23.5 81h-55v40h51q-1 8 -1.5 23.5t1.5 26.5h-51v40h55q6 38 21.5 73.5t45.5 62.5t75.5 43t110.5 16
q49 0 90 -7.5t85 -20.5v-135h-108v47q-14 3 -29.5 5.5t-37.5 2.5q-25 0 -43.5 -8t-32 -21t-22 -28t-13.5 -30h108v-40h-117q-1 -11 -1 -26.5t1 -23.5h117z" />
    <glyph glyph-name="sterling.c2sc" 
d="M430 167h107v-167h-492v115h50v97h-50v78h50v46q0 47 17.5 80t49 54t73.5 30.5t92 9.5q72 0 125 -12t90 -23v-135h-107v46q-26 6 -53.5 11t-61.5 5q-51 0 -73 -20.5t-22 -49.5v-42h125v-78h-125v-97h205v52z" />
    <glyph glyph-name="yen.c2sc" horiz-adv-x="600" 
d="M425 107v-107h-250v107h60v68h-112v62h78l-113 155h-47v108h172l90 -197h2l91 197h163v-108h-56l-112 -155h79v-62h-105v-68h60z" />
    <glyph glyph-name="lira.oldstyle" 
d="M357 225v-40h-108q11 -35 38 -61.5t73 -26.5q15 0 29 0.5t30.5 3t38.5 7t54 13.5l23 -104q-45 -13 -85.5 -20t-89.5 -7q-61 0 -106 13.5t-75.5 39t-48 61.5t-23.5 81h-55v40h51q-1 8 -1.5 23.5t1.5 26.5h-51v40h55q6 38 21.5 73.5t45.5 62.5t75.5 43t110.5 16
q49 0 90 -7.5t85 -20.5v-135h-108v47q-14 3 -29.5 5.5t-37.5 2.5q-25 0 -43.5 -8t-32 -21t-22 -28t-13.5 -30h108v-40h-117q-1 -11 -1 -26.5t1 -23.5h117z" />
    <glyph glyph-name="peseta.oldstyle" 
d="M357 225v-40h-108q11 -35 38 -61.5t73 -26.5q15 0 29 0.5t30.5 3t38.5 7t54 13.5l23 -104q-45 -13 -85.5 -20t-89.5 -7q-61 0 -106 13.5t-75.5 39t-48 61.5t-23.5 81h-55v40h51q-1 8 -1.5 23.5t1.5 26.5h-51v40h55q6 38 21.5 73.5t45.5 62.5t75.5 43t110.5 16
q49 0 90 -7.5t85 -20.5v-135h-108v47q-14 3 -29.5 5.5t-37.5 2.5q-25 0 -43.5 -8t-32 -21t-22 -28t-13.5 -30h108v-40h-117q-1 -11 -1 -26.5t1 -23.5h117z" />
    </font>
</defs>
</svg>
